<?xml version="1.0" encoding="utf-8"?>
<!-- Generator: Adobe Illustrator 20.1.0, SVG Export Plug-In . SVG Version: 6.00 Build 0)  -->
<svg version="1.1" id="Layer_1" xmlns="http://www.w3.org/2000/svg" xmlns:xlink="http://www.w3.org/1999/xlink" x="0px" y="0px"
	 width="220px" height="192px" viewBox="0 0 220 192" style="enable-background:new 0 0 220 192;" xml:space="preserve">
<style type="text/css">
	.st0{opacity:0.2;}
	.st1{fill:#00BDFF;}
	.st2{fill:#0A9DFF;}
	.st3{fill:#1599FF;}
	.st4{fill:#1560FA;}
	.st5{fill:#ED588E;}
	.st6{fill:#AA6739;}
	.st7{fill:#724425;}
	.st8{fill:#ADADAD;}
	.st9{fill:#1050D3;}
</style>
<g id="Desktop-HD-Copy-3" transform="translate(-168.000000, -1331.000000)">
	<g id="startup-own" transform="translate(168.000000, 1330.000000)">
		<g id="Group-Copy-2" transform="translate(6.717504, 12.000000)" class="st0">
			<polygon id="Fill-5" class="st1" points="106.4,98.4 106.4,74 82,98.4 			"/>
			<polygon id="Fill-10" class="st2" points="106.4,74 106.4,98.4 130.8,98.4 			"/>
			<polygon id="Fill-3" class="st3" points="82.1,98.4 0.4,181 106.4,181 106.4,98.4 82.1,98.4 			"/>
			<polygon id="Fill-12" class="st4" points="130.8,98.4 106.4,98.4 106.4,181.1 212.6,181.1 			"/>
			<polygon id="Fill-7" class="st5" points="106.4,73.9 106.4,52.1 118.4,63 			"/>
		</g>
		<g id="Group-19">
			<g id="Page-1-Copy-2" transform="translate(3.729229, 51.113481)">
				<polygon id="Fill-3_1_" class="st4" points="46.9,101 54.6,110.9 70.1,93.4 70.1,62.1 57.1,62.1 57.1,90 				"/>
				<polygon id="Fill-3-Copy" class="st4" points="24.1,101 16.3,110.9 1.1,93.4 1.1,62.1 14,62.1 14,90 				"/>
				<polygon id="Fill-5_1_" class="st6" points="31.1,96.1 40.1,96.1 40.1,91.1 31.1,91.1 				"/>
				<path id="Fill-6" class="st4" d="M14,142.1h41.9l-3-30.1c0-6.8-5.6-12.3-12.3-12.3H30.3c-6.8,0-12.3,5.6-12.3,12.3L14,142.1z"/>
				<path id="Fill-8" class="st6" d="M21.2,82.7L21.2,82.7c-0.6,0-1-0.5-1-1v-7c0-0.6,0.5-1,1-1l0,0c0.6,0,1,0.5,1,1v7
					C22.2,82.2,21.8,82.7,21.2,82.7"/>
				<path id="Fill-10_1_" class="st6" d="M50.1,82.7L50.1,82.7c-0.6,0-1-0.5-1-1v-7c0-0.6,0.5-1,1-1l0,0c0.6,0,1,0.5,1,1v7
					C51.1,82.2,50.7,82.7,50.1,82.7"/>
				<path id="Fill-12_1_" d="M41.5,80.7H29.9c-4.9,0-8.9-4-8.9-8.9v-0.3c0-4.9,4-8.9,8.9-8.9h11.6c4.9,0,8.9,4,8.9,8.9v0.3
					C50.4,76.7,46.4,80.7,41.5,80.7"/>
				<path id="Fill-14" class="st6" d="M50.3,79.2c0,8.1-6.6,14.6-14.6,14.6c-8.1,0-14.6-6.6-14.6-14.6s6.6-14.6,14.6-14.6
					C43.8,64.6,50.3,71.1,50.3,79.2"/>
				<path id="Fill-16" d="M43.1,66.7c-1-5.3-2.9-9.6-13.6-7.9C18.8,60.5,18.1,73.9,19,78.5s1.5-7,10.5-10.7
					C34.4,65.8,38.9,65.5,43.1,66.7z"/>
				<path id="Fill-18" class="st7" d="M39.8,77.7l-1.6-1c-1.5-1-3.4-1-4.9,0l-1.6,1H39.8z"/>
				<polygon id="Fill-20" class="st8" points="29.1,100.1 43.1,100.1 43.1,95.1 29.1,95.1 				"/>
				<polygon id="Fill-22" class="st6" points="3.6,62.2 11.5,62.2 11.5,59.3 3.6,59.3 				"/>
				<polygon id="Fill-23" class="st6" points="59.8,62.2 67.7,62.2 67.7,59.3 59.8,59.3 				"/>
				<path id="Fill-24" class="st6" d="M14.3,54.1c0,4-3.2,7.4-7.3,7.4s-7.3-3.4-7.3-7.4H14.3z"/>
				<path id="Fill-25" class="st6" d="M71.7,53.9c0,4-3.2,7.6-7.3,7.6c-4,0-7.3-3.6-7.3-7.6H71.7z"/>
			</g>
			<g id="Group-Copy-3" transform="translate(0.000000, 0.902823)">
				<polygon id="Fill-5_2_" class="st1" points="40.1,74.2 40.1,64.8 30.9,74.2 				"/>
				<polygon id="Fill-10_2_" class="st2" points="40.1,64.8 40.1,74.2 49.3,74.2 				"/>
				<path id="Fill-3_2_" class="st3" d="M30.9,74.2c-10.2,10-20.3,20.1-30.5,30.1c13.2,0,26.4,0,39.6-0.1c0-10,0-20,0-30H30.9z"/>
				<polygon id="Fill-12_2_" class="st4" points="49.3,74.2 40.1,74.2 40.1,104.3 79.9,104.3 				"/>
				<polygon id="Fill-7_1_" class="st5" points="40.1,64.8 40.1,53.2 46.5,59 				"/>
			</g>
			<polygon id="Path-2" class="st9" points="73.8,144.5 60.9,141.1 49.3,151.7 56.6,164.5 			"/>
			<polygon id="Path-2_1_" class="st9" points="4.9,144.4 17.7,141.1 29.2,151.7 21.8,164.5 			"/>
		</g>
	</g>
</g>
</svg>
