<?xml version="1.0" encoding="utf-8"?>
<!-- Generator: Adobe Illustrator 20.1.0, SVG Export Plug-In . SVG Version: 6.00 Build 0)  -->
<svg version="1.1" id="Layer_1" xmlns="http://www.w3.org/2000/svg" xmlns:xlink="http://www.w3.org/1999/xlink" x="0px" y="0px"
	 width="170px" height="192px" viewBox="0 0 170 192" style="enable-background:new 0 0 170 192;" xml:space="preserve">
<style type="text/css">
	.st0{fill:#8C4B1F;}
	.st1{fill:#AA6739;}
	.st2{fill:#FFB069;}
	.st3{fill:#303030;}
	.st4{fill:#E29E66;}
	.st5{fill:#C14E1B;}
	.st6{fill:#D3AF57;}
	.st7{fill:#A0A0A0;}
	.st8{fill:#5B5B5B;}
	.st9{fill:#D17C3D;}
	.st10{fill:#1560FA;}
	.st11{fill:#565656;}
	.st12{fill:#ADADAD;}
	.st13{fill:#A35D2E;}
	.st14{fill:#FCD486;}
	.st15{fill:#CC763B;}
	.st16{fill:#2F61B2;}
	.st17{fill:#CE3F00;}
	.st18{fill:#633D20;}
	.st19{fill:#CC2200;}
	.st20{fill:#A81800;}
</style>
<path id="Fill-2" class="st0" d="M38.1,113.2c2.6,1,2.8,4.1,0.3,5.2l-8.5,1.5c-1.4,0.6-3.1,0-3.7-1.4l-2.5-5.7
	c-1-2.2,1.1-4.5,3.4-3.8L38.1,113.2z"/>
<path id="Fill-4" class="st1" d="M34.1,132.2c-5.5,5.8-14.8,6.1-20.6,0.5c-5.8-5.5-6.1-14.3-0.5-20.1c5.5-5.8,14.8-6.1,20.6-0.5
	C39.4,117.6,39.7,126.3,34.1,132.2"/>
<g id="Page-1" transform="translate(20.187759, 30.188564) rotate(-30.000000) translate(-20.187759, -30.188564) translate(5.687759, 16.188564)">
	<path id="Fill-1" d="M-42.5,96.4c-0.4,0.3-0.3,4.8,3.3,8.4c0,0,2.4-1.9,4-2c0,0-0.4-7.9,3.7-11.2s-10.3,4.9-10.3,4.9"/>
	<path id="Fill-3" d="M-15.7,79.4c0.5,0.5,0.5,2.6-0.8,6.3c-1.3,3.9-4.8,6.7-8.9,7.3c-6.8,0.9-15.8,2.5-16.3,4.4
		c-0.5,2-3.6-10.2,2-14.8S-18.1,76.8-15.7,79.4"/>
</g>
<polygon id="Fill-14" class="st2" points="107.5,140.3 116.7,139.2 115.3,127 106.1,128 "/>
<polygon id="Fill-16" class="st3" points="102.8,145.4 122.6,143.1 121.7,135.6 102,137.9 "/>
<g id="Group-14" transform="translate(106.000000, 26.000000) rotate(5.000000) translate(-106.000000, -26.000000) translate(89.000000, 8.000000)">
	<path id="Fill-10" class="st4" d="M9.9,107.4l8.2-8.5c1.8-1.6,4.6-0.4,4.7,2l0.1,6.2c0,1.5-1.2,2.8-2.7,2.9l-8.3,2.3
		C9.1,112.3,8,109.4,9.9,107.4"/>
	<path id="Fill-12" class="st2" d="M19.4,121.9c6.7,4.5,15.7,2.8,20.2-3.9c4.5-6.7,2.8-15.7-3.9-20.2S20,95,15.5,101.7
		S12.7,117.4,19.4,121.9"/>
	<path id="Fill-18" class="st5" d="M19,102.6c1,0.3,2.2,2,2.3,3.1l0.9,6c0.1,0.7,0.7,1.2,1.4,1.2l1.2-0.1c0.7-0.1,1.2-0.7,1.2-1.4
		l-0.1-1.3c-0.2-2.4,1.9-4.6,4.6-4c1.6,0.4,2.7,1.7,2.8,3.3l0.1,1.2c0.1,0.7,0.7,1.2,1.4,1.2l7.7-0.7c0,0-0.7-11.3-1.5-17.6
		c-0.3-2.1-2.1-3.7-4.2-3.5L22,91.5c0,0-7.3,0.5-9.2-1.1C12.6,90.4,11.1,100.2,19,102.6"/>
</g>
<path id="Fill-20" class="st6" d="M74.5,121.3c-1,0.4-2.2-0.4-2.6-1.7c-0.4-1.3,0-2.6,1.1-2.9"/>
<polygon id="Fill-22" class="st2" points="68.9,124.3 64.2,113.4 70.3,110.8 75,121.7 "/>
<polygon id="Fill-24" class="st7" points="75.3,136.9 66.9,124.9 75.4,119.8 84.1,134.4 "/>
<polygon id="Fill-26" class="st3" points="93.6,161 66.8,128.4 78.3,120.9 103.5,151.4 "/>
<path id="Fill-28" class="st2" d="M64.5,111.4l-0.8-0.1c-0.3,0-0.6-0.3-0.6-0.7l0.8-8.5c0-0.3,0.3-0.6,0.7-0.6l0.8,0.1
	c0.3,0,0.6,0.3,0.6,0.7l-0.8,8.5C65.2,111.2,64.9,111.4,64.5,111.4"/>
<path id="Fill-30" class="st2" d="M66.9,109.3l0.1-1.2c-0.6-0.1-1.1,0.6-1.1,0.1l0.9-8.9c0.1-0.6,0.6-1,1.1-0.9
	c0.6,0.1,1,0.6,0.9,1.1l-0.9,8.9C68,108.9,67.5,109.3,66.9,109.3"/>
<path id="Fill-32" class="st2" d="M69.5,109.3l0.2-2.2c-0.6-0.1-1.2,1.6-1.1,1l1-9.8c0.1-0.6,0.6-1,1.1-0.9l0,0
	c0.6,0.1,1,0.6,0.9,1.1l-1,9.8C70.6,109,70.1,109.4,69.5,109.3"/>
<path id="Fill-34" class="st2" d="M72,111L72,111c-0.6-0.1-1-0.3-1-0.8l1-10.4c0.1-0.6,0.6-1,1.1-0.9l0,0c0.6,0.1,1,0.6,0.9,1.1
	l-1,10.4C73,110.9,72.6,111,72,111"/>
<path id="Fill-36" class="st2" d="M74.5,115.5l-0.8-0.1c-0.3,0-0.6-0.3-0.6-0.7l0.8-8.5c0-0.3,0.3-0.6,0.7-0.6l0.8,0.1
	c0.3,0,0.6,0.3,0.6,0.7l-0.8,8.5C75.2,115.3,74.9,115.5,74.5,115.5"/>
<path id="Fill-38" class="st2" d="M75.3,113.6c-0.1,0.5-0.1,1-0.2,1.5c-0.8,2.5-3.4,4.2-6.5,3.9c-3.3-0.3-5.9-3.5-5.6-6.8
	c0.1-1.4,0.3-3.2,0.4-4.5"/>
<path id="Fill-40" class="st2" d="M63.9,110c0,0,1.4-4.1,6.7-3.4c1.1,0.1,2.7,1,2.7,1l-0.4,3.7l1.9,0.2l-4.7,5.8l-4.9-4.9L63.9,110z
	"/>
<path id="Fill-42" class="st8" d="M68.9,125.2c0.1,0.2-0.1,0.5-0.3,0.5c-0.2,0.1-0.5-0.1-0.5-0.3c-0.1-0.2,0.1-0.5,0.3-0.5
	C68.6,124.8,68.9,125,68.9,125.2"/>
<polygon id="Fill-44" class="st9" points="63.1,124.3 67.8,113.4 61.7,110.8 57,121.7 "/>
<polygon id="Fill-46" class="st10" points="36.7,155 65.8,125.9 56.5,118.2 26.4,146.7 "/>
<path id="Fill-48" class="st9" d="M67.5,111.4l0.8-0.1c0.3,0,0.6-0.3,0.6-0.7l-0.8-8.5c0-0.3-0.3-0.6-0.7-0.6l-0.8,0.1
	c-0.3,0-0.6,0.3-0.6,0.7l0.8,8.5C66.9,111.2,67.2,111.4,67.5,111.4"/>
<path id="Fill-50" class="st9" d="M65.2,109.3l-0.1-1.2c0.6-0.1,1.1,0.6,1.1,0.1l-0.9-8.9c-0.1-0.6-0.6-1-1.1-0.9l0,0
	c-0.6,0.1-1,0.6-0.9,1.1l0.9,8.9C64.1,108.9,64.6,109.3,65.2,109.3"/>
<path id="Fill-52" class="st9" d="M62.5,109.3l-0.2-2.2c0.6-0.1,1.2,1.6,1.1,1l-1-9.8c-0.1-0.6-0.6-1-1.1-0.9l0,0
	c-0.6,0.1-1,0.6-0.9,1.1l1,9.8C61.4,109,61.9,109.4,62.5,109.3"/>
<path id="Fill-54" class="st9" d="M60.1,111L60.1,111c0.6-0.1,1-0.3,1-0.8l-1-10.4c-0.1-0.6-0.6-1-1.1-0.9c-0.6,0.1-1,0.6-0.9,1.1
	l1,10.4C59,110.9,59.5,111,60.1,111"/>
<path id="Fill-56" class="st9" d="M57.5,115.5l0.8-0.1c0.3,0,0.6-0.3,0.6-0.7l-0.8-8.5c0-0.3-0.3-0.6-0.7-0.6l-0.8,0.1
	c-0.3,0-0.6,0.3-0.6,0.7l0.8,8.5C56.9,115.3,57.2,115.5,57.5,115.5"/>
<path id="Fill-58" class="st9" d="M56.7,113.6c0.1,0.5,0.1,1,0.2,1.5c0.8,2.5,3.4,4.2,6.5,3.9c3.3-0.3,5.9-3.5,5.6-6.8
	c-0.1-1.4-0.3-3.2-0.4-4.5"/>
<path id="Fill-60" class="st9" d="M68.1,110c0,0-1.4-4.1-6.7-3.4c-1.1,0.1-2.7,1-2.7,1l0.4,3.7l-1.9,0.2l4.7,5.8l4.9-4.9L68.1,110z"
	/>
<polygon id="Fill-62" class="st11" points="65.2,94.9 66,94.9 66,89.9 65.2,89.9 "/>
<polygon id="Fill-64" class="st11" points="68.4,95.6 67.9,95.1 70.5,92.5 71,93 "/>
<polygon id="Fill-65" class="st11" points="62.6,95.6 63.1,95.1 60.5,92.5 60,93 "/>
<path id="Fill-66" class="st10" d="M5,192h37.2l-2.6-38.5c0-6.5-5.3-11.7-11.7-11.7H17.7c-6.4,0-12.6,8.8-11.7,18.8L5,192z"/>
<polygon id="Fill-67" class="st1" points="19.3,139.9 27.7,139.9 27.7,135.8 19.3,135.8 "/>
<polygon id="Fill-68" class="st12" points="16,142 30,142 30,138 16,138 "/>
<path id="Fill-69" class="st3" d="M130.9,192H92v-40.8c0-5.1,4.1-9.2,9.2-9.2h20.5c5.1,0,9.2,4.1,9.2,9.2
	C130.9,151.2,130.9,192,130.9,192z"/>
<path id="Fill-76" class="st2" d="M77.7,124.2c0,0,1.2-3.7,6-3c1,0.1,2.4,0.9,2.4,0.9l-0.3,3.4l1.7,0.2l-4.2,5.2l-4.4-4.4
	L77.7,124.2z"/>
<path id="Fill-77" class="st13" d="M132.4,121.3l9.8-6.6c2.1-1.2,4.6,0.6,4.1,3l-1.2,6.1c-0.3,1.5-1.8,2.5-3.3,2.2l-8.6,0.5
	C130.6,125.9,130.1,122.8,132.4,121.3"/>
<path id="Fill-78" class="st14" d="M148,126.5c2,2,5.3,2,7.3,0s2-5.3,0-7.3s-5.3-2-7.3,0C146,121.3,146,124.5,148,126.5"/>
<path id="Fill-79" class="st14" d="M148.7,122.9l-0.8-0.8c-0.3-0.3-0.3-0.8,0-1.1l7.1-7.1c0.3-0.3,0.8-0.3,1.1,0l0.8,0.8
	c0.3,0.3,0.3,0.8,0,1.1l-7.1,7.1C149.5,123.2,149,123.2,148.7,122.9"/>
<path id="Fill-80" class="st15" d="M133.1,125.1c0,7.9,6.4,14.2,14.2,14.2s14.2-6.4,14.2-14.2s-6.4-14.2-14.2-14.2
	S133.1,117.2,133.1,125.1"/>
<polygon id="Fill-81" class="st15" points="143,143.2 151,143.2 151,132.3 143,132.3 "/>
<path id="Fill-82" class="st16" d="M163.3,192c1.2,0,0.5-37.5,0.5-38.5c0-6.3-5.1-11.5-11.3-11.5h-13.1c-6.2,0-11.3,5.2-11.3,11.5
	c0,1-0.1,3.1,0,4.1c0.7,6.4,3.8,34.4,3.8,34.4H163.3z"/>
<path id="Fill-83" d="M140.4,121c0,8,6.5,14.4,14.4,14.4c8,0,14.4-6.5,14.4-14.4s-6.5-14.4-14.4-14.4
	C146.9,106.6,140.4,113.1,140.4,121"/>
<path id="Fill-84" d="M150.5,116.2c0-5.3-4.3-9.6-9.6-9.6s-9.6,4.3-9.6,9.6H150.5z"/>
<path id="Fill-85" class="st17" d="M154.1,113.5c0,4,3.3,7.3,7.3,7.3s7.3-3.3,7.3-7.3s-3.3-7.3-7.3-7.3
	C157.4,106.2,154.1,109.4,154.1,113.5"/>
<path id="Fill-86" d="M156,137h14v-21.3c0-2-1.7-3.7-3.9-3.7h-6.3c-2.1,0-3.9,1.7-3.9,3.7L156,137L156,137z"/>
<polygon id="Fill-87" points="128.8,155.1 111.9,150.4 111.9,132.1 128.8,136.7 "/>
<polygon id="Fill-88" class="st14" points="115.5,161.7 123.2,161.7 123.2,149.3 115.5,149.3 "/>
<path id="Fill-89" class="st4" d="M105.3,136.7l7.5-4.7c1.6-0.8,3.4,0.6,3,2.3l-1,4.5c-0.3,1.1-1.4,1.8-2.5,1.6l-6.4,0.2
	C103.9,140.1,103.6,137.8,105.3,136.7"/>
<path id="Fill-90" class="st2" d="M135.7,139.6c0,8-6.5,14.6-14.6,14.6s-14.6-6.5-14.6-14.6S113,125,121.1,125
	S135.7,131.6,135.7,139.6"/>
<path id="Fill-91" class="st18" d="M131.5,149.8c5.7-5.7,5.7-14.9,0-20.6c-5.7-5.7-14.9-5.7-20.6,0L131.5,149.8z"/>
<path id="Fill-92" class="st19" d="M107,192c0,0-3.4-8-4.3-15.6c-0.1-1,0-3,0-4c0-6.2,5.2-11.3,11.5-11.3h13.3
	c6.3,0,11.5,5.1,11.5,11.3c0,1,0.1,3,0,4c-0.7,6.3-3.5,15.6-3.5,15.6"/>
<path id="Fill-93" class="st18" d="M125,167L125,167c-6.1,0-11-4.9-11-11v-24l22,6.6V156C136,162.1,131.1,167,125,167"/>
<path id="Fill-94" class="st2" d="M116.4,137L116.4,137c1.2,0,2.2,1,2.2,2.2v1.7c0,1.2-1,2.2-2.2,2.2"/>
<g id="Group-12" transform="translate(91.000000, 47.500000) rotate(-3.000000) translate(-91.000000, -47.500000) translate(76.000000, 23.000000)">
	<path id="Fill-70" class="st2" d="M-2.2,102.3c-0.3,0-0.5-0.3-0.5-0.6l0.8-7.6c0-0.3,0.3-0.5,0.6-0.5l0.8,0.1
		c0.3,0,0.5,0.3,0.5,0.6l-0.8,7.6c0,0.3-0.3,0.5-0.6,0.5L-2.2,102.3z"/>
	<path id="Fill-71" class="st2" d="M0.8,99.5c-0.5-0.1-1,0.6-0.9,0.1l0.8-8c0.1-0.5,0.5-0.9,1-0.8s0.9,0.5,0.8,1l-0.8,8
		c-0.1,0.5-0.5,0.9-1,0.8L0.8,99.5z"/>
	<path id="Fill-72" class="st2" d="M3.2,98.6c-0.5-0.1-1.1,1.4-1,0.9l0.9-8.8c0.1-0.5,0.5-0.9,1-0.8s0.9,0.5,0.8,1L4,99.7
		c-0.1,0.5-0.5,0.9-1,0.8L3.2,98.6z"/>
	<path id="Fill-73" class="st2" d="M4.4,101.3L5.3,92c0.1-0.5,0.5-0.9,1-0.8s0.9,0.5,0.8,1l-0.9,9.3c-0.1,0.5-0.5,0.6-1,0.6
		C4.7,102,4.3,101.8,4.4,101.3z"/>
	<path id="Fill-74" class="st2" d="M6.7,106c-0.3,0-0.5-0.3-0.5-0.6L7,97.8c0-0.3,0.3-0.5,0.6-0.5l0.8,0.1c0.3,0,0.5,0.3,0.5,0.6
		l-0.8,7.6c0,0.3-0.3,0.5-0.6,0.5L6.7,106z"/>
	<path id="Fill-75" class="st2" d="M8.2,104.4c0,0.5-0.1,0.9-0.2,1.3c-0.7,2.3-3.1,3.8-5.9,3.5c-3-0.3-5.3-3.1-5-6.1
		c0.1-1.3,0.3-2.9,0.4-4.1"/>
	<polygon id="Fill-95" class="st2" points="26.1,134.2 21.3,137.8 -0.8,107.2 3.4,103 	"/>
</g>
<path id="Fill-96" class="st20" d="M112.1,169.4L112.1,169.4c-2.8,2.2-6.8,1.6-9-1.2l-5.9-7.6c-0.2-0.2-0.1-0.5,0.1-0.7l9.3-7.2
	c0.2-0.2,0.5-0.1,0.7,0.1l5.9,7.6C115.4,163.2,114.9,167.2,112.1,169.4"/>
<path id="Fill-97" class="st18" d="M123,132.9c0-4.7-3.8-8.6-8.6-8.6c-4.7,0-8.6,3.8-8.6,8.6H123z"/>
</svg>
