<svg width="994" height="525" viewBox="0 0 994 525" fill="none" xmlns="http://www.w3.org/2000/svg">
<path opacity="0.7" d="M72.5 469L424.5 469" stroke="#697479" stroke-width="0.765574" stroke-dasharray="9.19 9.19"/>
<path opacity="0.7" d="M558 469H910" stroke="#697479" stroke-width="0.765574" stroke-dasharray="9.19 9.19"/>
<path opacity="0.4" d="M73.0615 356.727L103.867 347.837C105.179 347.459 106.407 346.835 107.487 345.999L144.153 317.624C146.047 316.158 148.375 315.362 150.771 315.362H174.483C177.331 315.362 180.065 314.238 182.09 312.234L213.803 280.846C217.488 277.199 223.244 276.681 227.522 279.611L290.167 322.529C294.404 325.432 300.097 324.955 303.791 321.388L329.274 296.78C331.918 294.228 335.676 293.192 339.254 294.031L367.162 300.573C370.191 301.283 373.379 300.654 375.911 298.847L412.144 272.996C416.068 270.196 421.372 270.332 425.148 273.329L448.357 291.749C452.605 295.12 458.692 294.824 462.592 291.056L475.241 278.839C477.986 276.187 481.925 275.179 485.606 276.186L510.553 283.006C514.08 283.97 517.855 283.087 520.588 280.658L548.99 255.415C550.815 253.792 553.136 252.836 555.574 252.7L587.122 250.948C588.549 250.869 589.978 251.073 591.325 251.549L618.492 261.15C622.871 262.697 627.75 261.275 630.612 257.616L656.451 224.583C660.202 219.788 667.17 219.032 671.861 222.912L706.917 251.905C711.839 255.975 719.072 255.54 723.47 250.909L767.234 204.832C770.961 200.907 777.017 200.343 781.406 203.512L802.058 218.428C804.826 220.427 808.376 221.001 811.633 219.977L878.322 199.007C880.449 198.338 882.318 197.027 883.672 195.255L915.319 153.824" stroke="url(#paint0_linear_4222_4823)" stroke-width="1.44184" stroke-linecap="round" stroke-linejoin="round"/>
<g filter="url(#filter0_f_4222_4823)">
<path d="M73.0615 347.615L104.831 332.068C105.51 331.736 106.222 331.475 106.955 331.292L143.876 322.037C145.962 321.514 148.155 321.625 150.177 322.355L162.593 326.837C183.006 334.205 205.651 331.987 224.245 320.796L255.137 302.205C258.908 299.935 263.678 300.178 267.2 302.818L288.211 318.568C303.057 329.698 324.04 327.137 335.774 312.763L353.055 291.594C364.003 278.182 382.942 274.448 398.161 282.702L420.486 294.808C424.512 296.992 429.477 296.402 432.88 293.336L479.046 251.735C482.719 248.426 488.169 248.029 492.283 250.771L530.26 276.085L566.799 228.354L594.462 242.523C598.541 244.613 603.526 243.555 606.405 239.989V239.989C617.88 225.779 637.424 220.966 654.185 228.224L662.243 231.713C692.483 244.807 727.762 234.622 746.369 207.425V207.425C750.123 201.938 758.009 201.379 762.498 206.282L770.438 214.951C774.934 219.861 782.756 219.581 786.89 214.362L811.364 183.463C813.415 180.873 816.537 179.363 819.841 179.363H877.959C880.316 179.363 882.608 178.593 884.487 177.171L915.319 153.824" stroke="url(#paint1_linear_4222_4823)" stroke-width="1.44184" stroke-linecap="round" stroke-linejoin="round"/>
</g>
<path opacity="0.4" d="M75.8721 335.465L108.497 320.743C111.293 319.482 114.493 319.467 117.301 320.702L145.723 333.211C148.935 334.624 152.634 334.391 155.643 332.585L180.459 317.692C183.084 316.117 186.254 315.728 189.181 316.622L215.648 324.703C219.581 325.903 223.853 324.77 226.674 321.779L251.259 295.706C254.945 291.797 260.943 291.187 265.341 294.275L287.248 309.658C291.757 312.823 297.924 312.094 301.57 307.964L327.904 278.128C331.233 274.356 336.724 273.379 341.151 275.77L360.073 285.99C363.411 287.793 367.451 287.715 370.717 285.782L397.265 270.078C401.665 267.475 407.287 268.309 410.742 272.077L444.211 308.579C448.958 313.756 457.303 313.105 461.189 307.254L511.426 231.62C512.493 230.014 513.97 228.722 515.705 227.879L616.362 178.925C619.464 177.416 623.1 177.478 626.149 179.091L693.179 214.556C705.222 220.929 719.937 219.286 730.279 210.415L761.557 183.585C770.347 176.045 782.433 173.636 793.442 177.231L837.781 191.71" stroke="url(#paint2_linear_4222_4823)" stroke-width="1.44184" stroke-linecap="round" stroke-linejoin="round"/>
<g opacity="0.453348" filter="url(#filter1_f_4222_4823)">
<path d="M445.044 208.652C445.044 208.652 473.444 192.169 475.963 179.281C493.849 87.7812 487.901 102.333 492.828 88.1289C496.998 76.1116 503.284 163.399 519.063 190.422C535.2 218.058 568.501 75.3269 588.398 88.1289C605.638 99.2214 608.464 190.851 622.128 190.422C639.654 189.871 644.856 103.321 651.174 103.321C654.669 103.321 661.349 164.305 672.724 179.281C673.895 180.823 683.838 163.198 684.904 164.089C688.389 167.002 722.552 171.477 726.13 170.166C745.025 163.242 733.455 103.321 740.184 103.321C743.634 103.321 739.547 148.398 760.797 158.012C781.62 167.433 828.136 141.09 798.276 170.166C786.875 181.267 622.128 227.895 622.128 227.895C622.128 227.895 615.554 299.031 606.2 297.779C579.553 294.21 563.312 231.407 554.667 234.985C534.083 243.505 545.27 287.045 524.685 281.574C520.093 280.353 518.024 236.255 513.441 234.985C479.997 225.72 411.313 246.126 411.313 246.126L445.044 208.652Z" fill="url(#paint3_linear_4222_4823)"/>
</g>
<g filter="url(#filter2_f_4222_4823)">
<path d="M74.9597 332.072C68.912 328.892 75.1821 324.935 81.2298 328.115L106.872 341.596C107.394 341.871 142.481 323.857 142.481 323.857C146.107 321.914 150.1 320.903 154.147 320.903H184.58C185.029 320.903 211.313 292.682 211.313 292.682C217.863 286.591 226.773 284.376 235.132 286.76L255.027 292.433C255.517 292.572 281.613 277.078 281.613 277.078C289.143 272.189 298.441 271.693 306.38 275.759L328.845 276.304C329.623 276.702 330.552 276.477 331.098 275.759L319.753 256.815C325.248 249.58 333.699 245.742 342.333 246.561L371.661 247.684C407.778 251.107 523.57 175.178 541.873 147.184C541.873 147.184 575.855 184.449 585.909 193.073C585.909 193.073 621.512 156.638 629.007 156.638C640.935 156.638 676.79 181.923 676.79 181.923C676.977 182.029 737.156 130.659 744.882 131.352C755.542 132.31 765.73 141.611 772.356 147.184C773.312 147.987 838.552 123.722 838.552 123.722C846.484 115.134 848.489 123.293 858.575 128.634L879.055 139.479C879.704 139.823 921.002 108.551 921.002 108.551C926.276 104.044 888.133 153.815 879.055 149.007L846.048 133.836C845.328 133.455 783.186 170.436 775.83 169.786C769.74 169.247 744.882 147.184 744.882 147.184C743.872 146.31 696.466 203.479 696.466 203.479C690.321 205.016 660.804 206.658 655.227 203.479L636.974 193.073C617.98 182.245 581.66 254.572 575.2 263.416L559.561 232.099C559.561 232.099 528.361 278.842 508.144 283.389C487.927 287.936 458.897 267.448 458.897 267.448L418.928 261.578C417.62 262.26 416.263 262.823 414.869 263.262L379.176 274.51C376.048 275.496 372.776 275.844 369.53 275.536L340.203 272.756C339.586 272.698 338.982 272.972 338.59 273.489L318.405 300.063C329.291 305.637 310.765 310.121 318.405 300.063L296.726 286.76C296.159 286.469 269.029 305.893 269.029 305.893C262.954 309.838 255.66 310.961 248.806 309.006L228.911 300.063C228.314 299.893 191.138 328.115 191.138 328.115C188.794 330.294 180.208 325.111 151.787 329.711C141.726 331.339 118.058 345.22 118.058 345.22C110.772 349.125 105.697 352.099 98.3828 348.254L74.9597 332.072Z" fill="url(#paint4_linear_4222_4823)"/>
</g>
<path d="M73.0615 336.08L103.758 344.143C106.315 344.814 109.028 344.526 111.387 343.333L148.521 324.547C150.034 323.781 151.706 323.383 153.402 323.383H183.11C185.842 323.383 188.473 322.348 190.474 320.487L220.371 292.684C223.143 290.107 227.061 289.166 230.701 290.204L252.896 296.535C255.902 297.392 259.132 296.907 261.753 295.204L289.853 276.951C293.1 274.842 297.228 274.63 300.674 276.395L325.451 289.087C330.117 291.477 335.824 290.177 338.994 286.002L360.118 258.183C363.186 254.143 368.648 252.778 373.255 254.9L424.695 278.592C429.174 280.655 434.481 279.426 437.598 275.605L477.22 227.029C478.803 225.088 481.011 223.757 483.467 223.263L582.911 203.256C585.222 202.791 587.622 203.095 589.745 204.12L623.017 220.185C627.648 222.42 633.212 221.086 636.325 216.994L664.671 179.731C668.117 175.202 674.482 174.118 679.232 177.251L710.391 197.804C714.594 200.576 720.154 200.081 723.801 196.61L769.016 153.575C771.979 150.755 776.28 149.848 780.129 151.232L804.037 159.825C806.89 160.85 810.042 160.631 812.726 159.221L840.895 144.416C842.985 143.317 845.376 142.933 847.705 143.322L878.803 148.51C880.631 148.815 882.507 148.645 884.25 148.016L915.319 136.814" stroke="url(#paint5_linear_4222_4823)" stroke-width="2.88368" stroke-linecap="round" stroke-linejoin="round"/>
<g filter="url(#filter3_bd_4222_4823)">
<path d="M71 427L71.0003 336L103.759 344.329C106.316 345 109.029 344.712 111.388 343.519L148.522 324.733C150.035 323.967 151.707 323.569 153.403 323.569H183.111C185.843 323.569 188.474 322.534 190.475 320.673L220.372 292.87C223.144 290.293 227.062 289.352 230.702 290.39L252.897 296.721C255.903 297.578 259.133 297.093 261.754 295.39L289.854 277.137C293.101 275.028 297.229 274.816 300.675 276.581L325.452 289.273C330.117 291.663 335.825 290.363 338.995 286.188L360.119 258.369C363.187 254.329 368.649 252.964 373.255 255.086L424.696 278.778C429.175 280.841 434.482 279.612 437.599 275.791L477.221 227.215C478.804 225.274 481.012 223.943 483.468 223.449L582.912 203.442C585.223 202.977 587.625 203.281 589.748 204.306L623.02 220.371C627.651 222.606 633.216 221.272 636.329 217.18L664.675 179.917C668.12 175.388 674.486 174.304 679.236 177.437L710.394 197.99C714.597 200.762 720.157 200.267 723.804 196.796L769.02 153.761C771.983 150.941 776.283 150.034 780.133 151.418L804.041 160.011C806.893 161.036 810.046 160.817 812.729 159.407L840.898 144.602C842.988 143.503 845.38 143.119 847.709 143.508L878.806 148.696C880.635 149.001 882.51 148.831 884.254 148.202L910.003 139V427" fill="white" fill-opacity="0.4" shape-rendering="crispEdges"/>
</g>
<circle opacity="0.2" cx="630.372" cy="220.372" r="40.3716" fill="url(#paint6_radial_4222_4823)"/>
<g opacity="0.2" filter="url(#filter4_d_4222_4823)">
<circle cx="629.651" cy="219.651" r="17.0508" fill="url(#paint7_linear_4222_4823)"/>
</g>
<g filter="url(#filter5_dd_4222_4823)">
<circle cx="629.652" cy="219.651" r="5.76737" fill="url(#paint8_linear_4222_4823)"/>
</g>
<g filter="url(#filter6_dd_4222_4823)">
<circle cx="225.881" cy="289.942" r="3.34122" fill="url(#paint9_linear_4222_4823)"/>
</g>
<g filter="url(#filter7_dd_4222_4823)">
<circle cx="149.842" cy="323.341" r="3.34122" fill="url(#paint10_linear_4222_4823)"/>
</g>
<g filter="url(#filter8_dd_4222_4823)">
<circle cx="808.501" cy="161" r="4" fill="url(#paint11_linear_4222_4823)"/>
</g>
<path d="M150.536 344.18V348.305H155.966V349.265H150.536V353.72H149.426V343.22H156.626V344.18H150.536ZM158.397 345.83H159.462V353.72H158.397V345.83ZM158.937 344.105C158.717 344.105 158.532 344.03 158.382 343.88C158.232 343.73 158.157 343.55 158.157 343.34C158.157 343.14 158.232 342.965 158.382 342.815C158.532 342.665 158.717 342.59 158.937 342.59C159.157 342.59 159.342 342.665 159.492 342.815C159.642 342.955 159.717 343.125 159.717 343.325C159.717 343.545 159.642 343.73 159.492 343.88C159.342 344.03 159.157 344.105 158.937 344.105ZM167.3 353.72L164.795 350.42L162.275 353.72H161.075L164.195 349.67L161.225 345.83H162.425L164.795 348.92L167.165 345.83H168.335L165.365 349.67L168.515 353.72H167.3ZM176.729 350.105H170.129C170.189 350.925 170.504 351.59 171.074 352.1C171.644 352.6 172.364 352.85 173.234 352.85C173.724 352.85 174.174 352.765 174.584 352.595C174.994 352.415 175.349 352.155 175.649 351.815L176.249 352.505C175.899 352.925 175.459 353.245 174.929 353.465C174.409 353.685 173.834 353.795 173.204 353.795C172.394 353.795 171.674 353.625 171.044 353.285C170.424 352.935 169.939 352.455 169.589 351.845C169.239 351.235 169.064 350.545 169.064 349.775C169.064 349.005 169.229 348.315 169.559 347.705C169.899 347.095 170.359 346.62 170.939 346.28C171.529 345.94 172.189 345.77 172.919 345.77C173.649 345.77 174.304 345.94 174.884 346.28C175.464 346.62 175.919 347.095 176.249 347.705C176.579 348.305 176.744 348.995 176.744 349.775L176.729 350.105ZM172.919 346.685C172.159 346.685 171.519 346.93 170.999 347.42C170.489 347.9 170.199 348.53 170.129 349.31H175.724C175.654 348.53 175.359 347.9 174.839 347.42C174.329 346.93 173.689 346.685 172.919 346.685ZM185.962 342.59V353.72H184.942V352.16C184.622 352.69 184.197 353.095 183.667 353.375C183.147 353.655 182.557 353.795 181.897 353.795C181.157 353.795 180.487 353.625 179.887 353.285C179.287 352.945 178.817 352.47 178.477 351.86C178.137 351.25 177.967 350.555 177.967 349.775C177.967 348.995 178.137 348.3 178.477 347.69C178.817 347.08 179.287 346.61 179.887 346.28C180.487 345.94 181.157 345.77 181.897 345.77C182.537 345.77 183.112 345.905 183.622 346.175C184.142 346.435 184.567 346.82 184.897 347.33V342.59H185.962ZM181.987 352.85C182.537 352.85 183.032 352.725 183.472 352.475C183.922 352.215 184.272 351.85 184.522 351.38C184.782 350.91 184.912 350.375 184.912 349.775C184.912 349.175 184.782 348.64 184.522 348.17C184.272 347.7 183.922 347.34 183.472 347.09C183.032 346.83 182.537 346.7 181.987 346.7C181.427 346.7 180.922 346.83 180.472 347.09C180.032 347.34 179.682 347.7 179.422 348.17C179.172 348.64 179.047 349.175 179.047 349.775C179.047 350.375 179.172 350.91 179.422 351.38C179.682 351.85 180.032 352.215 180.472 352.475C180.922 352.725 181.427 352.85 181.987 352.85ZM149.426 361.22H153.701C154.811 361.22 155.791 361.445 156.641 361.895C157.491 362.335 158.151 362.955 158.621 363.755C159.091 364.545 159.326 365.45 159.326 366.47C159.326 367.49 159.091 368.4 158.621 369.2C158.151 369.99 157.491 370.61 156.641 371.06C155.791 371.5 154.811 371.72 153.701 371.72H149.426V361.22ZM153.641 370.76C154.561 370.76 155.366 370.58 156.056 370.22C156.746 369.85 157.281 369.345 157.661 368.705C158.041 368.055 158.231 367.31 158.231 366.47C158.231 365.63 158.041 364.89 157.661 364.25C157.281 363.6 156.746 363.095 156.056 362.735C155.366 362.365 154.561 362.18 153.641 362.18H150.536V370.76H153.641ZM168.313 368.105H161.713C161.773 368.925 162.088 369.59 162.658 370.1C163.228 370.6 163.948 370.85 164.818 370.85C165.308 370.85 165.758 370.765 166.168 370.595C166.578 370.415 166.933 370.155 167.233 369.815L167.833 370.505C167.483 370.925 167.043 371.245 166.513 371.465C165.993 371.685 165.418 371.795 164.788 371.795C163.978 371.795 163.258 371.625 162.628 371.285C162.008 370.935 161.523 370.455 161.173 369.845C160.823 369.235 160.648 368.545 160.648 367.775C160.648 367.005 160.813 366.315 161.143 365.705C161.483 365.095 161.943 364.62 162.523 364.28C163.113 363.94 163.773 363.77 164.503 363.77C165.233 363.77 165.888 363.94 166.468 364.28C167.048 364.62 167.503 365.095 167.833 365.705C168.163 366.305 168.328 366.995 168.328 367.775L168.313 368.105ZM164.503 364.685C163.743 364.685 163.103 364.93 162.583 365.42C162.073 365.9 161.783 366.53 161.713 367.31H167.308C167.238 366.53 166.943 365.9 166.423 365.42C165.913 364.93 165.273 364.685 164.503 364.685ZM174.411 363.77C175.151 363.77 175.821 363.94 176.421 364.28C177.021 364.61 177.491 365.08 177.831 365.69C178.171 366.3 178.341 366.995 178.341 367.775C178.341 368.565 178.171 369.265 177.831 369.875C177.491 370.485 177.021 370.96 176.421 371.3C175.831 371.63 175.161 371.795 174.411 371.795C173.771 371.795 173.191 371.665 172.671 371.405C172.161 371.135 171.741 370.745 171.411 370.235V374.63H170.346V363.83H171.366V365.39C171.686 364.87 172.106 364.47 172.626 364.19C173.156 363.91 173.751 363.77 174.411 363.77ZM174.336 370.85C174.886 370.85 175.386 370.725 175.836 370.475C176.286 370.215 176.636 369.85 176.886 369.38C177.146 368.91 177.276 368.375 177.276 367.775C177.276 367.175 177.146 366.645 176.886 366.185C176.636 365.715 176.286 365.35 175.836 365.09C175.386 364.83 174.886 364.7 174.336 364.7C173.776 364.7 173.271 364.83 172.821 365.09C172.381 365.35 172.031 365.715 171.771 366.185C171.521 366.645 171.396 367.175 171.396 367.775C171.396 368.375 171.521 368.91 171.771 369.38C172.031 369.85 172.381 370.215 172.821 370.475C173.271 370.725 173.776 370.85 174.336 370.85ZM183.587 371.795C182.827 371.795 182.142 371.625 181.532 371.285C180.922 370.935 180.442 370.455 180.092 369.845C179.742 369.235 179.567 368.545 179.567 367.775C179.567 367.005 179.742 366.315 180.092 365.705C180.442 365.095 180.922 364.62 181.532 364.28C182.142 363.94 182.827 363.77 183.587 363.77C184.347 363.77 185.032 363.94 185.642 364.28C186.252 364.62 186.727 365.095 187.067 365.705C187.417 366.315 187.592 367.005 187.592 367.775C187.592 368.545 187.417 369.235 187.067 369.845C186.727 370.455 186.252 370.935 185.642 371.285C185.032 371.625 184.347 371.795 183.587 371.795ZM183.587 370.85C184.147 370.85 184.647 370.725 185.087 370.475C185.537 370.215 185.887 369.85 186.137 369.38C186.387 368.91 186.512 368.375 186.512 367.775C186.512 367.175 186.387 366.64 186.137 366.17C185.887 365.7 185.537 365.34 185.087 365.09C184.647 364.83 184.147 364.7 183.587 364.7C183.027 364.7 182.522 364.83 182.072 365.09C181.632 365.34 181.282 365.7 181.022 366.17C180.772 366.64 180.647 367.175 180.647 367.775C180.647 368.375 180.772 368.91 181.022 369.38C181.282 369.85 181.632 370.215 182.072 370.475C182.522 370.725 183.027 370.85 183.587 370.85ZM191.731 371.795C191.091 371.795 190.476 371.705 189.886 371.525C189.306 371.335 188.851 371.1 188.521 370.82L189.001 369.98C189.331 370.24 189.746 370.455 190.246 370.625C190.746 370.785 191.266 370.865 191.806 370.865C192.526 370.865 193.056 370.755 193.396 370.535C193.746 370.305 193.921 369.985 193.921 369.575C193.921 369.285 193.826 369.06 193.636 368.9C193.446 368.73 193.206 368.605 192.916 368.525C192.626 368.435 192.241 368.35 191.761 368.27C191.121 368.15 190.606 368.03 190.216 367.91C189.826 367.78 189.491 367.565 189.211 367.265C188.941 366.965 188.806 366.55 188.806 366.02C188.806 365.36 189.081 364.82 189.631 364.4C190.181 363.98 190.946 363.77 191.926 363.77C192.436 363.77 192.946 363.84 193.456 363.98C193.966 364.11 194.386 364.285 194.716 364.505L194.251 365.36C193.601 364.91 192.826 364.685 191.926 364.685C191.246 364.685 190.731 364.805 190.381 365.045C190.041 365.285 189.871 365.6 189.871 365.99C189.871 366.29 189.966 366.53 190.156 366.71C190.356 366.89 190.601 367.025 190.891 367.115C191.181 367.195 191.581 367.28 192.091 367.37C192.721 367.49 193.226 367.61 193.606 367.73C193.986 367.85 194.311 368.055 194.581 368.345C194.851 368.635 194.986 369.035 194.986 369.545C194.986 370.235 194.696 370.785 194.116 371.195C193.546 371.595 192.751 371.795 191.731 371.795ZM196.805 363.83H197.87V371.72H196.805V363.83ZM197.345 362.105C197.125 362.105 196.94 362.03 196.79 361.88C196.64 361.73 196.565 361.55 196.565 361.34C196.565 361.14 196.64 360.965 196.79 360.815C196.94 360.665 197.125 360.59 197.345 360.59C197.565 360.59 197.75 360.665 197.9 360.815C198.05 360.955 198.125 361.125 198.125 361.325C198.125 361.545 198.05 361.73 197.9 361.88C197.75 362.03 197.565 362.105 197.345 362.105ZM204.839 371.24C204.639 371.42 204.389 371.56 204.089 371.66C203.799 371.75 203.494 371.795 203.174 371.795C202.434 371.795 201.864 371.595 201.464 371.195C201.064 370.795 200.864 370.23 200.864 369.5V364.73H199.454V363.83H200.864V362.105H201.929V363.83H204.329V364.73H201.929V369.44C201.929 369.91 202.044 370.27 202.274 370.52C202.514 370.76 202.854 370.88 203.294 370.88C203.514 370.88 203.724 370.845 203.924 370.775C204.134 370.705 204.314 370.605 204.464 370.475L204.839 371.24ZM208.742 371.795C208.102 371.795 207.487 371.705 206.897 371.525C206.317 371.335 205.862 371.1 205.532 370.82L206.012 369.98C206.342 370.24 206.757 370.455 207.257 370.625C207.757 370.785 208.277 370.865 208.817 370.865C209.537 370.865 210.067 370.755 210.407 370.535C210.757 370.305 210.932 369.985 210.932 369.575C210.932 369.285 210.837 369.06 210.647 368.9C210.457 368.73 210.217 368.605 209.927 368.525C209.637 368.435 209.252 368.35 208.772 368.27C208.132 368.15 207.617 368.03 207.227 367.91C206.837 367.78 206.502 367.565 206.222 367.265C205.952 366.965 205.817 366.55 205.817 366.02C205.817 365.36 206.092 364.82 206.642 364.4C207.192 363.98 207.957 363.77 208.937 363.77C209.447 363.77 209.957 363.84 210.467 363.98C210.977 364.11 211.397 364.285 211.727 364.505L211.262 365.36C210.612 364.91 209.837 364.685 208.937 364.685C208.257 364.685 207.742 364.805 207.392 365.045C207.052 365.285 206.882 365.6 206.882 365.99C206.882 366.29 206.977 366.53 207.167 366.71C207.367 366.89 207.612 367.025 207.902 367.115C208.192 367.195 208.592 367.28 209.102 367.37C209.732 367.49 210.237 367.61 210.617 367.73C210.997 367.85 211.322 368.055 211.592 368.345C211.862 368.635 211.997 369.035 211.997 369.545C211.997 370.235 211.707 370.785 211.127 371.195C210.557 371.595 209.762 371.795 208.742 371.795Z" fill="black"/>
<path d="M221.211 244.5H225.486C226.596 244.5 227.576 244.725 228.426 245.175C229.276 245.615 229.936 246.235 230.406 247.035C230.876 247.825 231.111 248.73 231.111 249.75C231.111 250.77 230.876 251.68 230.406 252.48C229.936 253.27 229.276 253.89 228.426 254.34C227.576 254.78 226.596 255 225.486 255H221.211V244.5ZM225.426 254.04C226.346 254.04 227.151 253.86 227.841 253.5C228.531 253.13 229.066 252.625 229.446 251.985C229.826 251.335 230.016 250.59 230.016 249.75C230.016 248.91 229.826 248.17 229.446 247.53C229.066 246.88 228.531 246.375 227.841 246.015C227.151 245.645 226.346 245.46 225.426 245.46H222.321V254.04H225.426ZM240.099 251.385H233.499C233.559 252.205 233.874 252.87 234.444 253.38C235.014 253.88 235.734 254.13 236.604 254.13C237.094 254.13 237.544 254.045 237.954 253.875C238.364 253.695 238.719 253.435 239.019 253.095L239.619 253.785C239.269 254.205 238.829 254.525 238.299 254.745C237.779 254.965 237.204 255.075 236.574 255.075C235.764 255.075 235.044 254.905 234.414 254.565C233.794 254.215 233.309 253.735 232.959 253.125C232.609 252.515 232.434 251.825 232.434 251.055C232.434 250.285 232.599 249.595 232.929 248.985C233.269 248.375 233.729 247.9 234.309 247.56C234.899 247.22 235.559 247.05 236.289 247.05C237.019 247.05 237.674 247.22 238.254 247.56C238.834 247.9 239.289 248.375 239.619 248.985C239.949 249.585 240.114 250.275 240.114 251.055L240.099 251.385ZM236.289 247.965C235.529 247.965 234.889 248.21 234.369 248.7C233.859 249.18 233.569 249.81 233.499 250.59H239.094C239.024 249.81 238.729 249.18 238.209 248.7C237.699 248.21 237.059 247.965 236.289 247.965ZM246.196 247.05C246.936 247.05 247.606 247.22 248.206 247.56C248.806 247.89 249.276 248.36 249.616 248.97C249.956 249.58 250.126 250.275 250.126 251.055C250.126 251.835 249.956 252.53 249.616 253.14C249.276 253.75 248.806 254.225 248.206 254.565C247.606 254.905 246.936 255.075 246.196 255.075C245.536 255.075 244.941 254.935 244.411 254.655C243.891 254.375 243.471 253.97 243.151 253.44V255H242.131V243.87H243.196V248.61C243.526 248.1 243.946 247.715 244.456 247.455C244.976 247.185 245.556 247.05 246.196 247.05ZM246.121 254.13C246.671 254.13 247.171 254.005 247.621 253.755C248.071 253.495 248.421 253.13 248.671 252.66C248.931 252.19 249.061 251.655 249.061 251.055C249.061 250.455 248.931 249.92 248.671 249.45C248.421 248.98 248.071 248.62 247.621 248.37C247.171 248.11 246.671 247.98 246.121 247.98C245.561 247.98 245.056 248.11 244.606 248.37C244.166 248.62 243.816 248.98 243.556 249.45C243.306 249.92 243.181 250.455 243.181 251.055C243.181 251.655 243.306 252.19 243.556 252.66C243.816 253.13 244.166 253.495 244.606 253.755C245.056 254.005 245.561 254.13 246.121 254.13ZM256.302 254.52C256.102 254.7 255.852 254.84 255.552 254.94C255.262 255.03 254.957 255.075 254.637 255.075C253.897 255.075 253.327 254.875 252.927 254.475C252.527 254.075 252.327 253.51 252.327 252.78V248.01H250.917V247.11H252.327V245.385H253.392V247.11H255.792V248.01H253.392V252.72C253.392 253.19 253.507 253.55 253.737 253.8C253.977 254.04 254.317 254.16 254.757 254.16C254.977 254.16 255.187 254.125 255.387 254.055C255.597 253.985 255.777 253.885 255.927 253.755L256.302 254.52ZM232.116 262.5V273H231.051V264.6L226.926 271.665H226.401L222.276 264.645V273H221.211V262.5H222.126L226.686 270.285L231.201 262.5H232.116ZM242.272 265.11V273H241.252V271.56C240.972 272.04 240.587 272.415 240.097 272.685C239.607 272.945 239.047 273.075 238.417 273.075C237.387 273.075 236.572 272.79 235.972 272.22C235.382 271.64 235.087 270.795 235.087 269.685V265.11H236.152V269.58C236.152 270.41 236.357 271.04 236.767 271.47C237.177 271.9 237.762 272.115 238.522 272.115C239.352 272.115 240.007 271.865 240.487 271.365C240.967 270.855 241.207 270.15 241.207 269.25V265.11H242.272ZM249.26 272.52C249.06 272.7 248.81 272.84 248.51 272.94C248.22 273.03 247.915 273.075 247.595 273.075C246.855 273.075 246.285 272.875 245.885 272.475C245.485 272.075 245.285 271.51 245.285 270.78V266.01H243.875V265.11H245.285V263.385H246.35V265.11H248.75V266.01H246.35V270.72C246.35 271.19 246.465 271.55 246.695 271.8C246.935 272.04 247.275 272.16 247.715 272.16C247.935 272.16 248.145 272.125 248.345 272.055C248.555 271.985 248.735 271.885 248.885 271.755L249.26 272.52ZM258.159 265.11V273H257.139V271.56C256.859 272.04 256.474 272.415 255.984 272.685C255.494 272.945 254.934 273.075 254.304 273.075C253.274 273.075 252.459 272.79 251.859 272.22C251.269 271.64 250.974 270.795 250.974 269.685V265.11H252.039V269.58C252.039 270.41 252.244 271.04 252.654 271.47C253.064 271.9 253.649 272.115 254.409 272.115C255.239 272.115 255.894 271.865 256.374 271.365C256.854 270.855 257.094 270.15 257.094 269.25V265.11H258.159ZM263.751 265.05C264.781 265.05 265.571 265.31 266.121 265.83C266.671 266.34 266.946 267.1 266.946 268.11V273H265.926V271.77C265.686 272.18 265.331 272.5 264.861 272.73C264.401 272.96 263.851 273.075 263.211 273.075C262.331 273.075 261.631 272.865 261.111 272.445C260.591 272.025 260.331 271.47 260.331 270.78C260.331 270.11 260.571 269.57 261.051 269.16C261.541 268.75 262.316 268.545 263.376 268.545H265.881V268.065C265.881 267.385 265.691 266.87 265.311 266.52C264.931 266.16 264.376 265.98 263.646 265.98C263.146 265.98 262.666 266.065 262.206 266.235C261.746 266.395 261.351 266.62 261.021 266.91L260.541 266.115C260.941 265.775 261.421 265.515 261.981 265.335C262.541 265.145 263.131 265.05 263.751 265.05ZM263.376 272.235C263.976 272.235 264.491 272.1 264.921 271.83C265.351 271.55 265.671 271.15 265.881 270.63V269.34H263.406C262.056 269.34 261.381 269.81 261.381 270.75C261.381 271.21 261.556 271.575 261.906 271.845C262.256 272.105 262.746 272.235 263.376 272.235ZM269.689 261.87H270.754V273H269.689V261.87ZM278.678 263.46V267.585H284.108V268.545H278.678V273H277.568V262.5H284.768V263.46H278.678ZM293.532 265.11V273H292.512V271.56C292.232 272.04 291.847 272.415 291.357 272.685C290.867 272.945 290.307 273.075 289.677 273.075C288.647 273.075 287.832 272.79 287.232 272.22C286.642 271.64 286.347 270.795 286.347 269.685V265.11H287.412V269.58C287.412 270.41 287.617 271.04 288.027 271.47C288.437 271.9 289.022 272.115 289.782 272.115C290.612 272.115 291.267 271.865 291.747 271.365C292.227 270.855 292.467 270.15 292.467 269.25V265.11H293.532ZM300.384 265.05C301.374 265.05 302.159 265.34 302.739 265.92C303.329 266.49 303.624 267.325 303.624 268.425V273H302.559V268.53C302.559 267.71 302.354 267.085 301.944 266.655C301.534 266.225 300.949 266.01 300.189 266.01C299.339 266.01 298.664 266.265 298.164 266.775C297.674 267.275 297.429 267.97 297.429 268.86V273H296.364V265.11H297.384V266.565C297.674 266.085 298.074 265.715 298.584 265.455C299.104 265.185 299.704 265.05 300.384 265.05ZM313.595 261.87V273H312.575V271.44C312.255 271.97 311.83 272.375 311.3 272.655C310.78 272.935 310.19 273.075 309.53 273.075C308.79 273.075 308.12 272.905 307.52 272.565C306.92 272.225 306.45 271.75 306.11 271.14C305.77 270.53 305.6 269.835 305.6 269.055C305.6 268.275 305.77 267.58 306.11 266.97C306.45 266.36 306.92 265.89 307.52 265.56C308.12 265.22 308.79 265.05 309.53 265.05C310.17 265.05 310.745 265.185 311.255 265.455C311.775 265.715 312.2 266.1 312.53 266.61V261.87H313.595ZM309.62 272.13C310.17 272.13 310.665 272.005 311.105 271.755C311.555 271.495 311.905 271.13 312.155 270.66C312.415 270.19 312.545 269.655 312.545 269.055C312.545 268.455 312.415 267.92 312.155 267.45C311.905 266.98 311.555 266.62 311.105 266.37C310.665 266.11 310.17 265.98 309.62 265.98C309.06 265.98 308.555 266.11 308.105 266.37C307.665 266.62 307.315 266.98 307.055 267.45C306.805 267.92 306.68 268.455 306.68 269.055C306.68 269.655 306.805 270.19 307.055 270.66C307.315 271.13 307.665 271.495 308.105 271.755C308.555 272.005 309.06 272.13 309.62 272.13ZM318.526 273.075C317.886 273.075 317.271 272.985 316.681 272.805C316.101 272.615 315.646 272.38 315.316 272.1L315.796 271.26C316.126 271.52 316.541 271.735 317.041 271.905C317.541 272.065 318.061 272.145 318.601 272.145C319.321 272.145 319.851 272.035 320.191 271.815C320.541 271.585 320.716 271.265 320.716 270.855C320.716 270.565 320.621 270.34 320.431 270.18C320.241 270.01 320.001 269.885 319.711 269.805C319.421 269.715 319.036 269.63 318.556 269.55C317.916 269.43 317.401 269.31 317.011 269.19C316.621 269.06 316.286 268.845 316.006 268.545C315.736 268.245 315.601 267.83 315.601 267.3C315.601 266.64 315.876 266.1 316.426 265.68C316.976 265.26 317.741 265.05 318.721 265.05C319.231 265.05 319.741 265.12 320.251 265.26C320.761 265.39 321.181 265.565 321.511 265.785L321.046 266.64C320.396 266.19 319.621 265.965 318.721 265.965C318.041 265.965 317.526 266.085 317.176 266.325C316.836 266.565 316.666 266.88 316.666 267.27C316.666 267.57 316.761 267.81 316.951 267.99C317.151 268.17 317.396 268.305 317.686 268.395C317.976 268.475 318.376 268.56 318.886 268.65C319.516 268.77 320.021 268.89 320.401 269.01C320.781 269.13 321.106 269.335 321.376 269.625C321.646 269.915 321.781 270.315 321.781 270.825C321.781 271.515 321.491 272.065 320.911 272.475C320.341 272.875 319.546 273.075 318.526 273.075Z" fill="black"/>
<path d="M817.636 184.04V185H810.211V174.5H817.411V175.46H811.321V179.195H816.751V180.14H811.321V184.04H817.636ZM826.953 177.11V187.91H825.888V183.515C825.558 184.025 825.133 184.415 824.613 184.685C824.103 184.945 823.528 185.075 822.888 185.075C822.138 185.075 821.463 184.91 820.863 184.58C820.273 184.24 819.808 183.765 819.468 183.155C819.128 182.545 818.958 181.845 818.958 181.055C818.958 180.275 819.128 179.58 819.468 178.97C819.808 178.36 820.278 177.89 820.878 177.56C821.478 177.22 822.148 177.05 822.888 177.05C823.548 177.05 824.138 177.19 824.658 177.47C825.188 177.75 825.613 178.15 825.933 178.67V177.11H826.953ZM822.978 184.13C823.528 184.13 824.023 184.005 824.463 183.755C824.913 183.495 825.263 183.13 825.513 182.66C825.773 182.19 825.903 181.655 825.903 181.055C825.903 180.455 825.773 179.925 825.513 179.465C825.263 178.995 824.913 178.63 824.463 178.37C824.023 178.11 823.528 177.98 822.978 177.98C822.418 177.98 821.913 178.11 821.463 178.37C821.023 178.63 820.673 178.995 820.413 179.465C820.163 179.925 820.038 180.455 820.038 181.055C820.038 181.655 820.163 182.19 820.413 182.66C820.673 183.13 821.023 183.495 821.463 183.755C821.913 184.005 822.418 184.13 822.978 184.13ZM836.879 177.11V185H835.859V183.56C835.579 184.04 835.194 184.415 834.704 184.685C834.214 184.945 833.654 185.075 833.024 185.075C831.994 185.075 831.179 184.79 830.579 184.22C829.989 183.64 829.694 182.795 829.694 181.685V177.11H830.759V181.58C830.759 182.41 830.964 183.04 831.374 183.47C831.784 183.9 832.369 184.115 833.129 184.115C833.959 184.115 834.614 183.865 835.094 183.365C835.574 182.855 835.814 182.15 835.814 181.25V177.11H836.879ZM839.712 177.11H840.777V185H839.712V177.11ZM840.252 175.385C840.032 175.385 839.847 175.31 839.697 175.16C839.547 175.01 839.472 174.83 839.472 174.62C839.472 174.42 839.547 174.245 839.697 174.095C839.847 173.945 840.032 173.87 840.252 173.87C840.472 173.87 840.657 173.945 840.807 174.095C840.957 174.235 841.032 174.405 841.032 174.605C841.032 174.825 840.957 175.01 840.807 175.16C840.657 175.31 840.472 175.385 840.252 175.385ZM847.745 184.52C847.545 184.7 847.295 184.84 846.995 184.94C846.705 185.03 846.4 185.075 846.08 185.075C845.34 185.075 844.77 184.875 844.37 184.475C843.97 184.075 843.77 183.51 843.77 182.78V178.01H842.36V177.11H843.77V175.385H844.835V177.11H847.235V178.01H844.835V182.72C844.835 183.19 844.95 183.55 845.18 183.8C845.42 184.04 845.76 184.16 846.2 184.16C846.42 184.16 846.63 184.125 846.83 184.055C847.04 183.985 847.22 183.885 847.37 183.755L847.745 184.52ZM856.017 177.11L852.072 185.945C851.752 186.685 851.382 187.21 850.962 187.52C850.542 187.83 850.037 187.985 849.447 187.985C849.067 187.985 848.712 187.925 848.382 187.805C848.052 187.685 847.767 187.505 847.527 187.265L848.022 186.47C848.422 186.87 848.902 187.07 849.462 187.07C849.822 187.07 850.127 186.97 850.377 186.77C850.637 186.57 850.877 186.23 851.097 185.75L851.442 184.985L847.917 177.11H849.027L851.997 183.815L854.967 177.11H856.017ZM821.116 192.5V203H820.051V194.6L815.926 201.665H815.401L811.276 194.645V203H810.211V192.5H811.126L815.686 200.285L820.201 192.5H821.116ZM826.922 195.05C827.952 195.05 828.742 195.31 829.292 195.83C829.842 196.34 830.117 197.1 830.117 198.11V203H829.097V201.77C828.857 202.18 828.502 202.5 828.032 202.73C827.572 202.96 827.022 203.075 826.382 203.075C825.502 203.075 824.802 202.865 824.282 202.445C823.762 202.025 823.502 201.47 823.502 200.78C823.502 200.11 823.742 199.57 824.222 199.16C824.712 198.75 825.487 198.545 826.547 198.545H829.052V198.065C829.052 197.385 828.862 196.87 828.482 196.52C828.102 196.16 827.547 195.98 826.817 195.98C826.317 195.98 825.837 196.065 825.377 196.235C824.917 196.395 824.522 196.62 824.192 196.91L823.712 196.115C824.112 195.775 824.592 195.515 825.152 195.335C825.712 195.145 826.302 195.05 826.922 195.05ZM826.547 202.235C827.147 202.235 827.662 202.1 828.092 201.83C828.522 201.55 828.842 201.15 829.052 200.63V199.34H826.577C825.227 199.34 824.552 199.81 824.552 200.75C824.552 201.21 824.727 201.575 825.077 201.845C825.427 202.105 825.917 202.235 826.547 202.235ZM833.88 196.655C834.13 196.125 834.5 195.725 834.99 195.455C835.49 195.185 836.105 195.05 836.835 195.05V196.085L836.58 196.07C835.75 196.07 835.1 196.325 834.63 196.835C834.16 197.345 833.925 198.06 833.925 198.98V203H832.86V195.11H833.88V196.655ZM841.538 199.04L839.678 200.75V203H838.613V191.87H839.678V199.415L844.388 195.11H845.708L842.333 198.335L846.023 203H844.718L841.538 199.04ZM854.02 199.385H847.42C847.48 200.205 847.795 200.87 848.365 201.38C848.935 201.88 849.655 202.13 850.525 202.13C851.015 202.13 851.465 202.045 851.875 201.875C852.285 201.695 852.64 201.435 852.94 201.095L853.54 201.785C853.19 202.205 852.75 202.525 852.22 202.745C851.7 202.965 851.125 203.075 850.495 203.075C849.685 203.075 848.965 202.905 848.335 202.565C847.715 202.215 847.23 201.735 846.88 201.125C846.53 200.515 846.355 199.825 846.355 199.055C846.355 198.285 846.52 197.595 846.85 196.985C847.19 196.375 847.65 195.9 848.23 195.56C848.82 195.22 849.48 195.05 850.21 195.05C850.94 195.05 851.595 195.22 852.175 195.56C852.755 195.9 853.21 196.375 853.54 196.985C853.87 197.585 854.035 198.275 854.035 199.055L854.02 199.385ZM850.21 195.965C849.45 195.965 848.81 196.21 848.29 196.7C847.78 197.18 847.49 197.81 847.42 198.59H853.015C852.945 197.81 852.65 197.18 852.13 196.7C851.62 196.21 850.98 195.965 850.21 195.965ZM860.207 202.52C860.007 202.7 859.757 202.84 859.457 202.94C859.167 203.03 858.862 203.075 858.542 203.075C857.802 203.075 857.232 202.875 856.832 202.475C856.432 202.075 856.232 201.51 856.232 200.78V196.01H854.822V195.11H856.232V193.385H857.297V195.11H859.697V196.01H857.297V200.72C857.297 201.19 857.412 201.55 857.642 201.8C857.882 202.04 858.222 202.16 858.662 202.16C858.882 202.16 859.092 202.125 859.292 202.055C859.502 201.985 859.682 201.885 859.832 201.755L860.207 202.52ZM864.111 203.075C863.471 203.075 862.856 202.985 862.266 202.805C861.686 202.615 861.231 202.38 860.901 202.1L861.381 201.26C861.711 201.52 862.126 201.735 862.626 201.905C863.126 202.065 863.646 202.145 864.186 202.145C864.906 202.145 865.436 202.035 865.776 201.815C866.126 201.585 866.301 201.265 866.301 200.855C866.301 200.565 866.206 200.34 866.016 200.18C865.826 200.01 865.586 199.885 865.296 199.805C865.006 199.715 864.621 199.63 864.141 199.55C863.501 199.43 862.986 199.31 862.596 199.19C862.206 199.06 861.871 198.845 861.591 198.545C861.321 198.245 861.186 197.83 861.186 197.3C861.186 196.64 861.461 196.1 862.011 195.68C862.561 195.26 863.326 195.05 864.306 195.05C864.816 195.05 865.326 195.12 865.836 195.26C866.346 195.39 866.766 195.565 867.096 195.785L866.631 196.64C865.981 196.19 865.206 195.965 864.306 195.965C863.626 195.965 863.111 196.085 862.761 196.325C862.421 196.565 862.251 196.88 862.251 197.27C862.251 197.57 862.346 197.81 862.536 197.99C862.736 198.17 862.981 198.305 863.271 198.395C863.561 198.475 863.961 198.56 864.471 198.65C865.101 198.77 865.606 198.89 865.986 199.01C866.366 199.13 866.691 199.335 866.961 199.625C867.231 199.915 867.366 200.315 867.366 200.825C867.366 201.515 867.076 202.065 866.496 202.475C865.926 202.875 865.131 203.075 864.111 203.075Z" fill="black"/>
<path d="M655.18 216.18C654.47 216.18 653.815 216.05 653.215 215.79C652.625 215.52 652.14 215.14 651.76 214.65L653.11 213.03C653.68 213.8 654.33 214.185 655.06 214.185C656.05 214.185 656.545 213.605 656.545 212.445V207.45H652.855V205.5H658.96V212.31C658.96 213.6 658.64 214.57 658 215.22C657.36 215.86 656.42 216.18 655.18 216.18ZM661.045 207.93H663.385V216H661.045V207.93ZM662.215 206.805C661.785 206.805 661.435 206.68 661.165 206.43C660.895 206.18 660.76 205.87 660.76 205.5C660.76 205.13 660.895 204.82 661.165 204.57C661.435 204.32 661.785 204.195 662.215 204.195C662.645 204.195 662.995 204.315 663.265 204.555C663.535 204.795 663.67 205.095 663.67 205.455C663.67 205.845 663.535 206.17 663.265 206.43C662.995 206.68 662.645 206.805 662.215 206.805ZM667.642 208.995C667.922 208.605 668.297 208.31 668.767 208.11C669.247 207.91 669.797 207.81 670.417 207.81V209.97C670.157 209.95 669.982 209.94 669.892 209.94C669.222 209.94 668.697 210.13 668.317 210.51C667.937 210.88 667.747 211.44 667.747 212.19V216H665.407V207.93H667.642V208.995ZM674.869 207.81C676.119 207.81 677.079 208.11 677.749 208.71C678.419 209.3 678.754 210.195 678.754 211.395V216H676.564V214.995C676.124 215.745 675.304 216.12 674.104 216.12C673.484 216.12 672.944 216.015 672.484 215.805C672.034 215.595 671.689 215.305 671.449 214.935C671.209 214.565 671.089 214.145 671.089 213.675C671.089 212.925 671.369 212.335 671.929 211.905C672.499 211.475 673.374 211.26 674.554 211.26H676.414C676.414 210.75 676.259 210.36 675.949 210.09C675.639 209.81 675.174 209.67 674.554 209.67C674.124 209.67 673.699 209.74 673.279 209.88C672.869 210.01 672.519 210.19 672.229 210.42L671.389 208.785C671.829 208.475 672.354 208.235 672.964 208.065C673.584 207.895 674.219 207.81 674.869 207.81ZM674.689 214.545C675.089 214.545 675.444 214.455 675.754 214.275C676.064 214.085 676.284 213.81 676.414 213.45V212.625H674.809C673.849 212.625 673.369 212.94 673.369 213.57C673.369 213.87 673.484 214.11 673.714 214.29C673.954 214.46 674.279 214.545 674.689 214.545ZM683.977 207.81C685.227 207.81 686.187 208.11 686.857 208.71C687.527 209.3 687.862 210.195 687.862 211.395V216H685.672V214.995C685.232 215.745 684.412 216.12 683.212 216.12C682.592 216.12 682.052 216.015 681.592 215.805C681.142 215.595 680.797 215.305 680.557 214.935C680.317 214.565 680.197 214.145 680.197 213.675C680.197 212.925 680.477 212.335 681.037 211.905C681.607 211.475 682.482 211.26 683.662 211.26H685.522C685.522 210.75 685.367 210.36 685.057 210.09C684.747 209.81 684.282 209.67 683.662 209.67C683.232 209.67 682.807 209.74 682.387 209.88C681.977 210.01 681.627 210.19 681.337 210.42L680.497 208.785C680.937 208.475 681.462 208.235 682.072 208.065C682.692 207.895 683.327 207.81 683.977 207.81ZM683.797 214.545C684.197 214.545 684.552 214.455 684.862 214.275C685.172 214.085 685.392 213.81 685.522 213.45V212.625H683.917C682.957 212.625 682.477 212.94 682.477 213.57C682.477 213.87 682.592 214.11 682.822 214.29C683.062 214.46 683.387 214.545 683.797 214.545ZM692.395 208.11H694.465V209.91H692.455V216H690.115V209.91H688.87V208.11H690.115V207.75C690.115 206.83 690.385 206.1 690.925 205.56C691.475 205.02 692.245 204.75 693.235 204.75C693.585 204.75 693.915 204.79 694.225 204.87C694.545 204.94 694.81 205.045 695.02 205.185L694.405 206.88C694.135 206.69 693.82 206.595 693.46 206.595C692.75 206.595 692.395 206.985 692.395 207.765V208.11ZM658.33 234.18C657.24 234.18 656.255 233.945 655.375 233.475C654.505 233.005 653.82 232.36 653.32 231.54C652.83 230.71 652.585 229.78 652.585 228.75C652.585 227.72 652.83 226.795 653.32 225.975C653.82 225.145 654.505 224.495 655.375 224.025C656.255 223.555 657.24 223.32 658.33 223.32C659.42 223.32 660.4 223.555 661.27 224.025C662.14 224.495 662.825 225.145 663.325 225.975C663.825 226.795 664.075 227.72 664.075 228.75C664.075 229.78 663.825 230.71 663.325 231.54C662.825 232.36 662.14 233.005 661.27 233.475C660.4 233.945 659.42 234.18 658.33 234.18ZM658.33 232.11C658.95 232.11 659.51 231.97 660.01 231.69C660.51 231.4 660.9 231 661.18 230.49C661.47 229.98 661.615 229.4 661.615 228.75C661.615 228.1 661.47 227.52 661.18 227.01C660.9 226.5 660.51 226.105 660.01 225.825C659.51 225.535 658.95 225.39 658.33 225.39C657.71 225.39 657.15 225.535 656.65 225.825C656.15 226.105 655.755 226.5 655.465 227.01C655.185 227.52 655.045 228.1 655.045 228.75C655.045 229.4 655.185 229.98 655.465 230.49C655.755 231 656.15 231.4 656.65 231.69C657.15 231.97 657.71 232.11 658.33 232.11ZM670.356 225.81C671.106 225.81 671.786 225.985 672.396 226.335C673.016 226.675 673.501 227.16 673.851 227.79C674.201 228.41 674.376 229.135 674.376 229.965C674.376 230.795 674.201 231.525 673.851 232.155C673.501 232.775 673.016 233.26 672.396 233.61C671.786 233.95 671.106 234.12 670.356 234.12C669.326 234.12 668.516 233.795 667.926 233.145V236.91H665.586V225.93H667.821V226.86C668.401 226.16 669.246 225.81 670.356 225.81ZM669.951 232.2C670.551 232.2 671.041 232 671.421 231.6C671.811 231.19 672.006 230.645 672.006 229.965C672.006 229.285 671.811 228.745 671.421 228.345C671.041 227.935 670.551 227.73 669.951 227.73C669.351 227.73 668.856 227.935 668.466 228.345C668.086 228.745 667.896 229.285 667.896 229.965C667.896 230.645 668.086 231.19 668.466 231.6C668.856 232 669.351 232.2 669.951 232.2ZM680.563 225.81C681.313 225.81 681.993 225.985 682.603 226.335C683.223 226.675 683.708 227.16 684.058 227.79C684.408 228.41 684.583 229.135 684.583 229.965C684.583 230.795 684.408 231.525 684.058 232.155C683.708 232.775 683.223 233.26 682.603 233.61C681.993 233.95 681.313 234.12 680.563 234.12C679.533 234.12 678.723 233.795 678.133 233.145V236.91H675.793V225.93H678.028V226.86C678.608 226.16 679.453 225.81 680.563 225.81ZM680.158 232.2C680.758 232.2 681.248 232 681.628 231.6C682.018 231.19 682.213 230.645 682.213 229.965C682.213 229.285 682.018 228.745 681.628 228.345C681.248 227.935 680.758 227.73 680.158 227.73C679.558 227.73 679.063 227.935 678.673 228.345C678.293 228.745 678.103 229.285 678.103 229.965C678.103 230.645 678.293 231.19 678.673 231.6C679.063 232 679.558 232.2 680.158 232.2ZM689.839 234.12C688.989 234.12 688.224 233.945 687.544 233.595C686.874 233.235 686.349 232.74 685.969 232.11C685.589 231.48 685.399 230.765 685.399 229.965C685.399 229.165 685.589 228.45 685.969 227.82C686.349 227.19 686.874 226.7 687.544 226.35C688.224 225.99 688.989 225.81 689.839 225.81C690.689 225.81 691.449 225.99 692.119 226.35C692.789 226.7 693.314 227.19 693.694 227.82C694.074 228.45 694.264 229.165 694.264 229.965C694.264 230.765 694.074 231.48 693.694 232.11C693.314 232.74 692.789 233.235 692.119 233.595C691.449 233.945 690.689 234.12 689.839 234.12ZM689.839 232.2C690.439 232.2 690.929 232 691.309 231.6C691.699 231.19 691.894 230.645 691.894 229.965C691.894 229.285 691.699 228.745 691.309 228.345C690.929 227.935 690.439 227.73 689.839 227.73C689.239 227.73 688.744 227.935 688.354 228.345C687.964 228.745 687.769 229.285 687.769 229.965C687.769 230.645 687.964 231.19 688.354 231.6C688.744 232 689.239 232.2 689.839 232.2ZM697.913 226.995C698.193 226.605 698.568 226.31 699.038 226.11C699.518 225.91 700.068 225.81 700.688 225.81V227.97C700.428 227.95 700.253 227.94 700.163 227.94C699.493 227.94 698.968 228.13 698.588 228.51C698.208 228.88 698.018 229.44 698.018 230.19V234H695.678V225.93H697.913V226.995ZM707.413 233.61C707.183 233.78 706.898 233.91 706.558 234C706.228 234.08 705.878 234.12 705.508 234.12C704.548 234.12 703.803 233.875 703.273 233.385C702.753 232.895 702.493 232.175 702.493 231.225V227.91H701.248V226.11H702.493V224.145H704.833V226.11H706.843V227.91H704.833V231.195C704.833 231.535 704.918 231.8 705.088 231.99C705.268 232.17 705.518 232.26 705.838 232.26C706.208 232.26 706.523 232.16 706.783 231.96L707.413 233.61ZM716.706 225.93V234H714.486V233.04C714.176 233.39 713.806 233.66 713.376 233.85C712.946 234.03 712.481 234.12 711.981 234.12C710.921 234.12 710.081 233.815 709.461 233.205C708.841 232.595 708.531 231.69 708.531 230.49V225.93H710.871V230.145C710.871 231.445 711.416 232.095 712.506 232.095C713.066 232.095 713.516 231.915 713.856 231.555C714.196 231.185 714.366 230.64 714.366 229.92V225.93H716.706ZM723.629 225.81C724.629 225.81 725.434 226.11 726.044 226.71C726.664 227.31 726.974 228.2 726.974 229.38V234H724.634V229.74C724.634 229.1 724.494 228.625 724.214 228.315C723.934 227.995 723.529 227.835 722.999 227.835C722.409 227.835 721.939 228.02 721.589 228.39C721.239 228.75 721.064 229.29 721.064 230.01V234H718.724V225.93H720.959V226.875C721.269 226.535 721.654 226.275 722.114 226.095C722.574 225.905 723.079 225.81 723.629 225.81ZM728.945 225.93H731.285V234H728.945V225.93ZM730.115 224.805C729.685 224.805 729.335 224.68 729.065 224.43C728.795 224.18 728.66 223.87 728.66 223.5C728.66 223.13 728.795 222.82 729.065 222.57C729.335 222.32 729.685 222.195 730.115 222.195C730.545 222.195 730.895 222.315 731.165 222.555C731.435 222.795 731.57 223.095 731.57 223.455C731.57 223.845 731.435 224.17 731.165 224.43C730.895 224.68 730.545 224.805 730.115 224.805ZM738.512 233.61C738.282 233.78 737.997 233.91 737.657 234C737.327 234.08 736.977 234.12 736.607 234.12C735.647 234.12 734.902 233.875 734.372 233.385C733.852 232.895 733.592 232.175 733.592 231.225V227.91H732.347V226.11H733.592V224.145H735.932V226.11H737.942V227.91H735.932V231.195C735.932 231.535 736.017 231.8 736.187 231.99C736.367 232.17 736.617 232.26 736.937 232.26C737.307 232.26 737.622 232.16 737.882 231.96L738.512 233.61ZM739.676 225.93H742.016V234H739.676V225.93ZM740.846 224.805C740.416 224.805 740.066 224.68 739.796 224.43C739.526 224.18 739.391 223.87 739.391 223.5C739.391 223.13 739.526 222.82 739.796 222.57C740.066 222.32 740.416 222.195 740.846 222.195C741.276 222.195 741.626 222.315 741.896 222.555C742.166 222.795 742.301 223.095 742.301 223.455C742.301 223.845 742.166 224.17 741.896 224.43C741.626 224.68 741.276 224.805 740.846 224.805ZM751.942 229.995C751.942 230.025 751.927 230.235 751.897 230.625H745.792C745.902 231.125 746.162 231.52 746.572 231.81C746.982 232.1 747.492 232.245 748.102 232.245C748.522 232.245 748.892 232.185 749.212 232.065C749.542 231.935 749.847 231.735 750.127 231.465L751.372 232.815C750.612 233.685 749.502 234.12 748.042 234.12C747.132 234.12 746.327 233.945 745.627 233.595C744.927 233.235 744.387 232.74 744.007 232.11C743.627 231.48 743.437 230.765 743.437 229.965C743.437 229.175 743.622 228.465 743.992 227.835C744.372 227.195 744.887 226.7 745.537 226.35C746.197 225.99 746.932 225.81 747.742 225.81C748.532 225.81 749.247 225.98 749.887 226.32C750.527 226.66 751.027 227.15 751.387 227.79C751.757 228.42 751.942 229.155 751.942 229.995ZM747.757 227.58C747.227 227.58 746.782 227.73 746.422 228.03C746.062 228.33 745.842 228.74 745.762 229.26H749.737C749.657 228.75 749.437 228.345 749.077 228.045C748.717 227.735 748.277 227.58 747.757 227.58ZM756.065 234.12C755.395 234.12 754.74 234.04 754.1 233.88C753.46 233.71 752.95 233.5 752.57 233.25L753.35 231.57C753.71 231.8 754.145 231.99 754.655 232.14C755.165 232.28 755.665 232.35 756.155 232.35C757.145 232.35 757.64 232.105 757.64 231.615C757.64 231.385 757.505 231.22 757.235 231.12C756.965 231.02 756.55 230.935 755.99 230.865C755.33 230.765 754.785 230.65 754.355 230.52C753.925 230.39 753.55 230.16 753.23 229.83C752.92 229.5 752.765 229.03 752.765 228.42C752.765 227.91 752.91 227.46 753.2 227.07C753.5 226.67 753.93 226.36 754.49 226.14C755.06 225.92 755.73 225.81 756.5 225.81C757.07 225.81 757.635 225.875 758.195 226.005C758.765 226.125 759.235 226.295 759.605 226.515L758.825 228.18C758.115 227.78 757.34 227.58 756.5 227.58C756 227.58 755.625 227.65 755.375 227.79C755.125 227.93 755 228.11 755 228.33C755 228.58 755.135 228.755 755.405 228.855C755.675 228.955 756.105 229.05 756.695 229.14C757.355 229.25 757.895 229.37 758.315 229.5C758.735 229.62 759.1 229.845 759.41 230.175C759.72 230.505 759.875 230.965 759.875 231.555C759.875 232.055 759.725 232.5 759.425 232.89C759.125 233.28 758.685 233.585 758.105 233.805C757.535 234.015 756.855 234.12 756.065 234.12Z" fill="black"/>
<path d="M456.552 474L454.511 471.13C454.282 471.155 454.043 471.168 453.797 471.168H451.398V474H450.454V465.07H453.797C454.936 465.07 455.829 465.342 456.476 465.886C457.122 466.431 457.445 467.179 457.445 468.132C457.445 468.829 457.267 469.42 456.91 469.905C456.561 470.381 456.059 470.726 455.404 470.938L457.586 474H456.552ZM453.771 470.364C454.656 470.364 455.332 470.169 455.8 469.777C456.267 469.386 456.501 468.838 456.501 468.132C456.501 467.409 456.267 466.856 455.8 466.473C455.332 466.082 454.656 465.886 453.771 465.886H451.398V470.364H453.771ZM465.861 473.184V474H459.546V465.07H465.669V465.886H460.49V469.063H465.108V469.867H460.49V473.184H465.861ZM469.687 465.886H466.549V465.07H473.77V465.886H470.631V474H469.687V465.886ZM478.573 474.077C477.417 474.077 476.515 473.745 475.869 473.081C475.223 472.418 474.899 471.453 474.899 470.186V465.07H475.843V470.147C475.843 471.185 476.077 471.959 476.545 472.469C477.013 472.979 477.689 473.235 478.573 473.235C479.466 473.235 480.147 472.979 480.615 472.469C481.082 471.959 481.316 471.185 481.316 470.147V465.07H482.235V470.186C482.235 471.453 481.912 472.418 481.265 473.081C480.627 473.745 479.73 474.077 478.573 474.077ZM491.05 474L489.009 471.13C488.779 471.155 488.541 471.168 488.294 471.168H485.896V474H484.952V465.07H488.294C489.434 465.07 490.327 465.342 490.974 465.886C491.62 466.431 491.943 467.179 491.943 468.132C491.943 468.829 491.764 469.42 491.407 469.905C491.059 470.381 490.557 470.726 489.902 470.938L492.083 474H491.05ZM488.269 470.364C489.153 470.364 489.83 470.169 490.297 469.777C490.765 469.386 490.999 468.838 490.999 468.132C490.999 467.409 490.765 466.856 490.297 466.473C489.83 466.082 489.153 465.886 488.269 465.886H485.896V470.364H488.269ZM501.507 465.07V474H500.729L494.988 466.754V474H494.044V465.07H494.822L500.575 472.316V465.07H501.507ZM506.756 474.077C506.093 474.077 505.455 473.97 504.842 473.758C504.239 473.545 503.771 473.264 503.439 472.916L503.809 472.188C504.132 472.512 504.562 472.775 505.098 472.979C505.633 473.175 506.186 473.273 506.756 473.273C507.556 473.273 508.155 473.128 508.555 472.839C508.955 472.541 509.154 472.159 509.154 471.691C509.154 471.334 509.044 471.049 508.823 470.836C508.61 470.624 508.347 470.462 508.032 470.351C507.717 470.232 507.279 470.105 506.718 469.969C506.046 469.799 505.51 469.637 505.11 469.484C504.711 469.322 504.366 469.08 504.077 468.757C503.796 468.434 503.656 467.996 503.656 467.443C503.656 466.992 503.775 466.584 504.013 466.218C504.251 465.844 504.617 465.546 505.11 465.325C505.604 465.104 506.216 464.993 506.947 464.993C507.458 464.993 507.955 465.066 508.44 465.21C508.933 465.346 509.359 465.538 509.716 465.784L509.397 466.537C509.023 466.29 508.623 466.107 508.198 465.988C507.772 465.861 507.356 465.797 506.947 465.797C506.165 465.797 505.574 465.95 505.174 466.256C504.783 466.554 504.587 466.941 504.587 467.417C504.587 467.774 504.694 468.064 504.906 468.285C505.127 468.497 505.4 468.663 505.723 468.782C506.054 468.893 506.497 469.016 507.05 469.152C507.704 469.314 508.232 469.475 508.631 469.637C509.04 469.79 509.384 470.028 509.665 470.351C509.945 470.666 510.086 471.096 510.086 471.64C510.086 472.091 509.962 472.503 509.716 472.877C509.478 473.243 509.108 473.536 508.606 473.758C508.104 473.97 507.488 474.077 506.756 474.077Z" fill="black"/>
<path d="M518.706 469.224H526.591L523.146 472.759C522.871 473.042 522.871 473.506 523.146 473.788C523.421 474.071 523.866 474.071 524.142 473.788L528.794 469.014C529.069 468.732 529.069 468.275 528.794 467.993L524.149 463.212C523.873 462.929 523.429 462.929 523.153 463.212C522.878 463.494 522.878 463.951 523.153 464.233L526.591 467.776H518.706C518.318 467.776 518 468.102 518 468.5C518 468.898 518.318 469.224 518.706 469.224Z" fill="black"/>
<defs>
<filter id="filter0_f_4222_4823" x="61.527" y="142.29" width="865.327" height="216.86" filterUnits="userSpaceOnUse" color-interpolation-filters="sRGB">
<feFlood flood-opacity="0" result="BackgroundImageFix"/>
<feBlend mode="normal" in="SourceGraphic" in2="BackgroundImageFix" result="shape"/>
<feGaussianBlur stdDeviation="5.40691" result="effect1_foregroundBlur_4222_4823"/>
</filter>
<filter id="filter1_f_4222_4823" x="324.803" y="0.489456" width="569.708" height="383.816" filterUnits="userSpaceOnUse" color-interpolation-filters="sRGB">
<feFlood flood-opacity="0" result="BackgroundImageFix"/>
<feBlend mode="normal" in="SourceGraphic" in2="BackgroundImageFix" result="shape"/>
<feGaussianBlur stdDeviation="43.2553" result="effect1_foregroundBlur_4222_4823"/>
</filter>
<filter id="filter2_f_4222_4823" x="0.407883" y="36.1701" width="993.184" height="385.967" filterUnits="userSpaceOnUse" color-interpolation-filters="sRGB">
<feFlood flood-opacity="0" result="BackgroundImageFix"/>
<feBlend mode="normal" in="SourceGraphic" in2="BackgroundImageFix" result="shape"/>
<feGaussianBlur stdDeviation="36.0461" result="effect1_foregroundBlur_4222_4823"/>
</filter>
<filter id="filter3_bd_4222_4823" x="27" y="119" width="927.004" height="406" filterUnits="userSpaceOnUse" color-interpolation-filters="sRGB">
<feFlood flood-opacity="0" result="BackgroundImageFix"/>
<feGaussianBlur in="BackgroundImageFix" stdDeviation="10"/>
<feComposite in2="SourceAlpha" operator="in" result="effect1_backgroundBlur_4222_4823"/>
<feColorMatrix in="SourceAlpha" type="matrix" values="0 0 0 0 0 0 0 0 0 0 0 0 0 0 0 0 0 0 127 0" result="hardAlpha"/>
<feOffset dy="54"/>
<feGaussianBlur stdDeviation="22"/>
<feComposite in2="hardAlpha" operator="out"/>
<feColorMatrix type="matrix" values="0 0 0 0 0 0 0 0 0 0 0 0 0 0 0 0 0 0 0.07 0"/>
<feBlend mode="normal" in2="effect1_backgroundBlur_4222_4823" result="effect2_dropShadow_4222_4823"/>
<feBlend mode="normal" in="SourceGraphic" in2="effect2_dropShadow_4222_4823" result="shape"/>
</filter>
<filter id="filter4_d_4222_4823" x="608.275" y="202.6" width="42.7526" height="44.9154" filterUnits="userSpaceOnUse" color-interpolation-filters="sRGB">
<feFlood flood-opacity="0" result="BackgroundImageFix"/>
<feColorMatrix in="SourceAlpha" type="matrix" values="0 0 0 0 0 0 0 0 0 0 0 0 0 0 0 0 0 0 127 0" result="hardAlpha"/>
<feOffset dy="6.48829"/>
<feGaussianBlur stdDeviation="2.16276"/>
<feColorMatrix type="matrix" values="0 0 0 0 0.2125 0 0 0 0 0.0717188 0 0 0 0 0.173081 0 0 0 0.25 0"/>
<feBlend mode="normal" in2="BackgroundImageFix" result="effect1_dropShadow_4222_4823"/>
<feBlend mode="normal" in="SourceGraphic" in2="effect1_dropShadow_4222_4823" result="shape"/>
</filter>
<filter id="filter5_dd_4222_4823" x="613.071" y="204.511" width="33.1628" height="33.1624" filterUnits="userSpaceOnUse" color-interpolation-filters="sRGB">
<feFlood flood-opacity="0" result="BackgroundImageFix"/>
<feColorMatrix in="SourceAlpha" type="matrix" values="0 0 0 0 0 0 0 0 0 0 0 0 0 0 0 0 0 0 127 0" result="hardAlpha"/>
<feOffset dy="1.44184"/>
<feGaussianBlur stdDeviation="5.40691"/>
<feColorMatrix type="matrix" values="0 0 0 0 1 0 0 0 0 0.191667 0 0 0 0 0.822166 0 0 0 0.4 0"/>
<feBlend mode="normal" in2="BackgroundImageFix" result="effect1_dropShadow_4222_4823"/>
<feColorMatrix in="SourceAlpha" type="matrix" values="0 0 0 0 0 0 0 0 0 0 0 0 0 0 0 0 0 0 127 0" result="hardAlpha"/>
<feOffset dy="2.42997"/>
<feGaussianBlur stdDeviation="4.25246"/>
<feComposite in2="hardAlpha" operator="out"/>
<feColorMatrix type="matrix" values="0 0 0 0 0 0 0 0 0 0 0 0 0 0 0 0 0 0 0.55 0"/>
<feBlend mode="normal" in2="effect1_dropShadow_4222_4823" result="effect2_dropShadow_4222_4823"/>
<feBlend mode="normal" in="SourceGraphic" in2="effect2_dropShadow_4222_4823" result="shape"/>
</filter>
<filter id="filter6_dd_4222_4823" x="211.726" y="277.228" width="28.3103" height="28.31" filterUnits="userSpaceOnUse" color-interpolation-filters="sRGB">
<feFlood flood-opacity="0" result="BackgroundImageFix"/>
<feColorMatrix in="SourceAlpha" type="matrix" values="0 0 0 0 0 0 0 0 0 0 0 0 0 0 0 0 0 0 127 0" result="hardAlpha"/>
<feOffset dy="1.44184"/>
<feGaussianBlur stdDeviation="5.40691"/>
<feColorMatrix type="matrix" values="0 0 0 0 1 0 0 0 0 0.191667 0 0 0 0 0.822166 0 0 0 0.4 0"/>
<feBlend mode="normal" in2="BackgroundImageFix" result="effect1_dropShadow_4222_4823"/>
<feColorMatrix in="SourceAlpha" type="matrix" values="0 0 0 0 0 0 0 0 0 0 0 0 0 0 0 0 0 0 127 0" result="hardAlpha"/>
<feOffset dy="2.42997"/>
<feGaussianBlur stdDeviation="4.25246"/>
<feComposite in2="hardAlpha" operator="out"/>
<feColorMatrix type="matrix" values="0 0 0 0 0 0 0 0 0 0 0 0 0 0 0 0 0 0 0.55 0"/>
<feBlend mode="normal" in2="effect1_dropShadow_4222_4823" result="effect2_dropShadow_4222_4823"/>
<feBlend mode="normal" in="SourceGraphic" in2="effect2_dropShadow_4222_4823" result="shape"/>
</filter>
<filter id="filter7_dd_4222_4823" x="135.687" y="310.628" width="28.3103" height="28.31" filterUnits="userSpaceOnUse" color-interpolation-filters="sRGB">
<feFlood flood-opacity="0" result="BackgroundImageFix"/>
<feColorMatrix in="SourceAlpha" type="matrix" values="0 0 0 0 0 0 0 0 0 0 0 0 0 0 0 0 0 0 127 0" result="hardAlpha"/>
<feOffset dy="1.44184"/>
<feGaussianBlur stdDeviation="5.40691"/>
<feColorMatrix type="matrix" values="0 0 0 0 1 0 0 0 0 0.191667 0 0 0 0 0.822166 0 0 0 0.4 0"/>
<feBlend mode="normal" in2="BackgroundImageFix" result="effect1_dropShadow_4222_4823"/>
<feColorMatrix in="SourceAlpha" type="matrix" values="0 0 0 0 0 0 0 0 0 0 0 0 0 0 0 0 0 0 127 0" result="hardAlpha"/>
<feOffset dy="2.42997"/>
<feGaussianBlur stdDeviation="4.25246"/>
<feComposite in2="hardAlpha" operator="out"/>
<feColorMatrix type="matrix" values="0 0 0 0 0 0 0 0 0 0 0 0 0 0 0 0 0 0 0.55 0"/>
<feBlend mode="normal" in2="effect1_dropShadow_4222_4823" result="effect2_dropShadow_4222_4823"/>
<feBlend mode="normal" in="SourceGraphic" in2="effect2_dropShadow_4222_4823" result="shape"/>
</filter>
<filter id="filter8_dd_4222_4823" x="793.687" y="147.629" width="29.6276" height="29.6276" filterUnits="userSpaceOnUse" color-interpolation-filters="sRGB">
<feFlood flood-opacity="0" result="BackgroundImageFix"/>
<feColorMatrix in="SourceAlpha" type="matrix" values="0 0 0 0 0 0 0 0 0 0 0 0 0 0 0 0 0 0 127 0" result="hardAlpha"/>
<feOffset dy="1.44184"/>
<feGaussianBlur stdDeviation="5.40691"/>
<feColorMatrix type="matrix" values="0 0 0 0 1 0 0 0 0 0.191667 0 0 0 0 0.822166 0 0 0 0.4 0"/>
<feBlend mode="normal" in2="BackgroundImageFix" result="effect1_dropShadow_4222_4823"/>
<feColorMatrix in="SourceAlpha" type="matrix" values="0 0 0 0 0 0 0 0 0 0 0 0 0 0 0 0 0 0 127 0" result="hardAlpha"/>
<feOffset dy="2.42997"/>
<feGaussianBlur stdDeviation="4.25246"/>
<feComposite in2="hardAlpha" operator="out"/>
<feColorMatrix type="matrix" values="0 0 0 0 0 0 0 0 0 0 0 0 0 0 0 0 0 0 0.55 0"/>
<feBlend mode="normal" in2="effect1_dropShadow_4222_4823" result="effect2_dropShadow_4222_4823"/>
<feBlend mode="normal" in="SourceGraphic" in2="effect2_dropShadow_4222_4823" result="shape"/>
</filter>
<linearGradient id="paint0_linear_4222_4823" x1="454.582" y1="458.179" x2="555.857" y2="77.3222" gradientUnits="userSpaceOnUse">
<stop stop-color="#45AFEE" stop-opacity="0.01"/>
<stop offset="0.0375866" stop-color="#43B1EC" stop-opacity="0.615533"/>
<stop offset="0.0805049" stop-color="#41B3E9" stop-opacity="0.767526"/>
<stop offset="0.146149" stop-color="#3EB7E5"/>
<stop offset="0.747659" stop-color="#23DBBD"/>
<stop offset="0.842081" stop-color="#1EE0B7" stop-opacity="0.852977"/>
<stop offset="0.896184" stop-color="#1CE4B3" stop-opacity="0.768733"/>
<stop offset="0.927591" stop-color="#1BE5B1" stop-opacity="0.144475"/>
<stop offset="1" stop-color="#17EAAC" stop-opacity="0.01"/>
</linearGradient>
<linearGradient id="paint1_linear_4222_4823" x1="773.08" y1="188.308" x2="101.012" y2="272.851" gradientUnits="userSpaceOnUse">
<stop stop-color="#FFB844" stop-opacity="0.01"/>
<stop offset="0.239409" stop-color="#A94DFF" stop-opacity="0.647334"/>
<stop offset="0.541479" stop-color="#B1FF72"/>
<stop offset="0.767902" stop-color="#50C2F1"/>
<stop offset="1" stop-color="#FF10D1" stop-opacity="0.01"/>
</linearGradient>
<linearGradient id="paint2_linear_4222_4823" x1="231.83" y1="385.139" x2="262.967" y2="102.325" gradientUnits="userSpaceOnUse">
<stop stop-color="#F18586" stop-opacity="0.01"/>
<stop offset="0.124227" stop-color="#F78D7D"/>
<stop offset="1" stop-color="#FF9F46" stop-opacity="0.01"/>
</linearGradient>
<linearGradient id="paint3_linear_4222_4823" x1="639.294" y1="122.705" x2="388.847" y2="364.933" gradientUnits="userSpaceOnUse">
<stop stop-color="#F4FF05" stop-opacity="0"/>
<stop offset="0.42484" stop-color="#FD63D2"/>
<stop offset="1" stop-color="#38FFE7" stop-opacity="0"/>
</linearGradient>
<linearGradient id="paint4_linear_4222_4823" x1="795.279" y1="42.8341" x2="-65.1193" y2="249.528" gradientUnits="userSpaceOnUse">
<stop stop-color="#FF4105" stop-opacity="0.1"/>
<stop offset="0.396574" stop-color="#FFDA79" stop-opacity="0.28"/>
<stop offset="0.64229" stop-color="#3AF3FF" stop-opacity="0.6"/>
<stop offset="1" stop-color="#38CFFF" stop-opacity="0.489074"/>
</linearGradient>
<linearGradient id="paint5_linear_4222_4823" x1="950.92" y1="152.968" x2="795.43" y2="645.83" gradientUnits="userSpaceOnUse">
<stop stop-color="#FF44D6" stop-opacity="0.01"/>
<stop offset="0.194726" stop-color="#FF7979"/>
<stop offset="0.391043" stop-color="#FF4DCA"/>
<stop offset="0.940665" stop-color="#FC6AA4"/>
<stop offset="1" stop-color="#E34E81" stop-opacity="0.594203"/>
</linearGradient>
<radialGradient id="paint6_radial_4222_4823" cx="0" cy="0" r="1" gradientUnits="userSpaceOnUse" gradientTransform="translate(630.372 220.372) rotate(28.5925) scale(56.2627)">
<stop stop-color="#FF731C"/>
<stop offset="1" stop-color="#FF49C8" stop-opacity="0.01"/>
</radialGradient>
<linearGradient id="paint7_linear_4222_4823" x1="595.55" y1="219.651" x2="629.651" y2="253.752" gradientUnits="userSpaceOnUse">
<stop stop-color="#FFF2FE"/>
<stop offset="1" stop-color="#FFBFF6"/>
</linearGradient>
<linearGradient id="paint8_linear_4222_4823" x1="618.117" y1="219.651" x2="629.652" y2="231.186" gradientUnits="userSpaceOnUse">
<stop stop-color="#FFF2FE"/>
<stop offset="1" stop-color="#FFBFF6"/>
</linearGradient>
<linearGradient id="paint9_linear_4222_4823" x1="219.199" y1="289.942" x2="225.881" y2="296.624" gradientUnits="userSpaceOnUse">
<stop stop-color="#FFF2FE"/>
<stop offset="1" stop-color="#FFBFF6"/>
</linearGradient>
<linearGradient id="paint10_linear_4222_4823" x1="143.16" y1="323.341" x2="149.842" y2="330.024" gradientUnits="userSpaceOnUse">
<stop stop-color="#FFF2FE"/>
<stop offset="1" stop-color="#FFBFF6"/>
</linearGradient>
<linearGradient id="paint11_linear_4222_4823" x1="800.501" y1="161" x2="808.501" y2="169" gradientUnits="userSpaceOnUse">
<stop stop-color="#FFF2FE"/>
<stop offset="1" stop-color="#FFBFF6"/>
</linearGradient>
</defs>
</svg>
