<svg width="447" height="321" viewBox="0 0 447 321" fill="none" xmlns="http://www.w3.org/2000/svg">
<path d="M270.5 56L234 163.5L364 153" stroke="#AEB8C2" stroke-width="2" stroke-dasharray="5 5"/>
<path d="M234.5 161.5L145.5 252.5" stroke="#AEB8C2" stroke-width="2" stroke-dasharray="5 5"/>
<path d="M232 162L349 244.5" stroke="#AEB8C2" stroke-width="2" stroke-dasharray="5 5"/>
<path d="M109.5 126L230 161.5" stroke="#AEB8C2" stroke-width="2" stroke-dasharray="5 5"/>
<g filter="url(#filter0_d_2274_2074)">
<rect x="301" y="223" width="86" height="60" rx="4" fill="white"/>
</g>
<path d="M332.935 260H324.225V258.436L327.538 255.104C328.517 254.103 329.164 253.394 329.48 252.978C329.803 252.556 330.037 252.16 330.184 251.791C330.33 251.422 330.403 251.026 330.403 250.604C330.403 250.024 330.228 249.567 329.876 249.233C329.53 248.899 329.05 248.732 328.435 248.732C327.942 248.732 327.465 248.823 327.002 249.005C326.545 249.187 326.015 249.515 325.411 249.989L324.295 248.627C325.01 248.023 325.704 247.596 326.378 247.344C327.052 247.092 327.77 246.966 328.531 246.966C329.727 246.966 330.685 247.279 331.405 247.906C332.126 248.527 332.486 249.365 332.486 250.42C332.486 251 332.381 251.551 332.17 252.072C331.965 252.594 331.646 253.133 331.212 253.689C330.784 254.24 330.069 254.987 329.067 255.931L326.835 258.093V258.181H332.935V260Z" fill="#141526"/>
<path d="M343.218 253.575C343.218 255.808 342.857 257.466 342.137 258.55C341.422 259.634 340.326 260.176 338.85 260.176C337.42 260.176 336.336 259.616 335.598 258.497C334.859 257.378 334.49 255.737 334.49 253.575C334.49 251.308 334.848 249.638 335.562 248.565C336.283 247.487 337.379 246.948 338.85 246.948C340.285 246.948 341.372 247.511 342.11 248.636C342.849 249.761 343.218 251.407 343.218 253.575ZM336.582 253.575C336.582 255.327 336.761 256.578 337.118 257.328C337.481 258.078 338.059 258.453 338.85 258.453C339.641 258.453 340.218 258.072 340.581 257.311C340.95 256.549 341.135 255.304 341.135 253.575C341.135 251.853 340.95 250.607 340.581 249.84C340.218 249.066 339.641 248.68 338.85 248.68C338.059 248.68 337.481 249.058 337.118 249.813C336.761 250.569 336.582 251.823 336.582 253.575Z" fill="#141526"/>
<path d="M350.855 260H348.79V251.703C348.79 250.713 348.813 249.928 348.86 249.348C348.726 249.488 348.559 249.644 348.359 249.813C348.166 249.983 347.51 250.522 346.391 251.431L345.354 250.121L349.133 247.15H350.855V260Z" fill="#141526"/>
<path d="M359.416 246.983C360.635 246.983 361.599 247.265 362.308 247.827C363.017 248.384 363.371 249.131 363.371 250.068C363.371 251.387 362.58 252.436 360.998 253.215C362.006 253.719 362.721 254.249 363.143 254.806C363.57 255.362 363.784 255.983 363.784 256.669C363.784 257.729 363.395 258.579 362.615 259.218C361.836 259.856 360.781 260.176 359.451 260.176C358.057 260.176 356.976 259.877 356.208 259.279C355.44 258.682 355.057 257.835 355.057 256.739C355.057 256.024 355.256 255.383 355.654 254.814C356.059 254.24 356.718 253.73 357.632 253.285C356.847 252.816 356.287 252.321 355.953 251.8C355.619 251.278 355.452 250.692 355.452 250.042C355.452 249.11 355.818 248.369 356.551 247.818C357.283 247.262 358.238 246.983 359.416 246.983ZM357.034 256.669C357.034 257.278 357.248 257.753 357.676 258.093C358.104 258.427 358.684 258.594 359.416 258.594C360.172 258.594 360.758 258.421 361.174 258.075C361.596 257.724 361.807 257.249 361.807 256.651C361.807 256.177 361.613 255.743 361.227 255.351C360.84 254.958 360.254 254.595 359.469 254.261L359.214 254.146C358.44 254.486 357.884 254.861 357.544 255.271C357.204 255.676 357.034 256.142 357.034 256.669ZM359.398 248.574C358.812 248.574 358.341 248.721 357.983 249.014C357.626 249.301 357.447 249.693 357.447 250.191C357.447 250.496 357.512 250.769 357.641 251.009C357.77 251.249 357.957 251.469 358.203 251.668C358.449 251.861 358.865 252.096 359.451 252.371C360.154 252.061 360.649 251.735 360.937 251.396C361.229 251.05 361.376 250.648 361.376 250.191C361.376 249.693 361.194 249.301 360.831 249.014C360.474 248.721 359.996 248.574 359.398 248.574Z" fill="#141526"/>
<g filter="url(#filter1_d_2274_2074)">
<rect x="30" y="97" width="130" height="60" rx="4" fill="white"/>
</g>
<path d="M58.3586 133H51.8977V121.578H58.3586V123.156H53.7649V126.266H58.0696V127.828H53.7649V131.414H58.3586V133Z" fill="#141526"/>
<path d="M63.9643 133.156C62.657 133.156 61.6622 132.776 60.9799 132.016C60.3028 131.25 59.9643 130.154 59.9643 128.727C59.9643 127.273 60.3184 126.156 61.0268 125.375C61.7403 124.594 62.769 124.203 64.1127 124.203C65.0242 124.203 65.8445 124.372 66.5736 124.711L66.019 126.188C65.2429 125.885 64.6023 125.734 64.0971 125.734C62.6023 125.734 61.8549 126.727 61.8549 128.711C61.8549 129.68 62.0398 130.409 62.4096 130.898C62.7846 131.383 63.3315 131.625 64.0502 131.625C64.8679 131.625 65.6414 131.422 66.3705 131.016V132.617C66.0424 132.81 65.6908 132.948 65.3158 133.031C64.946 133.115 64.4955 133.156 63.9643 133.156Z" fill="#141526"/>
<path d="M75.9058 128.664C75.9058 130.076 75.5439 131.177 74.8199 131.969C74.0959 132.76 73.0881 133.156 71.7965 133.156C70.9892 133.156 70.2756 132.974 69.6558 132.609C69.036 132.245 68.5595 131.721 68.2261 131.039C67.8928 130.357 67.7261 129.565 67.7261 128.664C67.7261 127.263 68.0855 126.169 68.8043 125.383C69.523 124.596 70.536 124.203 71.8433 124.203C73.0933 124.203 74.0829 124.607 74.8121 125.414C75.5412 126.216 75.9058 127.299 75.9058 128.664ZM69.6168 128.664C69.6168 130.659 70.3537 131.656 71.8277 131.656C73.286 131.656 74.0152 130.659 74.0152 128.664C74.0152 126.69 73.2808 125.703 71.8121 125.703C71.0412 125.703 70.4814 125.958 70.1324 126.469C69.7886 126.979 69.6168 127.711 69.6168 128.664Z" fill="#141526"/>
<path d="M85.1443 133H83.3005V127.672C83.3005 127.01 83.1755 126.518 82.9255 126.195C82.6755 125.867 82.2849 125.703 81.7536 125.703C81.0453 125.703 80.5245 125.935 80.1911 126.398C79.863 126.857 79.699 127.622 79.699 128.695V133H77.863V124.359H79.3005L79.5583 125.492H79.6521C79.8917 125.081 80.238 124.763 80.6911 124.539C81.1495 124.315 81.6521 124.203 82.199 124.203C83.5271 124.203 84.4073 124.656 84.8396 125.562H84.9646C85.2198 125.135 85.5792 124.802 86.0427 124.562C86.5062 124.323 87.0375 124.203 87.6365 124.203C88.6677 124.203 89.4177 124.464 89.8865 124.984C90.3604 125.505 90.5974 126.299 90.5974 127.367V133H88.7615V127.672C88.7615 127.01 88.6339 126.518 88.3786 126.195C88.1286 125.867 87.738 125.703 87.2068 125.703C86.4932 125.703 85.9698 125.927 85.6365 126.375C85.3083 126.818 85.1443 127.5 85.1443 128.422V133Z" fill="#141526"/>
<path d="M100.281 133H98.4374V127.672C98.4374 127.01 98.3124 126.518 98.0624 126.195C97.8124 125.867 97.4218 125.703 96.8905 125.703C96.1822 125.703 95.6614 125.935 95.328 126.398C94.9999 126.857 94.8358 127.622 94.8358 128.695V133H92.9999V124.359H94.4374L94.6952 125.492H94.789C95.0285 125.081 95.3749 124.763 95.828 124.539C96.2864 124.315 96.789 124.203 97.3358 124.203C98.664 124.203 99.5442 124.656 99.9765 125.562H100.101C100.357 125.135 100.716 124.802 101.18 124.562C101.643 124.323 102.174 124.203 102.773 124.203C103.805 124.203 104.555 124.464 105.023 124.984C105.497 125.505 105.734 126.299 105.734 127.367V133H103.898V127.672C103.898 127.01 103.771 126.518 103.516 126.195C103.266 125.867 102.875 125.703 102.344 125.703C101.63 125.703 101.107 125.927 100.773 126.375C100.445 126.818 100.281 127.5 100.281 128.422V133Z" fill="#141526"/>
<path d="M111.91 133.156C110.566 133.156 109.514 132.766 108.754 131.984C107.999 131.198 107.621 130.117 107.621 128.742C107.621 127.331 107.973 126.221 108.676 125.414C109.379 124.607 110.345 124.203 111.574 124.203C112.715 124.203 113.616 124.549 114.277 125.242C114.939 125.935 115.27 126.888 115.27 128.102V129.094H109.512C109.538 129.932 109.764 130.578 110.191 131.031C110.619 131.479 111.22 131.703 111.996 131.703C112.507 131.703 112.981 131.656 113.418 131.562C113.861 131.464 114.335 131.302 114.84 131.078V132.57C114.392 132.784 113.939 132.935 113.481 133.023C113.022 133.112 112.499 133.156 111.91 133.156ZM111.574 125.594C110.991 125.594 110.522 125.779 110.168 126.148C109.819 126.518 109.611 127.057 109.543 127.766H113.465C113.454 127.052 113.283 126.513 112.949 126.148C112.616 125.779 112.158 125.594 111.574 125.594Z" fill="#141526"/>
<path d="M121.578 124.203C121.948 124.203 122.253 124.229 122.492 124.281L122.313 125.992C122.052 125.93 121.781 125.898 121.5 125.898C120.766 125.898 120.169 126.138 119.711 126.617C119.258 127.096 119.031 127.719 119.031 128.484V133H117.196V124.359H118.633L118.875 125.883H118.969C119.255 125.367 119.628 124.958 120.086 124.656C120.55 124.354 121.047 124.203 121.578 124.203Z" fill="#141526"/>
<path d="M127.426 133.156C126.119 133.156 125.124 132.776 124.442 132.016C123.765 131.25 123.426 130.154 123.426 128.727C123.426 127.273 123.78 126.156 124.489 125.375C125.202 124.594 126.231 124.203 127.575 124.203C128.486 124.203 129.306 124.372 130.036 124.711L129.481 126.188C128.705 125.885 128.064 125.734 127.559 125.734C126.064 125.734 125.317 126.727 125.317 128.711C125.317 129.68 125.502 130.409 125.871 130.898C126.246 131.383 126.793 131.625 127.512 131.625C128.33 131.625 129.103 131.422 129.832 131.016V132.617C129.504 132.81 129.153 132.948 128.778 133.031C128.408 133.115 127.957 133.156 127.426 133.156Z" fill="#141526"/>
<path d="M135.477 133.156C134.133 133.156 133.081 132.766 132.321 131.984C131.566 131.198 131.188 130.117 131.188 128.742C131.188 127.331 131.54 126.221 132.243 125.414C132.946 124.607 133.912 124.203 135.141 124.203C136.282 124.203 137.183 124.549 137.844 125.242C138.506 125.935 138.836 126.888 138.836 128.102V129.094H133.079C133.105 129.932 133.331 130.578 133.758 131.031C134.185 131.479 134.787 131.703 135.563 131.703C136.073 131.703 136.547 131.656 136.985 131.562C137.428 131.464 137.902 131.302 138.407 131.078V132.57C137.959 132.784 137.506 132.935 137.047 133.023C136.589 133.112 136.066 133.156 135.477 133.156ZM135.141 125.594C134.558 125.594 134.089 125.779 133.735 126.148C133.386 126.518 133.178 127.057 133.11 127.766H137.032C137.021 127.052 136.849 126.513 136.516 126.148C136.183 125.779 135.724 125.594 135.141 125.594Z" fill="#141526"/>
<g filter="url(#filter2_d_2274_2074)">
<rect x="84" y="235" width="130" height="50" rx="4" fill="white"/>
</g>
<path d="M113.095 266L111.954 262.828H107.587L106.47 266H104.501L108.775 254.531H110.806L115.079 266H113.095ZM111.462 261.219L110.392 258.109C110.314 257.901 110.204 257.573 110.064 257.125C109.928 256.677 109.835 256.349 109.782 256.141C109.642 256.781 109.436 257.482 109.165 258.242L108.134 261.219H111.462Z" fill="#141526"/>
<path d="M122.326 266L122.068 264.867H121.974C121.719 265.268 121.354 265.583 120.88 265.812C120.412 266.042 119.875 266.156 119.271 266.156C118.224 266.156 117.443 265.896 116.927 265.375C116.412 264.854 116.154 264.065 116.154 263.008V257.359H118.005V262.688C118.005 263.349 118.141 263.846 118.412 264.18C118.682 264.508 119.107 264.672 119.685 264.672C120.456 264.672 121.021 264.443 121.38 263.984C121.745 263.521 121.927 262.747 121.927 261.664V257.359H123.771V266H122.326Z" fill="#141526"/>
<path d="M129.447 264.672C129.895 264.672 130.343 264.602 130.791 264.461V265.844C130.587 265.932 130.324 266.005 130.002 266.062C129.684 266.125 129.353 266.156 129.009 266.156C127.27 266.156 126.4 265.24 126.4 263.406V258.75H125.22V257.938L126.486 257.266L127.111 255.438H128.244V257.359H130.705V258.75H128.244V263.375C128.244 263.818 128.353 264.146 128.572 264.359C128.796 264.568 129.087 264.672 129.447 264.672Z" fill="#141526"/>
<path d="M140.029 261.664C140.029 263.076 139.667 264.177 138.943 264.969C138.219 265.76 137.211 266.156 135.92 266.156C135.112 266.156 134.399 265.974 133.779 265.609C133.159 265.245 132.683 264.721 132.349 264.039C132.016 263.357 131.849 262.565 131.849 261.664C131.849 260.263 132.209 259.169 132.927 258.383C133.646 257.596 134.659 257.203 135.967 257.203C137.217 257.203 138.206 257.607 138.935 258.414C139.664 259.216 140.029 260.299 140.029 261.664ZM133.74 261.664C133.74 263.659 134.477 264.656 135.951 264.656C137.409 264.656 138.138 263.659 138.138 261.664C138.138 259.69 137.404 258.703 135.935 258.703C135.164 258.703 134.605 258.958 134.256 259.469C133.912 259.979 133.74 260.711 133.74 261.664Z" fill="#141526"/>
<path d="M149.267 266H147.424V260.672C147.424 260.01 147.299 259.518 147.049 259.195C146.799 258.867 146.408 258.703 145.877 258.703C145.169 258.703 144.648 258.935 144.314 259.398C143.986 259.857 143.822 260.622 143.822 261.695V266H141.986V257.359H143.424L143.682 258.492H143.775C144.015 258.081 144.361 257.763 144.814 257.539C145.273 257.315 145.775 257.203 146.322 257.203C147.65 257.203 148.53 257.656 148.963 258.562H149.088C149.343 258.135 149.702 257.802 150.166 257.562C150.629 257.323 151.161 257.203 151.76 257.203C152.791 257.203 153.541 257.464 154.01 257.984C154.484 258.505 154.721 259.299 154.721 260.367V266H152.885V260.672C152.885 260.01 152.757 259.518 152.502 259.195C152.252 258.867 151.861 258.703 151.33 258.703C150.616 258.703 150.093 258.927 149.76 259.375C149.432 259.818 149.267 260.5 149.267 261.422V266Z" fill="#141526"/>
<path d="M164.787 261.664C164.787 263.076 164.425 264.177 163.701 264.969C162.977 265.76 161.969 266.156 160.678 266.156C159.87 266.156 159.157 265.974 158.537 265.609C157.917 265.245 157.441 264.721 157.107 264.039C156.774 263.357 156.607 262.565 156.607 261.664C156.607 260.263 156.967 259.169 157.686 258.383C158.404 257.596 159.417 257.203 160.725 257.203C161.975 257.203 162.964 257.607 163.693 258.414C164.423 259.216 164.787 260.299 164.787 261.664ZM158.498 261.664C158.498 263.659 159.235 264.656 160.709 264.656C162.167 264.656 162.897 263.659 162.897 261.664C162.897 259.69 162.162 258.703 160.693 258.703C159.923 258.703 159.363 258.958 159.014 259.469C158.67 259.979 158.498 260.711 158.498 261.664Z" fill="#141526"/>
<path d="M169.963 264.672C170.411 264.672 170.859 264.602 171.307 264.461V265.844C171.104 265.932 170.841 266.005 170.518 266.062C170.2 266.125 169.869 266.156 169.526 266.156C167.786 266.156 166.916 265.24 166.916 263.406V258.75H165.737V257.938L167.002 257.266L167.627 255.438H168.76V257.359H171.221V258.75H168.76V263.375C168.76 263.818 168.869 264.146 169.088 264.359C169.312 264.568 169.604 264.672 169.963 264.672Z" fill="#141526"/>
<path d="M174.717 266H172.881V257.359H174.717V266ZM172.772 255.07C172.772 254.742 172.86 254.49 173.037 254.312C173.22 254.135 173.478 254.047 173.811 254.047C174.134 254.047 174.384 254.135 174.561 254.312C174.743 254.49 174.834 254.742 174.834 255.07C174.834 255.383 174.743 255.63 174.561 255.812C174.384 255.99 174.134 256.078 173.811 256.078C173.478 256.078 173.22 255.99 173.037 255.812C172.86 255.63 172.772 255.383 172.772 255.07Z" fill="#141526"/>
<path d="M179.159 266L175.877 257.359H177.815L179.573 262.383C179.875 263.227 180.057 263.909 180.12 264.43H180.182C180.229 264.055 180.411 263.372 180.729 262.383L182.487 257.359H184.44L181.143 266H179.159Z" fill="#141526"/>
<path d="M189.366 266.156C188.022 266.156 186.97 265.766 186.21 264.984C185.454 264.198 185.077 263.117 185.077 261.742C185.077 260.331 185.428 259.221 186.132 258.414C186.835 257.607 187.801 257.203 189.03 257.203C190.171 257.203 191.072 257.549 191.733 258.242C192.395 258.935 192.725 259.888 192.725 261.102V262.094H186.967C186.994 262.932 187.22 263.578 187.647 264.031C188.074 264.479 188.676 264.703 189.452 264.703C189.962 264.703 190.436 264.656 190.874 264.562C191.316 264.464 191.79 264.302 192.296 264.078V265.57C191.848 265.784 191.395 265.935 190.936 266.023C190.478 266.112 189.954 266.156 189.366 266.156ZM189.03 258.594C188.447 258.594 187.978 258.779 187.624 259.148C187.275 259.518 187.066 260.057 186.999 260.766H190.921C190.91 260.052 190.738 259.513 190.405 259.148C190.072 258.779 189.613 258.594 189.03 258.594Z" fill="#141526"/>
<g filter="url(#filter3_d_2274_2074)">
<rect x="317" y="123" width="100" height="50" rx="4" fill="white"/>
</g>
<path d="M346.792 151.531C346.792 152.547 346.425 153.344 345.691 153.922C344.957 154.5 343.944 154.789 342.652 154.789C341.36 154.789 340.303 154.589 339.48 154.188V152.422C340.001 152.667 340.553 152.859 341.136 153C341.725 153.141 342.272 153.211 342.777 153.211C343.516 153.211 344.061 153.07 344.41 152.789C344.764 152.508 344.941 152.13 344.941 151.656C344.941 151.229 344.779 150.867 344.457 150.57C344.134 150.274 343.467 149.922 342.457 149.516C341.415 149.094 340.681 148.612 340.253 148.07C339.826 147.529 339.613 146.878 339.613 146.117C339.613 145.164 339.951 144.414 340.628 143.867C341.306 143.32 342.214 143.047 343.355 143.047C344.449 143.047 345.537 143.287 346.621 143.766L346.027 145.289C345.011 144.862 344.105 144.649 343.308 144.649C342.704 144.649 342.246 144.781 341.933 145.047C341.621 145.307 341.464 145.654 341.464 146.086C341.464 146.383 341.527 146.638 341.652 146.852C341.777 147.06 341.983 147.258 342.269 147.445C342.556 147.633 343.071 147.88 343.816 148.188C344.654 148.537 345.269 148.862 345.66 149.164C346.05 149.466 346.337 149.807 346.519 150.188C346.701 150.568 346.792 151.016 346.792 151.531Z" fill="#141526"/>
<path d="M356.25 154.633H354.406V149.32C354.406 148.654 354.271 148.156 354 147.828C353.734 147.5 353.31 147.336 352.726 147.336C351.955 147.336 351.388 147.568 351.023 148.031C350.664 148.49 350.484 149.261 350.484 150.344V154.633H348.648V142.477H350.484V145.563C350.484 146.057 350.453 146.586 350.39 147.149H350.507C350.757 146.732 351.104 146.409 351.547 146.18C351.994 145.951 352.515 145.836 353.109 145.836C355.203 145.836 356.25 146.891 356.25 149V154.633Z" fill="#141526"/>
<path d="M366.308 150.297C366.308 151.708 365.946 152.81 365.222 153.602C364.499 154.393 363.491 154.789 362.199 154.789C361.392 154.789 360.678 154.607 360.058 154.242C359.439 153.878 358.962 153.354 358.629 152.672C358.295 151.99 358.129 151.198 358.129 150.297C358.129 148.896 358.488 147.802 359.207 147.016C359.926 146.229 360.939 145.836 362.246 145.836C363.496 145.836 364.486 146.24 365.215 147.047C365.944 147.849 366.308 148.932 366.308 150.297ZM360.019 150.297C360.019 152.292 360.756 153.289 362.23 153.289C363.689 153.289 364.418 152.292 364.418 150.297C364.418 148.323 363.683 147.336 362.215 147.336C361.444 147.336 360.884 147.591 360.535 148.102C360.191 148.612 360.019 149.344 360.019 150.297Z" fill="#141526"/>
<path d="M372.648 154.789C371.555 154.789 370.706 154.396 370.102 153.609H369.992C370.065 154.339 370.102 154.781 370.102 154.938V158.477H368.266V145.992H369.75C369.792 146.154 369.878 146.539 370.008 147.149H370.102C370.674 146.274 371.534 145.836 372.68 145.836C373.758 145.836 374.596 146.227 375.195 147.008C375.799 147.789 376.102 148.886 376.102 150.297C376.102 151.708 375.794 152.81 375.18 153.602C374.57 154.393 373.727 154.789 372.648 154.789ZM372.203 147.336C371.474 147.336 370.94 147.55 370.602 147.977C370.268 148.404 370.102 149.086 370.102 150.024V150.297C370.102 151.349 370.268 152.112 370.602 152.586C370.935 153.055 371.479 153.289 372.234 153.289C372.87 153.289 373.359 153.029 373.703 152.508C374.047 151.987 374.219 151.245 374.219 150.281C374.219 149.313 374.047 148.581 373.703 148.086C373.365 147.586 372.865 147.336 372.203 147.336Z" fill="#141526"/>
<path d="M379.91 154.633H378.074V145.992H379.91V154.633ZM377.965 143.703C377.965 143.375 378.054 143.123 378.231 142.945C378.413 142.768 378.671 142.68 379.004 142.68C379.327 142.68 379.577 142.768 379.754 142.945C379.936 143.123 380.027 143.375 380.027 143.703C380.027 144.016 379.936 144.263 379.754 144.445C379.577 144.623 379.327 144.711 379.004 144.711C378.671 144.711 378.413 144.623 378.231 144.445C378.054 144.263 377.965 144.016 377.965 143.703Z" fill="#141526"/>
<path d="M386.719 147.383H384.61V154.633H382.766V147.383H381.344V146.524L382.766 145.961V145.399C382.766 144.378 383.006 143.623 383.485 143.133C383.964 142.638 384.696 142.391 385.68 142.391C386.326 142.391 386.961 142.498 387.586 142.711L387.102 144.102C386.649 143.956 386.216 143.883 385.805 143.883C385.388 143.883 385.084 144.013 384.891 144.274C384.703 144.529 384.61 144.914 384.61 145.43V145.992H386.719V147.383Z" fill="#141526"/>
<path d="M386.723 145.992H388.723L390.481 150.891C390.747 151.589 390.924 152.245 391.012 152.859H391.075C391.122 152.573 391.207 152.227 391.332 151.82C391.457 151.409 392.119 149.466 393.317 145.992H395.301L391.606 155.781C390.934 157.578 389.814 158.477 388.247 158.477C387.84 158.477 387.444 158.432 387.059 158.344V156.891C387.335 156.953 387.65 156.984 388.004 156.984C388.89 156.984 389.512 156.471 389.872 155.445L390.192 154.633L386.723 145.992Z" fill="#141526"/>
<g filter="url(#filter4_d_2274_2074)">
<rect x="203" y="24" width="120" height="49" rx="4" fill="white"/>
</g>
<path d="M252.149 54H250.414V43.292H256.456V44.7715H252.149V48.1187H256.185V49.6055H252.149V54Z" fill="black"/>
<path d="M258.247 43.292H261.426C262.9 43.292 263.965 43.5068 264.619 43.9365C265.278 44.3662 265.608 45.0449 265.608 45.9727C265.608 46.5977 265.447 47.1177 265.124 47.5327C264.802 47.9478 264.338 48.209 263.733 48.3164V48.3896C264.485 48.5312 265.037 48.812 265.388 49.2319C265.745 49.647 265.923 50.2109 265.923 50.9238C265.923 51.8857 265.586 52.6401 264.912 53.187C264.243 53.729 263.31 54 262.114 54H258.247V43.292ZM259.997 47.7158H261.682C262.414 47.7158 262.949 47.6011 263.286 47.3716C263.623 47.1372 263.791 46.7417 263.791 46.1851C263.791 45.6821 263.608 45.3184 263.242 45.0938C262.881 44.8691 262.305 44.7568 261.514 44.7568H259.997V47.7158ZM259.997 49.1367V52.5278H261.858C262.59 52.5278 263.142 52.3887 263.513 52.1104C263.889 51.8271 264.077 51.3828 264.077 50.7773C264.077 50.2207 263.887 49.8081 263.506 49.5396C263.125 49.271 262.546 49.1367 261.77 49.1367H259.997Z" fill="black"/>
<path d="M274.642 54L273.573 51.0264H269.479L268.431 54H266.586L270.592 43.248H272.496L276.503 54H274.642ZM273.112 49.5176L272.108 46.6025C272.035 46.4072 271.932 46.0996 271.801 45.6797C271.674 45.2598 271.586 44.9521 271.537 44.7568C271.405 45.3574 271.212 46.0142 270.958 46.7271L269.992 49.5176H273.112Z" fill="black"/>
<g filter="url(#filter5_d_2274_2074)">
<rect x="197" y="127" width="70" height="70" rx="35" fill="#0058FF"/>
</g>
<circle cx="232" cy="162" r="26" fill="#0058FF"/>
<mask id="mask0_2274_2074" style="mask-type:alpha" maskUnits="userSpaceOnUse" x="206" y="136" width="52" height="52">
<circle cx="232" cy="162" r="26" fill="#76CFB7"/>
</mask>
<g mask="url(#mask0_2274_2074)">
<rect x="256.569" y="143.8" width="7.8" height="32.5688" transform="rotate(45 256.569 143.8)" fill="white"/>
<rect x="223.08" y="156.376" width="7.8" height="22.5788" transform="rotate(-45 223.08 156.376)" fill="white"/>
<rect x="228.564" y="150.886" width="7.8" height="33.723" transform="rotate(45 228.564 150.886)" fill="white"/>
</g>
<defs>
<filter id="filter0_d_2274_2074" x="271" y="199" width="146" height="120" filterUnits="userSpaceOnUse" color-interpolation-filters="sRGB">
<feFlood flood-opacity="0" result="BackgroundImageFix"/>
<feColorMatrix in="SourceAlpha" type="matrix" values="0 0 0 0 0 0 0 0 0 0 0 0 0 0 0 0 0 0 127 0" result="hardAlpha"/>
<feOffset dy="6"/>
<feGaussianBlur stdDeviation="15"/>
<feColorMatrix type="matrix" values="0 0 0 0 0 0 0 0 0 0 0 0 0 0 0 0 0 0 0.2 0"/>
<feBlend mode="normal" in2="BackgroundImageFix" result="effect1_dropShadow_2274_2074"/>
<feBlend mode="normal" in="SourceGraphic" in2="effect1_dropShadow_2274_2074" result="shape"/>
</filter>
<filter id="filter1_d_2274_2074" x="0" y="73" width="190" height="120" filterUnits="userSpaceOnUse" color-interpolation-filters="sRGB">
<feFlood flood-opacity="0" result="BackgroundImageFix"/>
<feColorMatrix in="SourceAlpha" type="matrix" values="0 0 0 0 0 0 0 0 0 0 0 0 0 0 0 0 0 0 127 0" result="hardAlpha"/>
<feOffset dy="6"/>
<feGaussianBlur stdDeviation="15"/>
<feColorMatrix type="matrix" values="0 0 0 0 0 0 0 0 0 0 0 0 0 0 0 0 0 0 0.2 0"/>
<feBlend mode="normal" in2="BackgroundImageFix" result="effect1_dropShadow_2274_2074"/>
<feBlend mode="normal" in="SourceGraphic" in2="effect1_dropShadow_2274_2074" result="shape"/>
</filter>
<filter id="filter2_d_2274_2074" x="54" y="211" width="190" height="110" filterUnits="userSpaceOnUse" color-interpolation-filters="sRGB">
<feFlood flood-opacity="0" result="BackgroundImageFix"/>
<feColorMatrix in="SourceAlpha" type="matrix" values="0 0 0 0 0 0 0 0 0 0 0 0 0 0 0 0 0 0 127 0" result="hardAlpha"/>
<feOffset dy="6"/>
<feGaussianBlur stdDeviation="15"/>
<feColorMatrix type="matrix" values="0 0 0 0 0 0 0 0 0 0 0 0 0 0 0 0 0 0 0.2 0"/>
<feBlend mode="normal" in2="BackgroundImageFix" result="effect1_dropShadow_2274_2074"/>
<feBlend mode="normal" in="SourceGraphic" in2="effect1_dropShadow_2274_2074" result="shape"/>
</filter>
<filter id="filter3_d_2274_2074" x="287" y="99" width="160" height="110" filterUnits="userSpaceOnUse" color-interpolation-filters="sRGB">
<feFlood flood-opacity="0" result="BackgroundImageFix"/>
<feColorMatrix in="SourceAlpha" type="matrix" values="0 0 0 0 0 0 0 0 0 0 0 0 0 0 0 0 0 0 127 0" result="hardAlpha"/>
<feOffset dy="6"/>
<feGaussianBlur stdDeviation="15"/>
<feColorMatrix type="matrix" values="0 0 0 0 0 0 0 0 0 0 0 0 0 0 0 0 0 0 0.2 0"/>
<feBlend mode="normal" in2="BackgroundImageFix" result="effect1_dropShadow_2274_2074"/>
<feBlend mode="normal" in="SourceGraphic" in2="effect1_dropShadow_2274_2074" result="shape"/>
</filter>
<filter id="filter4_d_2274_2074" x="173" y="0" width="180" height="109" filterUnits="userSpaceOnUse" color-interpolation-filters="sRGB">
<feFlood flood-opacity="0" result="BackgroundImageFix"/>
<feColorMatrix in="SourceAlpha" type="matrix" values="0 0 0 0 0 0 0 0 0 0 0 0 0 0 0 0 0 0 127 0" result="hardAlpha"/>
<feOffset dy="6"/>
<feGaussianBlur stdDeviation="15"/>
<feColorMatrix type="matrix" values="0 0 0 0 0 0 0 0 0 0 0 0 0 0 0 0 0 0 0.2 0"/>
<feBlend mode="normal" in2="BackgroundImageFix" result="effect1_dropShadow_2274_2074"/>
<feBlend mode="normal" in="SourceGraphic" in2="effect1_dropShadow_2274_2074" result="shape"/>
</filter>
<filter id="filter5_d_2274_2074" x="177" y="113" width="110" height="110" filterUnits="userSpaceOnUse" color-interpolation-filters="sRGB">
<feFlood flood-opacity="0" result="BackgroundImageFix"/>
<feColorMatrix in="SourceAlpha" type="matrix" values="0 0 0 0 0 0 0 0 0 0 0 0 0 0 0 0 0 0 127 0" result="hardAlpha"/>
<feOffset dy="6"/>
<feGaussianBlur stdDeviation="10"/>
<feComposite in2="hardAlpha" operator="out"/>
<feColorMatrix type="matrix" values="0 0 0 0 0 0 0 0 0 0 0 0 0 0 0 0 0 0 0.2 0"/>
<feBlend mode="normal" in2="BackgroundImageFix" result="effect1_dropShadow_2274_2074"/>
<feBlend mode="normal" in="SourceGraphic" in2="effect1_dropShadow_2274_2074" result="shape"/>
</filter>
</defs>
</svg>
