<?xml version="1.0" encoding="UTF-8"?> <svg xmlns="http://www.w3.org/2000/svg" id="logo" width="170" height="49" viewBox="0 0 170 49"><defs><style> .cls-1 { fill: #003a66; } .cls-2 { fill: #e02454; } </style></defs><path id="Truvik" class="cls-1" d="M57.563,11.611v4.256h7.372V38.439h5.358V15.867H77.7V11.611H57.563Zm27.7,9.8V17.387H79.907V38.439h5.358V28.293q0-5.472,5.89-5.472h1.558V17.083a8.28,8.28,0,0,0-4.332,1.159,8.808,8.808,0,0,0-3.116,3.173h0ZM109.7,17.387V28.559a6.053,6.053,0,0,1-1.368,4.256,4.773,4.773,0,0,1-3.686,1.482,4.545,4.545,0,0,1-3.5-1.387,5.5,5.5,0,0,1-1.292-3.895V17.387h-5.32V29.623A9.612,9.612,0,0,0,96.7,36.311a7.454,7.454,0,0,0,5.814,2.394,8.189,8.189,0,0,0,4.427-1.2,6.706,6.706,0,0,0,2.755-3.325v4.256h5.358V17.387H109.7Zm13.262,0h-5.738l7.79,21.052h6.536l7.79-21.052h-5.7l-5.32,15.694Zm17.973-6.042a2.659,2.659,0,0,0,.912,2.071,3.916,3.916,0,0,0,4.788,0,2.659,2.659,0,0,0,.912-2.071,2.7,2.7,0,0,0-.912-2.109,3.916,3.916,0,0,0-4.788,0,2.7,2.7,0,0,0-.912,2.109h0Zm0.608,6.042V38.439H146.9V17.387h-5.358Zm28.31,21.052L160.77,27.875l8.854-10.488h-6.346l-6.916,8.74V10.319H151v28.12h5.358v-9.2l6.954,9.2h6.536Z" transform="translate(-0.094 -0.25)"></path><path id="icon" class="cls-2" d="M12.189,20.99a67.766,67.766,0,0,0,9.693-.709,60.675,60.675,0,0,0,23.557-8.327l0.013-.008A24.542,24.542,0,0,0,.5,19.857H0.509A58.834,58.834,0,0,0,12.189,20.99Zm36.8,1.892C43.327,32.716,34.067,42,22.777,49.155c0.582,0.042,1.168.066,1.761,0.066A24.5,24.5,0,0,0,49.061,24.736C49.061,24.112,49.035,23.495,48.989,22.883Zm-2.364-3.775C39.6,26.965,29.335,33.5,17.433,37.643A81.548,81.548,0,0,1,5.966,40.724a24.622,24.622,0,0,0,6.785,5.488,0.607,0.607,0,0,1,.283-0.267A90.221,90.221,0,0,0,23.41,40.379,81.378,81.378,0,0,0,46.625,19.107Zm-5.468-.363a62.633,62.633,0,0,1-22.876,7.788,69,69,0,0,1-9.871.722A62.191,62.191,0,0,1,.092,26.7a24.32,24.32,0,0,0,1.682,7.153,0.6,0.6,0,0,1,.177-0.045,77.429,77.429,0,0,0,18.335-4.035A75.179,75.179,0,0,0,41.157,18.744Z" transform="translate(-0.094 -0.25)"></path></svg> 