<?xml version="1.0" encoding="UTF-8"?>
<svg width="177px" height="192px" viewBox="0 0 177 192" version="1.1" xmlns="http://www.w3.org/2000/svg" xmlns:xlink="http://www.w3.org/1999/xlink">
    <!-- Generator: Sketch 46.2 (44496) - http://www.bohemiancoding.com/sketch -->
    <title>startup-found</title>
    <desc>Created with Sketch.</desc>
    <defs></defs>
    <g id="Page-1" stroke="none" stroke-width="1" fill="none" fill-rule="evenodd">
        <g id="Desktop-HD-Copy-3" transform="translate(-938.000000, -1279.000000)">
            <g id="startup-found" transform="translate(937.820312, 1261.738281)">
                <path d="M68.021866,111.572134 L68.021866,111.572134 C68.3745682,111.952819 68.9744535,111.976138 69.3545557,111.623436 L74.4661144,106.890814 C74.8467996,106.538695 74.8695358,105.938809 74.5174166,105.558124 L74.5174166,105.558124 C74.1647143,105.177439 73.5648291,105.15412 73.1841439,105.506822 L68.0731681,110.239444 C67.6924829,110.591564 67.6691638,111.191449 68.021866,111.572134" id="Fill-1" fill="#AA6739"></path>
                <path d="M67.9672409,108.437457 L68.7764155,107.688329 C69.1291177,108.069014 68.9198283,108.841461 69.2999306,108.488759 L75.220664,103.007009 C75.6013492,102.654306 75.6240854,102.054421 75.2719661,101.673736 C74.9192639,101.293051 74.3193786,101.270314 73.9386934,101.622434 L68.018543,107.104767 C67.6378578,107.456886 67.6145386,108.056772 67.9672409,108.437457" id="Fill-3" fill="#AA6739"></path>
                <path d="M66.5019818,106.534555 L67.9605949,105.183793 C68.3132971,105.564479 67.4545692,106.93856 67.8346715,106.585858 L74.4048433,100.502473 C74.7855285,100.150354 74.8082647,99.5504685 74.4561455,99.1697833 C74.1034433,98.7890981 73.503558,98.7657789 73.1228728,99.1184812 L66.5532839,105.201866 C66.1725987,105.553985 66.1492795,106.15387 66.5019818,106.534555" id="Fill-5" fill="#823C19"></path>
                <path d="M63.9478347,105.677052 L63.9478347,105.677052 C64.3005369,106.057737 64.6975456,106.268192 65.0782308,105.91549 L72.0104325,99.4974757 C72.3911177,99.1447735 72.4138539,98.5448883 72.0617347,98.1642031 C71.7090324,97.7835178 71.1091472,97.7607817 70.728462,98.1129009 L63.7968432,104.531498 C63.416158,104.883618 63.5951325,105.296367 63.9478347,105.677052" id="Fill-7" fill="#AA6739"></path>
                <path d="M59.5731613,106.591279 L59.5731613,106.591279 C59.9258635,106.971964 60.5257488,106.995284 60.905851,106.642581 L66.0174097,101.909959 C66.3980949,101.55784 66.4208311,100.957954 66.0687119,100.577269 L66.0687119,100.577269 C65.7160096,100.196584 65.1161244,100.173265 64.7354392,100.525967 L59.6244634,105.25859 C59.2437782,105.610709 59.2204591,106.210594 59.5731613,106.591279" id="Fill-9" fill="#AA6739"></path>
                <path d="M60.2618342,104.684006 C59.9003873,105.018635 59.5989872,105.257074 59.3232382,105.637759 C57.9293357,107.563921 58.1619443,110.440922 60.0642044,112.495339 C62.1285326,114.724651 65.8117931,114.866315 68.0411043,112.801986 C68.9721215,111.939761 70.1975431,110.805284 71.0621008,110.004854" id="Fill-11" fill="#AA6739"></path>
                <path d="M69.0979867,110.93523 C69.0979867,110.93523 71.2876553,107.697948 67.8649864,104.225726 C67.1426755,103.493504 65.6998028,102.799177 65.6998028,102.799177 L63.1941596,105.119432 L61.9955551,103.846207 L60.3888653,110.376736 L66.5975903,111.272774 L69.0979867,110.93523 Z" id="Fill-13" fill="#AA6739"></path>
                <polygon id="Fill-15" fill="#AA6739" points="58.2154035 117.957385 53.4985214 112.523439 58.2981865 108.625059 63.0156515 114.059005"></polygon>
                <polygon id="Fill-17" fill="#0743BD" points="25.3149909 150.326004 16.9795589 140.578598 54.4954153 108.841228 62.8308472 118.588635"></polygon>
                <g id="Group-21" transform="translate(2.699399, 178.847313)" fill="#1D365B">
                    <polygon id="Fill-19" points="0.947258216 30.3863035 0.455224048 0 15.9041641 1.45744718 15.9041641 30.3863035"></polygon>
                </g>
                <polygon id="Fill-22" fill="#274575" points="38.3409447 209.17671 24.123965 172.719039 10.3330168 178.229938 23.0128268 209.17671"></polygon>
                <polygon id="Fill-30" fill="#AA6739" points="20.0900427 140.964588 28.1357341 142.336337 29.9645388 131.608943 21.9188474 130.237194"></polygon>
                <path d="M34.3477638,193.829332 L39.2366429,152.424262 C40.171158,146.945427 36.4529188,141.698617 30.9740834,140.764685 L22.3925781,140.764685 C16.9143257,139.830169 11.6675158,143.548409 10.7330007,149.027244 L0.767578125,186.921875 L34.3477638,193.829332 Z" id="Fill-32" fill="#1560FA"></path>
                <polygon id="Fill-68" fill="#ADADAD" points="17.9339905 141.066252 31.6059168 141.066252 31.6059168 137.794522 17.9339905 137.794522"></polygon>
                <path d="M98.8078725,134.760469 C96.8986167,137.838597 98.547864,141.818594 102.074886,142.644092 C104.210338,143.144288 106.490951,142.199279 107.646998,140.335495 C109.556254,137.257367 107.907007,133.276787 104.380568,132.451289 C102.244533,131.951093 99.9639196,132.896685 98.8078725,134.760469" id="Fill-34" fill="#E0B873"></path>
                <polygon id="Fill-36" fill="#2D2D2D" points="176.724938 208.267119 173.739623 208.267119 3.80662666 38.1838972 5.40748664 36.5830372"></polygon>
                <polygon id="Fill-7" fill="#ED588E" transform="translate(38.242219, 34.118331) rotate(-46.000000) translate(-38.242219, -34.118331) " points="12.6441316 55.8595385 13.1135772 12.3771228 63.840306 36.3655033"></polygon>
                <path d="M106.48483,141.065385 C104.530685,144.215803 106.218991,148.289076 109.828214,149.134396 C112.013801,149.645668 114.348049,148.678506 115.531496,146.770999 C117.485641,143.620581 115.797334,139.547308 112.188112,138.701989 C110.002524,138.190133 107.668277,139.157878 106.48483,141.065385" id="Fill-39" fill="#FCD486"></path>
                <path d="M97.0575368,134.080948 C96.3550472,135.213676 96.9619282,136.678119 98.2596392,136.981851 C99.0454947,137.166073 99.8849843,136.818034 100.309976,136.132451 C101.013048,134.999723 100.406167,133.53528 99.1078735,133.230965 C98.3220179,133.047327 97.4831113,133.394782 97.0575368,134.080948" id="Fill-41" fill="#FCD486"></path>
                <path d="M108.238255,138.832576 C107.230868,139.981627 105.007386,139.680227 103.272441,138.159235 C101.537496,136.63766 100.947522,134.47306 101.954909,133.324009 C102.962297,132.174957 105.185778,132.476357 106.920723,133.997349 C108.656251,135.518924 109.245643,137.683525 108.238255,138.832576" id="Fill-43" fill="#FCD486"></path>
                <polygon id="Fill-45" fill="#E0B873" points="98.9390428 146.145754 95.511127 142.173336 100.954984 137.476276 104.382899 141.448694"></polygon>
                <polygon id="Fill-47" fill="#FCD486" points="105.35181 152.364157 101.923895 148.391739 107.367751 143.694678 110.795667 147.667096"></polygon>
                <path d="M67.3449109,168.966404 L67.3449109,168.966404 C69.1165837,171.245851 72.3952569,171.669094 74.6875298,169.914328 L103.728039,147.737228 L97.2779611,139.439107 L68.2998303,161.568402 C65.9830723,163.341824 65.5545828,166.663055 67.3449109,168.966404" id="Fill-49" fill="#A02900"></path>
                <path d="M73.3520418,194.646215 C73.3520418,194.646215 79.1567624,185.640941 81.5714609,178.790356 C81.8897674,177.886739 82.2162355,175.989725 82.4313547,175.056376 C83.7558827,169.308788 80.1367499,163.523305 74.3891612,162.198777 L64.3654225,160.550113 C58.6178338,159.226168 52.8317685,162.845301 51.5078235,168.592307 C51.2927043,169.526239 50.7598616,171.374865 50.6473467,172.326286 C49.9431082,178.301237 53.0253175,190.785146 53.0253175,190.785146 L73.3520418,194.646215 Z" id="Fill-51" fill="#CE3F00"></path>
                <path d="M72.4646314,171.618258 L72.4646314,171.618258 C74.1657637,173.950757 77.4298624,174.474272 79.7751864,172.790629 L109.480292,151.5119 L103.287307,143.02023 L73.6457466,164.252903 C71.2753545,165.954619 70.7454267,169.261275 72.4646314,171.618258" id="Fill-53" fill="#CE3F00"></path>
                <path d="M94.1663114,198.033731 L105.65391,208.466137" id="Fill-55" fill="#494949"></path>
                <polygon id="Fill-57" fill="#B57637" points="140.540648 187.865938 143.018308 194.408127 151.196336 191.311343 148.718676 184.769154"></polygon>
                <path d="M118.740911,208.79622 L104.400797,204.933985" id="Fill-59" fill="#727272"></path>
                <path d="M138.024803,153.088683 L130.65595,145.766468 C129.04926,144.388889 126.566936,145.537941 126.57743,147.654737 L126.60483,153.122496 C126.611826,154.486666 127.723566,155.58733 129.087737,155.580335 L136.42919,157.43479 C138.786756,157.396314 139.735263,154.781071 138.024803,153.088683" id="Fill-61" fill="#B57637"></path>
                <path d="M115.417057,145.64585 C109.658392,149.770426 108.333864,157.782304 112.458439,163.540969 C116.583015,169.299635 124.595477,170.624163 130.353559,166.499587 C136.112224,162.375012 137.436752,154.36255 133.312177,148.604468 C129.187601,142.845803 121.175722,141.521275 115.417057,145.64585" id="Fill-63" fill="#CE8A41"></path>
                <polygon id="Fill-65" fill="#CE8A41" points="110.556063 172.063946 118.414618 174.268189 121.353414 163.79031 113.494859 161.586066"></polygon>
                <path d="M87.9133383,208.237247 L96.723315,176.631527 C98.2244856,171.280364 103.830993,168.129946 109.182156,169.631117 L121.389734,173.144147 C126.74148,174.645318 129.891315,180.251243 128.390727,185.602406 L122.25779,208.369 L87.9133383,208.237247 Z" id="Fill-67" fill="#59AA66"></path>
                <polygon id="Fill-69" fill="#89CC91" points="109.567039 169.833643 119.670646 172.667504 120.457667 169.861043 110.354061 167.027183"></polygon>
                <path d="M124.560556,155.316537 C124.808905,153.926132 124.909177,153.049915 124.909177,153.049915 C125.496237,152.868608 128.07417,153.965192 128.07417,153.965192 C128.07417,153.965192 127.81591,155.149222 128.310276,156.171184 C129.10371,157.811686 131.168622,159.890006 135.663389,157.239201 C135.663389,157.239201 135.413874,165.929667 126.415012,168.55074 C123.916364,169.278298 121.809479,168.983893 120.121755,168.574059 C120.121755,168.574059 122.813951,165.090761 124.560556,155.316537" id="Fill-71" fill="#000000"></path>
                <path d="M132.539088,164.754673 C132.539088,164.754673 128.366126,169.689589 128.494381,171.884505 C128.494381,171.884505 121.254949,167.956976 123.616014,161.15303" id="Fill-73" fill="#000000"></path>
                <path d="M123.891121,138.725716 L128.711191,139.522648 C130.568561,139.798397 131.893089,141.31181 131.64474,143.172096 L131.125306,146.313186 L131.040774,146.299194 C130.119085,146.147037 129.248114,146.770824 129.095957,147.692514 L127.978386,154.45332 C127.876365,155.068363 127.295718,155.48461 126.680675,155.383171 L125.665126,155.215273 C125.050083,155.113835 124.626258,155.258414 124.737024,154.248694 L124.923577,152.780754 C125.275113,150.654047 123.527926,148.645684 121.149955,149.027536 C119.758384,149.250816 118.689201,150.387625 118.458924,151.77803 L118.281699,152.850711 C118.18026,153.465754 117.599031,153.882001 116.983988,153.779979 L110.477361,152.704383 L111.098816,147.816105 C111.408378,145.969811 113.045383,136.932473 123.891121,138.725716" id="Fill-75" fill="#000000"></path>
                <path d="M133.900461,145.899504 C132.083898,147.233943 129.529285,146.843347 128.194263,145.026785 C126.859825,143.210223 127.250421,140.655609 129.066983,139.321171 C130.883545,137.986149 133.438158,138.376745 134.77318,140.193307 C136.107619,142.009869 135.717023,144.565065 133.900461,145.899504" id="Fill-77" fill="#000000"></path>
                <path d="M144.554982,180.706666 C143.341803,183.636718 144.733374,186.995259 147.663426,188.208438 C150.593478,189.421617 153.952019,188.030046 155.165198,185.099995 C156.378377,182.169943 154.986806,178.811401 152.056755,177.598222 C149.126703,176.385043 145.768162,177.776614 144.554982,180.706666" id="Fill-79" fill="#B57637"></path>
                <path d="M151.061901,186.163231 C149.820156,189.162075 151.244374,192.599318 154.243217,193.841063 C157.24206,195.082225 160.679304,193.658008 161.921049,190.659747 C163.162211,187.660904 161.737993,184.223661 158.739733,182.981916 C155.74089,181.740171 152.303646,183.164388 151.061901,186.163231" id="Fill-81" fill="#CE8A41"></path>
                <path d="M72.5540603,108.432735 C71.3123153,111.431578 72.7365327,114.868821 75.735376,116.110566 C78.7342193,117.351728 82.1714628,115.927511 83.4132078,112.929251 C84.6543698,109.930407 83.2301524,106.493164 80.2318921,105.251419 C77.2330487,104.009674 73.7958053,105.433891 72.5540603,108.432735" id="Fill-83" fill="#AA6739"></path>
                <polygon id="Fill-85" fill="#59AA66" points="122.830858 173.597646 116.19889 185.885675 137.463627 199.450428 159.859927 193.474894 154.321628 186.090884 141.30196 186.770637"></polygon>
                <polygon id="Fill-87" fill="#1560FA" points="37.751854 153.629571 29.4164221 143.882164 66.9322785 112.144794 75.2677104 121.892201"></polygon>
                <polygon id="Fill-89" fill="#000000" points="57.5394978 157.406166 72.4579271 150.668096 69.8339392 133.789692 54.9026843 140.440898"></polygon>
                <polygon id="Fill-91" fill="#FCD486" points="63.6298781 162.685856 70.7113224 161.585192 68.9373177 150.173381 61.8558733 151.274045"></polygon>
                <path d="M77.5009275,136.070014 L70.1944533,132.257915 C68.6524742,131.592736 67.0428696,133.047852 67.5488952,134.648711 L68.8576828,138.784364 C69.184151,139.816236 70.285398,140.388721 71.3172706,140.062253 L77.3155403,139.738117 C79.0924599,139.153972 79.1956471,136.949146 77.5009275,136.070014" id="Fill-93" fill="#D6A651"></path>
                <path d="M49.8954205,143.976723 C51.0497187,151.404457 58.0075715,156.490365 65.4353053,155.335484 C72.8630391,154.181185 77.9483638,147.223333 76.7940657,139.795599 C75.6397675,132.367865 68.6819147,127.28254 61.2541809,128.436838 C53.826447,129.59172 48.7411223,136.548989 49.8954205,143.976723" id="Fill-95" fill="#FCD486"></path>
                <path d="M55.2444266,152.824535 C49.1756165,148.388649 47.8522545,139.873077 52.2881407,133.804267 C56.7240269,127.735457 65.2395993,126.412094 71.3084094,130.847981 L55.2444266,152.824535 Z" id="Fill-97" fill="#000000"></path>
                <polygon id="Fill-99" fill="#000000" points="49.7960226 172.595448 68.0624996 172.595448 68.3137635 133.309667 49.7960226 140.640627"></polygon>
                <path d="M71.3081762,130.847864 L72.0654657,135.719819 C72.2304487,136.78084 71.4865677,137.777151 70.4039759,137.945632 L65.5110343,138.705836 C65.5110343,138.705836 69.9125248,132.717477 71.3081762,130.847864" id="Fill-101" fill="#000000"></path>
                <path d="M71.0004216,140.739558 C71.0004216,142.188261 69.8257192,143.362963 68.3770167,143.362963 C66.9283142,143.362963 65.7536118,142.188261 65.7536118,140.739558 C65.7536118,139.290856 66.9283142,138.116153 68.3770167,138.116153 C69.8257192,138.116153 71.0004216,139.290856 71.0004216,140.739558" id="Fill-103" fill="#FCD486"></path>
                <polygon id="Fill-105" fill="#AA6739" points="73.3728541 119.706322 68.6559721 114.272376 73.4556371 110.373996 78.1731022 115.807942"></polygon>
                <path d="M53.0252592,190.785321 C52.2399866,192.432819 44.6612613,209.259775 44.6612613,209.259775 L70.6038211,209.259775 L73.3519835,194.64639 L53.0252592,190.785321 Z" id="Fill-107" fill="#A02900"></path>
                <g id="Group-9" transform="translate(25.625768, 122.220683) rotate(-21.000000) translate(-25.625768, -122.220683) translate(9.625768, 108.220683)">
                    <path d="M29.6810597,9.16898587 L20.4466278,2.81521053 C18.4753579,1.66235134 16.0615124,3.36069338 16.4805983,5.60563683 L17.5633613,11.4053537 C17.8336792,12.8523933 19.2259095,13.8065223 20.6729491,13.5362044 L28.8246181,14.0902628 C31.3201183,13.5954879 31.8234688,10.6357867 29.6810597,9.16898587" id="Fill-20" fill="#8E5229"></path>
                    <path d="M24.5462876,23.6645496 C19.2275501,29.1533077 10.4662677,29.2908902 4.97750959,23.9721527 C-0.511248511,18.6530424 -0.653678074,10.335827 4.6650594,4.84706891 C9.98379688,-0.641689192 18.7450793,-0.779271676 24.2338374,4.5394658 C29.7225955,9.85857613 29.865025,18.1757915 24.5462876,23.6645496" id="Fill-21" fill="#AA6739"></path>
                </g>
                <g id="Page-1" transform="translate(21.593999, 119.285941) rotate(-30.000000) translate(-21.593999, -119.285941) translate(7.093999, 105.285941)" fill="#000000">
                    <path d="M2.28310826,16.3443304 C1.77440047,16.5138997 0.500616881,20.844519 2.79567065,25.3932683 C2.79567065,25.3932683 5.6783481,24.3758527 7.20447146,24.7149912 C7.20447146,24.7149912 9.2393026,17.0843744 14.1568112,15.2191126 C19.0743198,13.3538507 2.96523992,16.5756666 2.96523992,16.5756666" id="Fill-1" transform="translate(8.280122, 20.015641) rotate(-18.000000) translate(-8.280122, -20.015641) "></path>
                    <path d="M28.2875604,1.31443309 C28.7392929,1.7987229 28.7515019,3.90138175 27.4776976,7.63258378 C26.1414918,11.5442075 22.7039837,14.3678749 18.6065121,14.9186358 C11.7918626,15.8343098 2.78095204,17.3950253 2.28716635,19.2887748 C1.77845857,21.2388213 -1.27378814,9.11461913 4.32199749,4.53624906 C9.91778313,-0.0421210046 25.9135907,-1.22910584 28.2875604,1.31443309" id="Fill-3"></path>
                </g>
            </g>
        </g>
    </g>
</svg>