<svg width="467" height="305" viewBox="0 0 467 305" fill="none" xmlns="http://www.w3.org/2000/svg">
    <path opacity="0.12" fill-rule="evenodd" clip-rule="evenodd" d="M153.668 58.9175H38.5654C34.5049 58.9175 31.2139 63.5726 31.2139 69.3149V122.547C31.2139 128.289 34.5049 132.944 38.5654 132.944H58.775L73.9786 146.445V132.944H153.668C157.051 132.944 159.786 129.061 159.786 124.275V67.5774C159.786 62.7921 157.042 58.9082 153.668 58.9082V58.9175Z" fill="#C7DBFF"/>
    <path fill-rule="evenodd" clip-rule="evenodd" d="M25.707 109.391C25.707 113.219 27.9041 116.322 30.6018 116.322H53.2589L68.4624 129.786V116.322H149.375C152.082 116.322 154.27 113.219 154.27 109.391V49.3847C154.27 45.5566 152.073 42.4531 149.375 42.4531H30.6018C27.8949 42.4531 25.707 45.5566 25.707 49.3847V109.4V109.391Z" fill="#E7EEF6"/>
    <path opacity="0.12" fill-rule="evenodd" clip-rule="evenodd" d="M276.084 39.377H362.114C364.645 39.377 366.693 42.0715 366.693 45.398V84.7948C366.693 88.1212 364.645 90.8158 362.114 90.8158H346.094L334.729 100.191V90.8158H276.084C273.052 90.8158 270.596 87.5823 270.596 83.5869V46.6059C270.596 42.6198 273.052 39.377 276.084 39.377Z" fill="#E5E9F3"/>
    <path fill-rule="evenodd" clip-rule="evenodd" d="M278.374 27.9395H367.148C369.169 27.9395 370.81 30.0951 370.81 32.7526V74.4444C370.81 77.1018 369.169 79.2575 367.148 79.2575H350.211L338.846 88.6142V79.2575H278.365C276.344 79.2575 274.703 77.1018 274.703 74.4444V32.7526C274.703 30.0951 276.344 27.9395 278.365 27.9395H278.374Z" fill="#00B77E"/>
    <path d="M285.393 42.2109L341.98 42.4432" stroke="white" stroke-width="1.1"/>
    <path d="M285.393 47.7871L324.894 48.0287" stroke="white" stroke-width="1.1"/>
    <path d="M285.393 53.3613L333.432 53.6029" stroke="white" stroke-width="1.1"/>
    <path d="M285.393 58.9453L303.535 59.1869" stroke="white" stroke-width="1.1"/>
    <path d="M285.393 64.5215L316.356 64.7631" stroke="white" stroke-width="1.1"/>
    <path d="M407.743 281.453C414.783 281.453 420.49 274.818 420.49 266.633C420.49 258.448 414.783 251.812 407.743 251.812C400.703 251.812 394.996 258.448 394.996 266.633C394.996 274.818 400.703 281.453 407.743 281.453Z" fill="#00B77E"/>
    <path d="M394.427 246.758C405.303 244.241 411.633 231.411 408.567 218.101C405.502 204.79 394.2 196.04 383.324 198.557C372.449 201.073 366.118 213.903 369.184 227.214C372.25 240.524 383.552 249.274 394.427 246.758Z" fill="#40C5C4"/>
    <path d="M383.361 198.553L405.935 278.963" stroke="#19243D" stroke-width="1.1"/>
    <path d="M392.975 233.332L406.408 212.082" stroke="#19243D" stroke-width="1.1"/>
    <path d="M390.147 222.656L368.844 218.289" stroke="#19243D" stroke-width="1.1"/>
    <path d="M442.227 244.512C445.285 231.236 438.947 218.434 428.072 215.918C417.196 213.401 405.901 222.123 402.843 235.398C399.786 248.674 406.123 261.476 416.998 263.992C427.874 266.509 439.169 257.787 442.227 244.512Z" fill="#E5E9F3"/>
    <path d="M428.056 215.91L411.73 273.909" stroke="#19243D" stroke-width="1.1"/>
    <path d="M418.443 250.597L405.01 229.412" stroke="#19243D" stroke-width="1.1"/>
    <path d="M421.27 239.948L442.573 235.6" stroke="#19243D" stroke-width="1.1"/>
    <path fill-rule="evenodd" clip-rule="evenodd" d="M400.957 296.786H417.078L422.529 272.256H396.016L400.957 296.786Z" fill="#19243D"/>
    <path fill-rule="evenodd" clip-rule="evenodd" d="M151.609 296.627L151.59 296.729H105.831L105.775 296.627H151.609Z" fill="#19243D"/>
    <path fill-rule="evenodd" clip-rule="evenodd" d="M124.549 296.729L124.53 296.626L124.354 295.288L124.289 294.777L133.856 295.065L141.115 295.288L144.054 295.381L154.242 295.688L164.439 295.995L174.637 296.31L184.835 296.617L186.392 296.664L186.41 296.729H124.549Z" fill="#85B0FF"/>
    <path d="M171.319 296.627L171.328 296.729H170.299V296.701L171.319 296.627Z" fill="#19243D"/>
    <path fill-rule="evenodd" clip-rule="evenodd" d="M91.7399 253.57L82.6363 271.782C78.8354 279.392 71.0668 284.205 62.575 284.205C54.0833 284.205 45.6193 280.117 40.3352 273.148L5.69141 227.442L18.5774 220.604L60.8971 253.58L65.4859 239.967L91.7307 253.58L91.7399 253.57Z" fill="#FE9C9A"/>
    <path fill-rule="evenodd" clip-rule="evenodd" d="M217.197 210.549C217.197 210.549 217.197 210.596 217.188 210.614C216.9 213.643 216.15 216.598 214.972 219.395L207.129 238.052L200.075 254.843L198.703 266.086L198.665 266.364L197.664 274.522C197.266 277.802 196.431 280.98 195.217 283.991C193.724 287.717 191.648 291.182 189.033 294.267C188.737 294.611 188.44 294.955 188.134 295.289C187.689 295.782 187.226 296.265 186.753 296.73H105.831L105.775 296.627L105.646 296.386C105.442 296.023 105.247 295.661 105.062 295.289C104.876 294.955 104.7 294.611 104.533 294.267C104.097 293.394 103.69 292.511 103.309 291.619C100.352 284.734 98.943 277.263 99.2026 269.737L100.278 238.173L94.3356 251.07L91.4154 257.398L90.1361 256.766L84.0176 253.755L74.0333 248.84L64.1417 243.971L63.5762 243.693L71.7713 213.151C71.9659 212.417 72.1792 211.692 72.4109 210.967C72.9023 209.415 73.4585 207.901 74.0889 206.433C74.8769 204.556 75.7761 202.744 76.7773 200.997C79.7161 195.859 83.4984 191.315 87.9204 187.543C91.1744 184.755 94.7806 182.386 98.6371 180.5C101.956 178.874 105.469 177.601 109.122 176.727C112.45 175.928 115.899 175.454 119.421 175.352C119.978 175.334 120.534 175.324 121.09 175.324L129.619 175.343H139.817L150.014 175.371L158.867 175.389H166.274L170.372 175.789L180.495 176.755L190.109 177.675C190.276 177.694 190.452 177.712 190.619 177.74C194.197 178.13 197.553 179.143 200.603 180.667C204.339 182.516 207.611 185.118 210.244 188.249C215.278 194.224 217.994 202.149 217.197 210.549Z" fill="#2760CB"/>
    <path fill-rule="evenodd" clip-rule="evenodd" d="M128.84 275.285L94.6133 229.486L151.488 253.58H192.917L198.387 257.129L190.368 270.686C184.018 281.418 172.893 288.424 160.489 289.492C148.197 290.551 136.228 285.181 128.831 275.285H128.84Z" fill="#19243D"/>
    <path fill-rule="evenodd" clip-rule="evenodd" d="M52.8696 188.555H10.04L15.7877 246.869H58.6173L52.8696 188.555Z" fill="#85B0FF"/>
    <path fill-rule="evenodd" clip-rule="evenodd" d="M50.3198 188.555H7.49023L13.2379 246.869H56.0675L50.3198 188.555Z" fill="#19243D"/>
    <path d="M28.6547 201.861C30.206 201.861 31.4636 200.601 31.4636 199.046C31.4636 197.491 30.206 196.23 28.6547 196.23C27.1033 196.23 25.8457 197.491 25.8457 199.046C25.8457 200.601 27.1033 201.861 28.6547 201.861Z" fill="white"/>
    <path fill-rule="evenodd" clip-rule="evenodd" d="M14.2576 232.162C14.2576 232.162 7.47164 230.285 5.78442 227.442C4.86664 225.9 5.10767 221.784 6.50751 215.084C7.14718 212.018 9.48334 209.584 12.5148 208.831L21.0992 206.685C21.878 206.489 22.6752 206.963 22.8699 207.744C23.0738 208.561 22.6567 209.407 21.8872 209.741C15.5833 212.492 12.7187 213.793 13.2935 213.653C13.859 213.514 17.3169 213.179 23.6857 212.659C24.826 212.566 25.8735 213.319 26.1516 214.434C26.4205 215.502 25.7716 216.58 24.7055 216.85L14.7212 219.349L22.4527 220.808C23.3334 220.975 23.9082 221.821 23.7413 222.703C23.7321 222.759 23.7135 222.815 23.7042 222.861C23.3983 223.911 22.4898 224.664 21.4144 224.794L11.6341 225.974L19.5325 229.012C20.3391 229.319 20.7655 230.192 20.5245 231.029C20.2742 231.884 19.4676 232.46 18.5777 232.404C17.1407 232.32 15.7038 232.237 14.2669 232.153L14.2576 232.162Z" fill="#FE9C9A"/>
    <mask id="mask0_5076_115705" style="mask-type:alpha" maskUnits="userSpaceOnUse" x="63" y="175" width="155" height="122">
        <path fill-rule="evenodd" clip-rule="evenodd" d="M217.197 210.549C217.197 210.549 217.197 210.596 217.188 210.614C216.9 213.643 216.15 216.598 214.972 219.395L207.129 238.052L200.075 254.843L198.703 266.086L198.665 266.364L197.664 274.522C197.266 277.802 196.431 280.98 195.217 283.991C193.724 287.717 191.648 291.182 189.033 294.267C188.737 294.611 188.44 294.955 188.134 295.289C187.689 295.782 187.226 296.265 186.753 296.73H105.831L105.775 296.627L105.646 296.386C105.442 296.023 105.247 295.661 105.062 295.289C104.876 294.955 104.7 294.611 104.533 294.267C104.097 293.394 103.69 292.511 103.309 291.619C100.352 284.734 98.943 277.263 99.2026 269.737L100.278 238.173L94.3356 251.07L91.4154 257.398L90.1361 256.766L84.0176 253.755L74.0333 248.84L64.1417 243.971L63.5762 243.693L71.7713 213.151C71.9659 212.417 72.1792 211.692 72.4109 210.967C72.9023 209.415 73.4585 207.901 74.0889 206.433C74.8769 204.556 75.7761 202.744 76.7773 200.997C79.7161 195.859 83.4984 191.315 87.9204 187.543C91.1744 184.755 94.7806 182.386 98.6371 180.5C101.956 178.874 105.469 177.601 109.122 176.727C112.45 175.928 115.899 175.454 119.421 175.352C119.978 175.334 120.534 175.324 121.09 175.324L129.619 175.343H139.817L150.014 175.371L158.867 175.389H166.274L170.372 175.789L180.495 176.755L190.109 177.675C190.276 177.694 190.452 177.712 190.619 177.74C194.197 178.13 197.553 179.143 200.603 180.667C204.339 182.516 207.611 185.118 210.244 188.249C215.278 194.224 217.994 202.149 217.197 210.549Z" fill="#2760CB"/>
    </mask>
    <g mask="url(#mask0_5076_115705)">
        <path d="M170.65 172.127C166.469 226.065 164.383 270.359 164.383 304.998" stroke="#0F4DC3" stroke-width="1.1"/>
        <path d="M180.847 172.127C176.666 226.065 174.58 270.359 174.58 304.998" stroke="#0F4DC3" stroke-width="1.1"/>
        <path d="M191.046 172.127C186.865 226.065 184.779 270.359 184.779 304.998" stroke="#0F4DC3" stroke-width="1.1"/>
        <path d="M201.243 172.127C197.062 226.065 194.977 270.359 194.977 304.998" stroke="#0F4DC3" stroke-width="1.1"/>
        <path d="M211.441 172.127C207.26 226.065 205.174 270.359 205.174 304.998" stroke="#0F4DC3" stroke-width="1.1"/>
        <path d="M160.452 172.127C156.271 226.065 154.186 270.359 154.186 304.998" stroke="#0F4DC3" stroke-width="1.1"/>
        <path d="M150.255 172.127C146.074 226.065 143.988 270.359 143.988 304.998" stroke="#0F4DC3" stroke-width="1.1"/>
        <path d="M140.058 172.127C135.877 226.065 133.791 270.359 133.791 304.998" stroke="#0F4DC3" stroke-width="1.1"/>
        <path d="M129.861 172.127C125.68 226.065 123.594 270.359 123.594 304.998" stroke="#0F4DC3" stroke-width="1.1"/>
        <path d="M119.663 172.127C115.482 226.065 113.396 270.359 113.396 304.998" stroke="#0F4DC3" stroke-width="1.1"/>
        <path d="M109.466 172.127C105.285 226.065 103.199 270.359 103.199 304.998" stroke="#0F4DC3" stroke-width="1.1"/>
        <path d="M99.2668 172.127C95.0859 226.065 93 270.359 93 304.998" stroke="#0F4DC3" stroke-width="1.1"/>
        <path d="M89.0696 172.127C84.8886 226.065 82.8027 270.359 82.8027 304.998" stroke="#0F4DC3" stroke-width="1.1"/>
        <path d="M78.8723 172.127C74.6913 226.065 72.6055 270.359 72.6055 304.998" stroke="#0F4DC3" stroke-width="1.1"/>
    </g>
    <path fill-rule="evenodd" clip-rule="evenodd" d="M122.138 125.891L122.815 153.19C122.982 159.899 128.451 165.242 135.145 165.242V174.719C130.129 183.648 130.667 189.372 136.758 191.89C142.848 194.408 150.274 189.67 159.035 177.693L155.456 129.998L136.758 120.391L122.129 125.901L122.138 125.891Z" fill="#FE9C9A"/>
    <path fill-rule="evenodd" clip-rule="evenodd" d="M192.927 253.57L166.664 236.129L159.034 245.338L94.0572 212.519C91.8045 211.376 89.4312 210.484 86.9931 209.834L68.1833 204.863C67.4509 204.668 66.6907 205.104 66.5053 205.848C66.4775 205.959 66.459 206.08 66.459 206.201C66.459 207.297 67.0801 208.301 68.0535 208.793L77.7226 213.625V219.553C77.7226 223.864 80.2627 227.767 84.1934 229.504L86.1958 230.387C88.9677 231.614 92.1753 231.261 94.6134 229.477L135.283 269.152C140.688 274.421 147.659 277.775 155.14 278.695C162.408 279.587 169.686 277.059 174.849 271.847L192.927 253.561V253.57Z" fill="#FE9C9A"/>
    <path fill-rule="evenodd" clip-rule="evenodd" d="M127.264 151.184L132.984 150.088C132.381 152.541 131.408 153.749 130.073 153.73C128.738 153.712 127.801 152.857 127.264 151.184Z" fill="white"/>
    <path d="M125.744 137.721C125.763 137.498 125.605 137.293 125.374 137.275C125.151 137.256 124.947 137.424 124.929 137.647L124.029 147.301H127.691C127.914 147.301 128.099 147.115 128.099 146.892C128.099 146.669 127.914 146.483 127.691 146.483H124.919L125.735 137.73L125.744 137.721Z" fill="#19243D"/>
    <path fill-rule="evenodd" clip-rule="evenodd" d="M131.761 131.559L128.915 131.661C128.349 131.68 127.914 132.154 127.932 132.721C127.951 133.287 128.424 133.733 128.989 133.715L131.835 133.613C132.401 133.594 132.836 133.12 132.818 132.553C132.799 131.987 132.326 131.541 131.761 131.559Z" fill="#19243D"/>
    <path fill-rule="evenodd" clip-rule="evenodd" d="M124.019 131.969L121.173 132.072C120.607 132.09 120.171 132.564 120.19 133.131C120.209 133.698 120.681 134.144 121.247 134.125L124.093 134.023C124.658 134.004 125.094 133.53 125.076 132.964C125.057 132.397 124.584 131.951 124.019 131.969Z" fill="#19243D"/>
    <path d="M146.602 135.203C147.779 135.64 147.955 136.708 147.13 138.409" stroke="#19243D" stroke-width="0.88" stroke-linecap="round"/>
    <path d="M138.463 132.945C137.415 131.115 135.45 129.879 133.197 129.879C131.519 129.879 129.999 130.557 128.896 131.663C128.534 132.035 128.21 132.443 127.959 132.889C127.941 132.908 127.922 132.927 127.922 132.945C127.394 133.856 127.088 134.915 127.088 136.039C127.088 139.431 129.823 142.19 133.197 142.19C136.572 142.19 139.297 139.431 139.297 136.039C139.297 134.915 138.991 133.856 138.463 132.945ZM133.197 141.373C130.268 141.373 127.904 138.985 127.904 136.039C127.904 135.157 128.117 134.33 128.497 133.596C128.608 133.363 128.738 133.15 128.886 132.945C129.257 132.425 129.711 131.97 130.231 131.616C131.074 131.04 132.103 130.706 133.197 130.706C134.977 130.706 136.544 131.589 137.499 132.945C138.12 133.819 138.481 134.887 138.481 136.039C138.481 138.985 136.117 141.373 133.197 141.373Z" fill="white"/>
    <path d="M124.325 133.986C124.177 133.623 123.982 133.27 123.751 132.945C123.519 132.601 123.25 132.285 122.953 132.007C122.749 131.802 122.536 131.626 122.304 131.458C122.304 131.449 122.286 131.44 122.277 131.44C121.489 130.864 120.552 130.483 119.542 130.353C119.532 130.343 119.523 130.343 119.514 130.343C119.44 130.334 119.366 130.325 119.291 130.325C119.115 130.306 118.939 130.297 118.754 130.297C118.568 130.297 118.383 130.297 118.207 130.325C118.077 130.334 117.957 130.353 117.836 130.371C117.706 130.39 117.586 130.408 117.465 130.436C117.41 130.446 117.345 130.464 117.289 130.483C117.169 130.501 117.048 130.538 116.937 130.576C116.77 130.622 116.612 130.678 116.455 130.752C116.381 130.78 116.316 130.808 116.241 130.845C115.231 131.3 114.36 132.034 113.738 132.945C113.701 132.991 113.664 133.047 113.636 133.103C113.553 133.214 113.479 133.345 113.414 133.465C113.405 133.484 113.395 133.503 113.386 133.521C113.321 133.633 113.256 133.753 113.21 133.883C113.191 133.911 113.173 133.939 113.173 133.967C113.145 134.023 113.117 134.079 113.099 134.134C113.08 134.162 113.071 134.19 113.062 134.218C112.95 134.487 112.867 134.775 112.802 135.064C112.793 135.129 112.774 135.184 112.765 135.24C112.737 135.352 112.719 135.472 112.709 135.593C112.691 135.686 112.682 135.788 112.672 135.881C112.654 136.067 112.645 136.253 112.645 136.448C112.645 139.849 115.379 142.599 118.754 142.599C118.939 142.599 119.125 142.59 119.301 142.571C119.486 142.562 119.662 142.534 119.838 142.497C119.959 142.478 120.07 142.46 120.181 142.423C120.209 142.423 120.237 142.413 120.256 142.404C120.302 142.395 120.358 142.376 120.413 142.367C120.793 142.265 121.155 142.116 121.498 141.939C121.609 141.884 121.711 141.828 121.813 141.763C121.859 141.744 121.906 141.716 121.952 141.679C122.045 141.633 122.137 141.568 122.221 141.503C122.332 141.438 122.434 141.354 122.536 141.27C122.601 141.224 122.666 141.168 122.731 141.112C122.74 141.103 122.749 141.094 122.749 141.085C124.038 139.97 124.854 138.306 124.854 136.448C124.854 135.575 124.668 134.738 124.335 133.986H124.325ZM122.499 140.202C122.397 140.304 122.295 140.397 122.193 140.49C122.082 140.583 121.971 140.676 121.85 140.759C121.73 140.843 121.609 140.927 121.489 141.001C121.108 141.243 120.701 141.419 120.274 141.54C120.2 141.568 120.126 141.596 120.042 141.614C119.959 141.642 119.875 141.661 119.792 141.67C119.625 141.707 119.458 141.735 119.282 141.754C119.106 141.772 118.93 141.781 118.744 141.781C115.815 141.781 113.451 139.393 113.451 136.448C113.451 136.262 113.46 136.086 113.479 135.9C113.497 135.742 113.516 135.584 113.553 135.426C113.553 135.389 113.562 135.37 113.572 135.342C113.599 135.175 113.636 135.026 113.692 134.868C113.738 134.692 113.803 134.534 113.868 134.376C113.933 134.209 114.017 134.051 114.1 133.893C114.137 133.828 114.165 133.763 114.211 133.707C114.285 133.568 114.378 133.437 114.471 133.307C114.564 133.187 114.656 133.066 114.758 132.945C114.814 132.871 114.879 132.796 114.953 132.731C114.99 132.694 115.018 132.657 115.055 132.629C115.231 132.443 115.426 132.285 115.63 132.137C115.722 132.072 115.815 132.007 115.908 131.951C116.01 131.876 116.121 131.811 116.241 131.746C116.538 131.588 116.844 131.458 117.169 131.356C117.335 131.3 117.502 131.254 117.678 131.226C118.021 131.152 118.383 131.115 118.744 131.115C118.93 131.115 119.106 131.124 119.282 131.142C119.542 131.17 119.801 131.217 120.042 131.291H120.052C120.663 131.43 121.229 131.7 121.739 132.053C121.934 132.192 122.128 132.341 122.304 132.508C122.323 132.518 122.332 132.527 122.341 132.545C122.481 132.666 122.61 132.806 122.722 132.945C123.009 133.27 123.259 133.642 123.454 134.041C123.825 134.766 124.029 135.584 124.029 136.448C124.029 137.907 123.445 139.235 122.499 140.202Z" fill="white"/>
    <path d="M122.721 141.113C122.888 140.964 122.906 140.704 122.767 140.537C122.628 140.37 122.359 140.342 122.193 140.49C121.238 141.317 120.023 141.782 118.744 141.782C115.824 141.782 113.451 139.394 113.451 136.448C113.451 133.503 115.824 131.115 118.744 131.115C118.966 131.115 119.189 131.134 119.411 131.161C119.634 131.189 119.838 131.031 119.866 130.808C119.894 130.585 119.736 130.381 119.513 130.353C119.263 130.325 119.004 130.307 118.744 130.307C115.37 130.307 112.635 133.057 112.635 136.458C112.635 139.859 115.37 142.609 118.744 142.609C120.227 142.609 121.627 142.079 122.721 141.122V141.113Z" fill="white"/>
    <path d="M122.665 136.968C123.177 136.968 123.592 136.552 123.592 136.039C123.592 135.525 123.177 135.109 122.665 135.109C122.153 135.109 121.738 135.525 121.738 136.039C121.738 136.552 122.153 136.968 122.665 136.968Z" fill="#19243D"/>
    <path d="M131.12 136.968C131.632 136.968 132.047 136.552 132.047 136.039C132.047 135.525 131.632 135.109 131.12 135.109C130.608 135.109 130.193 135.525 130.193 136.039C130.193 136.552 130.608 136.968 131.12 136.968Z" fill="#19243D"/>
    <path fill-rule="evenodd" clip-rule="evenodd" d="M157.143 154.018L147.613 140.508L149.717 138.157C150.792 136.959 150.931 135.184 150.051 133.827L149.949 133.679C149.142 132.434 147.576 131.932 146.204 132.48C144.73 133.065 143.673 134.375 143.395 135.937L142.885 138.78C142.764 139.439 142.189 139.932 141.513 139.932C140.836 139.932 140.317 139.43 140.27 138.78C139.946 134.561 139.455 132.145 138.796 131.532C137.721 130.538 135.088 131.291 134.569 124.508C132.187 126.05 128.043 126.505 122.137 125.892L122.369 133.809C118.003 129.553 115.824 125.418 115.824 121.404C115.824 117.39 117.576 116.034 121.081 117.325C119.588 109.864 121.312 106.761 126.244 108.015C133.642 109.901 146.834 107.039 155.465 117.325C165.449 119.992 163.753 124.972 162.724 130.064C162.038 133.456 160.174 141.446 157.152 154.037L157.143 154.018Z" fill="#19243D"/>
    <path fill-rule="evenodd" clip-rule="evenodd" d="M135.145 165.242H146.306L135.145 170.158V165.242Z" fill="#19243D"/>
    <path fill-rule="evenodd" clip-rule="evenodd" d="M340.059 188.285C352.463 150.069 359.314 128.949 360.602 124.944C362.54 118.932 367.824 111.044 370.225 107.875C372.033 105.487 373.933 106.686 372.227 112.047C371.662 113.813 369.78 118.291 368.603 120.242C372.209 119.536 373.905 120.298 373.711 122.519C377.41 122.11 379.254 122.918 379.254 124.944C382.277 124.767 382.861 127.601 382.861 129.032C382.861 130.463 384.372 136.707 382.861 136.707C381.85 136.707 380.895 135.574 379.996 133.306C377.678 139.132 375.092 141.743 372.227 141.139C371.736 148.433 369.224 163.774 364.7 187.161C362.215 199.965 353.39 210.613 341.292 215.399L334.469 218.093L340.068 188.304L340.059 188.285Z" fill="#FCC8C8"/>
    <path d="M368.408 138.993C368.38 139.244 368.148 139.421 367.898 139.393C367.648 139.365 367.471 139.133 367.499 138.882C367.852 136.066 366.702 133.697 364.004 131.718L363.643 131.448L363.902 131.077C365.209 129.228 366.934 128.503 368.983 128.958L369.047 128.977L369.103 129.014C372.125 130.714 374.424 131.077 376.028 130.166C376.408 129.953 376.621 129.757 376.686 129.618C376.798 129.386 376.427 128.958 375.268 128.252C374.6 127.853 370.994 125.911 370.012 125.353C366.683 123.458 363.652 123.458 360.843 125.335C360.63 125.474 360.352 125.418 360.203 125.204C360.055 124.991 360.12 124.703 360.333 124.563C363.439 122.482 366.841 122.482 370.466 124.545C371.421 125.093 375.055 127.035 375.741 127.453C377.307 128.41 377.929 129.116 377.511 129.999C377.345 130.352 377.002 130.659 376.473 130.956C374.545 132.052 371.958 131.653 368.714 129.841C367.193 129.525 365.951 129.98 364.913 131.253C367.601 133.372 368.779 135.964 368.399 138.993H368.408Z" fill="white"/>
    <path d="M371.448 135.175C370.438 134.933 369.668 134.116 369.501 133.084L368.991 130.009C368.954 129.758 369.121 129.516 369.372 129.479C369.622 129.442 369.854 129.609 369.9 129.86L370.41 132.936C370.521 133.595 371.012 134.125 371.661 134.274C372.181 134.394 372.7 134.078 372.829 133.558L373.469 131.049C373.599 130.548 374.322 130.603 374.368 131.114L374.665 134.106C374.73 134.747 375.212 135.258 375.842 135.37C376.399 135.463 376.927 135.11 377.057 134.562L379.3 124.74C379.356 124.489 379.606 124.341 379.847 124.396C380.097 124.452 380.246 124.703 380.19 124.945L377.947 134.766C377.715 135.788 376.723 136.457 375.685 136.281C374.646 136.104 373.849 135.249 373.747 134.199L373.71 133.809C373.441 134.794 372.449 135.398 371.448 135.166V135.175Z" fill="white"/>
    <path d="M374.323 126.44C374.305 126.691 374.082 126.886 373.832 126.868C373.582 126.849 373.387 126.626 373.406 126.375L373.711 122.491C373.73 122.24 373.952 122.045 374.203 122.064C374.453 122.082 374.648 122.305 374.629 122.556L374.323 126.44Z" fill="white"/>
    <path d="M368.687 121.858C368.594 122.1 368.334 122.211 368.093 122.128C367.852 122.035 367.741 121.775 367.824 121.533L368.455 119.879C368.547 119.637 368.807 119.526 369.048 119.61C369.289 119.703 369.4 119.963 369.317 120.204L368.687 121.858Z" fill="white"/>
    <path fill-rule="evenodd" clip-rule="evenodd" d="M340.059 188.164V218.074L304.683 227.747L311.321 243.951C311.58 244.565 311.784 245.196 311.951 245.838C314.056 253.856 309.272 262.07 301.272 264.179L304.553 294.266L304.665 295.288L304.683 295.446L295.978 295.79L293.216 295.901L236.471 296.499L236.666 295.288L236.74 294.266L238.066 276.342V276.287L238.177 274.8C238.269 273.49 238.084 272.18 237.639 270.944L237.574 270.767L236.777 268.602C236.777 268.602 236.758 268.556 236.749 268.528L234.348 261.996L231.307 253.726L227.117 268.695L205.897 266.948L198.74 266.363H198.675L196.691 266.196L207.686 227.951L208.279 225.879C209.967 220.016 213.063 214.794 217.198 210.613C222.111 205.614 228.471 202.083 235.59 200.643L235.998 200.559L238.752 200.002L248.365 198.05L252.889 197.14L255.54 196.87L257.7 196.647L261.195 196.285L267.592 195.625L273.692 195.003L279.134 194.436L293.039 193.005L340.069 188.164H340.059Z" fill="#F7AB31"/>
    <path fill-rule="evenodd" clip-rule="evenodd" d="M238.028 276.872L237.657 283.302L240.8 273.629L262.428 191.546L250.237 189.502L233.986 263.575C236.869 267.385 238.297 272.105 238.019 276.881L238.028 276.872Z" fill="#19243D"/>
    <path fill-rule="evenodd" clip-rule="evenodd" d="M293.022 154.752V193.089L273.646 195.635L275.065 158.506L293.022 154.752Z" fill="#19243D"/>
    <path fill-rule="evenodd" clip-rule="evenodd" d="M290.982 152.513L290.371 176.644C290.213 182.758 285.225 187.636 279.125 187.636V196.091C283.696 204.064 283.204 209.165 277.651 211.414C272.089 213.662 265.322 209.434 257.34 198.74L264.626 156.091L277.651 147.607L290.992 152.523L290.982 152.513Z" fill="#FCC8C8"/>
    <path d="M268.483 159.863C267.305 160.792 267.305 161.815 268.483 162.93" stroke="#19243D" stroke-width="1.1" stroke-linecap="round"/>
    <path fill-rule="evenodd" clip-rule="evenodd" d="M286.477 174.878L281.332 173.902C281.879 176.086 282.75 177.164 283.956 177.136C285.161 177.117 286.004 176.365 286.477 174.869V174.878Z" fill="white"/>
    <path d="M288.247 162.317C288.229 162.112 288.386 161.926 288.618 161.908C288.841 161.889 289.045 162.038 289.063 162.252L289.972 171.107H286.3C286.078 171.107 285.893 170.939 285.893 170.726C285.893 170.512 286.078 170.345 286.3 170.345H289.072L288.247 162.307V162.317Z" fill="#19243D"/>
    <path fill-rule="evenodd" clip-rule="evenodd" d="M282.426 157.438L285.003 157.531C285.504 157.55 285.893 157.968 285.884 158.47C285.866 158.971 285.448 159.371 284.938 159.352L282.361 159.259C281.861 159.241 281.471 158.823 281.481 158.321C281.499 157.819 281.916 157.42 282.426 157.438Z" fill="#19243D"/>
    <path fill-rule="evenodd" clip-rule="evenodd" d="M289.387 157.799L291.964 157.892C292.465 157.911 292.854 158.329 292.845 158.831C292.827 159.333 292.409 159.732 291.899 159.714L289.322 159.621C288.822 159.602 288.432 159.184 288.442 158.682C288.46 158.18 288.877 157.781 289.387 157.799Z" fill="#19243D"/>
    <path d="M290.983 162.929C291.546 162.929 292.002 162.471 292.002 161.907C292.002 161.342 291.546 160.885 290.983 160.885C290.419 160.885 289.963 161.342 289.963 161.907C289.963 162.471 290.419 162.929 290.983 162.929Z" fill="#19243D"/>
    <path d="M283.844 162.929C284.407 162.929 284.864 162.471 284.864 161.907C284.864 161.342 284.407 160.885 283.844 160.885C283.281 160.885 282.824 161.342 282.824 161.907C282.824 162.471 283.281 162.929 283.844 162.929Z" fill="#19243D"/>
    <path fill-rule="evenodd" clip-rule="evenodd" d="M267.565 195.803C268.585 184.923 269.261 178.065 269.595 175.241C269.929 172.416 269.54 169.024 268.427 165.085L266.527 162.976C265.562 161.907 265.442 160.318 266.221 159.11C267.009 157.902 268.51 157.373 269.873 157.828L274.61 159.398C281.332 158.534 286.013 155.951 288.655 151.64C289.165 152.987 290.055 154.083 291.334 154.91L291.121 159.073C295.098 156.165 297.091 152.913 297.091 149.326C297.091 145.739 295.172 143.556 291.334 142.775C291.409 139.421 289.619 137.414 285.967 136.736C281.063 135.834 268.622 131.755 256.774 143.584C251.712 148.638 244.75 167.714 235.906 200.793L244.871 199.055C244.704 206.312 248.115 209.936 255.105 209.936C262.095 209.936 266.239 205.225 267.556 195.794L267.565 195.803Z" fill="#19243D"/>
    <path fill-rule="evenodd" clip-rule="evenodd" d="M279.764 187.636L269.566 187.459L279.764 191.547V187.636Z" fill="#19243D"/>
    <path d="M270.586 159.861H254.27V193.59H270.586V159.861Z" fill="#85B0FF"/>
    <path d="M268.547 159.861H252.23V193.59H268.547V159.861Z" fill="#E5E9F3"/>
    <path fill-rule="evenodd" clip-rule="evenodd" d="M198.703 266.093L199.704 275.533C200.641 284.388 208.094 291.106 216.984 291.106C225.875 291.106 234.144 284.816 236.313 275.886L255.605 196.563C256.912 195.188 257.895 194.147 258.544 193.423C260.482 191.276 261.937 188.572 262.92 185.302L264.727 182.198L267.833 179.457C268.593 178.779 269.029 177.813 269.029 176.79C269.029 176.344 268.667 175.982 268.222 175.982C268.046 175.982 267.879 176.038 267.74 176.14L264.718 178.389L261.372 180.879L268.677 172.618C269.214 172.015 269.344 171.15 269.01 170.407C268.788 169.915 268.204 169.692 267.713 169.915C267.62 169.952 267.546 170.008 267.471 170.073L259.999 176.614L267.407 167.285C267.759 166.848 267.694 166.207 267.268 165.845C266.832 165.473 266.192 165.492 265.775 165.882L257.33 173.808C258.553 171.596 259.443 170.054 260.009 169.19C260.787 167.982 261.807 166.718 263.077 165.399C263.485 164.971 263.587 164.34 263.337 163.81C263.151 163.41 262.669 163.234 262.271 163.42C262.224 163.448 262.178 163.475 262.132 163.503L260.129 165.018C258.284 166.412 256.671 168.093 255.355 170.008L251.804 175.174L252.731 166.625C252.852 165.52 252.147 164.488 251.072 164.2C250.099 163.94 249.097 164.516 248.838 165.492C248.838 165.529 248.819 165.557 248.81 165.594L243.887 189.446L206.453 266.074H198.703V266.093Z" fill="#FCC8C8"/>
    <path d="M0 297.022V296H433.561V297.022H0Z" fill="#19243D"/>
    <path d="M50.9414 66.2773H49.6436L50.7746 67.4481L50.9414 67.2808V66.2773Z" fill="#5C89AF"/>
    <path d="M50.9413 67.2812L50.7744 67.4485L50.9413 67.6158V67.2812Z" fill="#5C89AF"/>
    <path d="M49.6436 63.2857H50.9414V61.957L49.6436 63.2857Z" fill="#5C89AF"/>
    <path d="M55.1226 68.0616C54.4458 68.3589 53.6393 68.5076 52.703 68.5076H52.499L54.3438 71.2208H57.4309L55.2338 68.0059C55.2338 68.0059 55.1596 68.043 55.1226 68.0616Z" fill="#5C89AF"/>
    <path d="M50.7746 67.4492L49.6436 68.5085H50.9414V67.6165L50.7746 67.4492Z" fill="#5C89AF"/>
    <path d="M55.1226 68.0609C55.1226 68.0609 55.1967 68.0238 55.2338 68.0052L54.8908 67.4941H51.8223L52.5083 68.4976H52.7122C53.6393 68.4976 54.4458 68.349 55.1318 68.0516L55.1226 68.0609Z" fill="#5C89AF"/>
    <path d="M54.8904 67.5042L55.2334 68.0152C55.8546 67.7179 56.3366 67.3184 56.6796 66.7887C57.0412 66.2312 57.2266 65.5622 57.2266 64.7724C57.2266 63.9826 57.0412 63.3322 56.6796 62.7654C56.3181 62.1986 55.7897 61.7619 55.1129 61.4553C54.4362 61.158 53.6297 61 52.6933 61H48.0488V71.2116H50.9319V68.4984H49.6341L50.7558 67.4299L49.6341 66.2591H50.9319V63.2672H49.6341L50.9319 61.9385V63.2672H52.5172C53.1198 63.2672 53.574 63.3973 53.8707 63.6667C54.1673 63.9362 54.3249 64.2986 54.3249 64.7538C54.3249 65.2091 54.1766 65.5994 53.8707 65.8596C53.574 66.1197 53.1198 66.2498 52.5172 66.2498H50.9319V68.4798H52.4894L51.8034 67.4763H54.8719L54.8904 67.5042Z" fill="#5C89AF"/>
    <path d="M66.192 64.9668H61.668V67.1132H66.192V64.9668Z" fill="#5C89AF"/>
    <path d="M61.6678 67.1144H61.4639V64.968H61.6678V63.2584H66.8037V61.0098H58.8311V71.2213H66.9983V68.9728H61.6678V67.1144Z" fill="#5C89AF"/>
    <path d="M61.6678 64.9668H61.4639V67.1132H61.6678V64.9668Z" fill="#5C89AF"/>
    <path d="M71.494 65.4883H71.2715V67.7183H71.494V65.4883Z" fill="#5C89AF"/>
    <path d="M75.981 65.4883H71.4941V67.7183H75.981V65.4883Z" fill="#5C89AF"/>
    <path d="M68.6113 71.2213H71.4944V67.7184H71.2719V65.4884H71.4944V63.2584H76.5839V61.0098H68.6113V71.2213Z" fill="#5C89AF"/>
    <path d="M85.317 64.9668H80.793V67.1132H85.317V64.9668Z" fill="#5C89AF"/>
    <path d="M80.7918 67.1144H80.5879V64.968H80.7918V63.2584H85.9277V61.0098H77.9551V71.2213H86.1224V68.9728H80.7918V67.1144Z" fill="#5C89AF"/>
    <path d="M80.7918 64.9668H80.5879V67.1132H80.7918V64.9668Z" fill="#5C89AF"/>
    <path d="M89.3223 63.2857H90.6201V61.957L89.3223 63.2857Z" fill="#5C89AF"/>
    <path d="M90.6201 66.2773H89.3223L90.444 67.4481L90.6201 67.2808V66.2773Z" fill="#5C89AF"/>
    <path d="M94.7915 68.0616C94.1148 68.3589 93.3082 68.5076 92.3719 68.5076H92.168L94.0128 71.2208H97.0999L94.9028 68.0059C94.9028 68.0059 94.8286 68.043 94.7915 68.0616Z" fill="#5C89AF"/>
    <path d="M90.6195 67.2812L90.4434 67.4485L90.6195 67.6158V67.2812Z" fill="#5C89AF"/>
    <path d="M94.7905 68.0609C94.7905 68.0609 94.8647 68.0238 94.9018 68.0052L94.5588 67.4941H91.4902L92.1762 68.4976H92.3802C93.3072 68.4976 94.1138 68.349 94.7998 68.0516L94.7905 68.0609Z" fill="#5C89AF"/>
    <path d="M90.444 67.4492L89.3223 68.5085H90.6201V67.6165L90.444 67.4492Z" fill="#5C89AF"/>
    <path d="M94.5584 67.5042L94.9014 68.0152C95.5225 67.7179 96.0046 67.3184 96.3476 66.7887C96.7092 66.2312 96.8946 65.5622 96.8946 64.7724C96.8946 63.9826 96.7092 63.3322 96.3476 62.7654C95.9861 62.1986 95.4576 61.7619 94.7809 61.4553C94.1041 61.158 93.2976 61 92.3613 61H87.7168V71.2116H90.5999V68.4984H89.302L90.4238 67.4299L89.302 66.2591H90.5999V63.2672H89.302L90.5999 61.9385V63.2672H92.1852C92.7877 63.2672 93.242 63.3973 93.5387 63.6667C93.8353 63.9362 93.9929 64.2986 93.9929 64.7538C93.9929 65.2091 93.8446 65.5994 93.5387 65.8596C93.242 66.1197 92.7877 66.2498 92.1852 66.2498H90.5999V68.4798H92.1574L91.4713 67.4763H94.5399L94.5584 67.5042Z" fill="#5C89AF"/>
    <path d="M101.392 66.2773H100.094L101.215 67.4481L101.392 67.2808V66.2773Z" fill="#5C89AF"/>
    <path d="M101.391 67.2812L101.215 67.4485L101.391 67.6158V67.2812Z" fill="#5C89AF"/>
    <path d="M100.094 63.2857H101.392V61.957L100.094 63.2857Z" fill="#5C89AF"/>
    <path d="M101.215 67.4492L100.094 68.5085H101.392V67.6165L101.215 67.4492Z" fill="#5C89AF"/>
    <path d="M105.332 67.5042L105.675 68.0152C106.296 67.7179 106.778 67.3184 107.121 66.7887C107.483 66.2312 107.668 65.5622 107.668 64.7724C107.668 63.9826 107.483 63.3322 107.121 62.7654C106.759 62.1986 106.231 61.7619 105.554 61.4553C104.878 61.158 104.071 61 103.135 61H98.4902V71.2116H101.373V68.4984H100.075L101.197 67.4299L100.075 66.2591H101.373V63.2672H100.075L101.373 61.9385V63.2672H102.959C103.561 63.2672 104.015 63.3973 104.312 63.6667C104.609 63.9362 104.766 64.2986 104.766 64.7538C104.766 65.2091 104.618 65.5994 104.312 65.8596C104.015 66.1197 103.561 66.2498 102.959 66.2498H101.373V68.4798H102.931L102.245 67.4763H105.313L105.332 67.5042Z" fill="#5C89AF"/>
    <path d="M105.563 68.0616C104.886 68.3589 104.08 68.5076 103.143 68.5076H102.939L104.784 71.2208H107.871L105.674 68.0059C105.674 68.0059 105.6 68.043 105.563 68.0616Z" fill="#5C89AF"/>
    <path d="M105.564 68.0609C105.564 68.0609 105.638 68.0238 105.675 68.0052L105.332 67.4941H102.264L102.95 68.4976H103.154C104.081 68.4976 104.887 68.349 105.573 68.0516L105.564 68.0609Z" fill="#5C89AF"/>
    <path d="M113.369 62.4316L113.935 63.844L114.5 62.4316H113.369Z" fill="#5C89AF"/>
    <path d="M111.238 67.1133L110.496 69.2225H111.775L112.628 67.1133H111.238Z" fill="#5C89AF"/>
    <path d="M112.628 67.1133L111.775 69.2225H116.086L115.243 67.1133H112.628Z" fill="#5C89AF"/>
    <path d="M112.535 61.0098L108.039 71.2213H110.978L111.775 69.2236H110.496L111.237 67.1144H112.628L113.935 63.8437L113.37 62.4314H114.501L113.935 63.8437L115.242 67.1144H116.216L116.957 69.2236H116.086L116.892 71.2213H119.887L115.372 61.0098H112.535Z" fill="#5C89AF"/>
    <path d="M116.216 67.1133H115.242L116.086 69.2225H116.957L116.216 67.1133Z" fill="#5C89AF"/>
    <path d="M123.594 61.0098H120.711V71.2213H128.443V68.9356H123.594V61.0098Z" fill="#5C89AF"/>
    <path d="M54.5293 81.3208C54.9743 80.8562 55.5027 80.5124 56.1331 80.2616C56.7542 80.02 57.4402 79.8992 58.1911 79.8992C59.044 79.8992 59.8227 80.085 60.5366 80.4474C61.2504 80.8098 61.8993 81.3394 62.4834 82.0363L65.7651 79.0629C64.8844 77.9293 63.7719 77.0745 62.4463 76.4984C61.1206 75.913 59.6188 75.625 57.9316 75.625C56.4946 75.625 55.1689 75.8573 53.9545 76.3126C52.7401 76.7772 51.6832 77.4276 50.784 78.2638C49.8848 79.1094 49.1802 80.1129 48.6796 81.2743C48.179 82.4358 47.9287 83.7181 47.9287 85.1118C47.9287 86.5056 48.179 87.7785 48.6796 88.9493C49.1802 90.1108 49.8848 91.1143 50.784 91.9598C51.6832 92.8053 52.7401 93.4558 53.9545 93.9111C55.1689 94.3756 56.4946 94.5986 57.9316 94.5986C59.6095 94.5986 61.1206 94.3013 62.4463 93.7159C63.7719 93.1213 64.8751 92.2664 65.7651 91.1328L62.4834 88.1595C61.89 88.875 61.2411 89.4139 60.5366 89.7763C59.8227 90.1386 59.044 90.3245 58.1911 90.3245C57.4495 90.3245 56.7635 90.2037 56.1331 89.9621C55.512 89.7205 54.9743 89.3674 54.5293 88.9028C54.0843 88.4383 53.7413 87.89 53.491 87.2489C53.2407 86.6078 53.1109 85.8923 53.1109 85.1118C53.1109 84.3313 53.2407 83.6159 53.491 82.9747C53.7413 82.3336 54.0936 81.7761 54.5293 81.3208Z" fill="#5C89AF"/>
    <path d="M86.1965 81.3022C85.6866 80.1593 84.9821 79.1558 84.0828 78.3103C83.1743 77.4555 82.1082 76.7958 80.8753 76.3219C79.6423 75.8573 78.2981 75.625 76.8426 75.625C75.3871 75.625 74.0429 75.8573 72.8099 76.3219C71.577 76.7958 70.5109 77.4555 69.6116 78.3196C68.7124 79.1837 68.0078 80.1872 67.4887 81.3301C66.9788 82.4823 66.7285 83.7274 66.7285 85.084C66.7285 86.4405 66.9788 87.7228 67.4887 88.8843C68.0078 90.0364 68.7124 91.0492 69.6116 91.9041C70.5109 92.7682 71.5862 93.4372 72.8285 93.9018C74.0615 94.3756 75.4057 94.6079 76.8426 94.6079C78.2795 94.6079 79.6423 94.3756 80.8753 93.9018C82.1082 93.4372 83.1836 92.7682 84.0921 91.9226C85.0006 91.0678 85.7052 90.0643 86.215 88.9121C86.7157 87.7507 86.966 86.4777 86.966 85.084C86.966 83.6902 86.7064 82.4544 86.1965 81.3022ZM81.3851 87.2675C81.1348 87.8993 80.7918 88.4475 80.3468 88.9121C79.9019 89.3674 79.3827 89.7205 78.7801 89.9621C78.1868 90.2037 77.5379 90.3338 76.8426 90.3338C76.1473 90.3338 75.5077 90.2037 74.9051 89.9621C74.3118 89.7205 73.7833 89.3674 73.3291 88.9121C72.8841 88.4475 72.5318 87.8993 72.2908 87.2675C72.0498 86.6264 71.9292 85.9109 71.9292 85.1118C71.9292 84.3127 72.0498 83.5973 72.2908 82.9654C72.5318 82.3243 72.8841 81.7761 73.3291 81.3208C73.7833 80.8562 74.3118 80.5031 74.9051 80.2616C75.5077 80.02 76.1473 79.8992 76.8426 79.8992C77.5379 79.8992 78.1868 80.02 78.7801 80.2616C79.3827 80.5031 79.9019 80.8562 80.3468 81.3208C80.7918 81.7761 81.1348 82.3243 81.3851 82.9654C81.6354 83.5973 81.7652 84.3127 81.7652 85.1118C81.7652 85.9109 81.6354 86.6264 81.3851 87.2675Z" fill="#5C89AF"/>
    <path d="M107.167 80.2625C106.314 78.9059 105.118 77.8559 103.588 77.1126C102.068 76.3599 100.307 75.9883 98.3134 75.9883H89.7012V94.2465H98.3134C100.307 94.2465 102.068 93.8655 103.588 93.1222C105.118 92.3695 106.314 91.3196 107.167 89.9537C108.029 88.5878 108.455 86.9618 108.455 85.0849C108.455 83.2079 108.029 81.619 107.167 80.2625ZM102.606 87.7887C102.17 88.5414 101.567 89.1267 100.798 89.5263C100.019 89.9258 99.1107 90.121 98.0539 90.121H94.8463V80.1045H98.0539C99.1107 80.1045 100.019 80.3089 100.798 80.7085C101.567 81.108 102.17 81.6748 102.606 82.4181C103.041 83.1522 103.255 84.0535 103.255 85.1127C103.255 86.172 103.041 87.0268 102.606 87.7887Z" fill="#5C89AF"/>
    <path d="M116.262 83.0586H115.9V86.8961H116.262V83.0586Z" fill="#5C89AF"/>
    <path d="M124.355 83.0586H116.262V86.8961H124.355V83.0586Z" fill="#5C89AF"/>
    <path d="M116.26 86.8874H115.899V83.0593H116.26V80.0023H125.447V75.9883H111.189V94.2465H125.781V90.2325H116.26V86.8874Z" fill="#5C89AF"/>
    <path d="M159.915 2.38873C144.452 5.77091 134.644 21.0743 138.018 36.5729C141.393 52.0714 156.661 61.9021 172.124 58.5199C187.587 55.1377 197.395 39.8343 194.021 24.3357C190.647 8.83717 175.378 -0.993446 159.915 2.38873Z" fill="#EC8515"/>
    <path d="M188.792 7.6099C184.852 3.96755 179.921 1.46809 174.59 0.473877C172.866 0.157959 171.104 0 169.315 0C168.11 0 166.905 0.0836253 165.681 0.241584C165.282 0.297334 164.884 0.353085 164.485 0.427418C164.077 0.501752 163.669 0.576085 163.252 0.669002C162.112 0.919878 160.999 1.2358 159.924 1.60746C146.417 6.30906 138.231 20.4975 141.355 34.8532C144.628 49.9057 159.118 59.6062 174.108 57.0603C174.423 57.0046 174.729 56.9488 175.044 56.8838C175.183 56.8559 175.322 56.828 175.452 56.8002C175.86 56.7072 176.259 56.6143 176.667 56.5121C191.425 52.6189 200.64 37.715 197.358 22.6253C196.051 16.6321 192.973 11.4845 188.783 7.62848L188.792 7.6099Z" fill="#ECC310"/>
    <path d="M194.53 23.5732C192.926 16.177 188.263 10.2118 182.173 6.72737H182.163C182.154 6.71808 182.145 6.71808 182.136 6.70879C182.126 6.70879 182.126 6.6995 182.117 6.6995C176.805 3.67969 170.408 2.50894 163.975 3.92128C157.272 5.38008 151.543 9.3755 147.835 15.1642C144.127 20.9437 142.894 27.8288 144.349 34.5467C144.97 37.39 146.036 40.0474 147.501 42.4539C149.225 45.3158 151.515 47.8246 154.278 49.8223C154.695 50.1475 155.131 50.4355 155.566 50.7236C155.882 50.9187 156.188 51.1138 156.512 51.2996C157.281 51.7549 158.079 52.1638 158.885 52.5261C159.849 52.9722 160.832 53.3438 161.833 53.6504C161.935 53.6876 162.047 53.7248 162.148 53.7527C162.269 53.7898 162.38 53.8177 162.501 53.8549C166.496 54.9885 170.733 55.1278 174.905 54.2172C184.361 52.1452 191.462 45.0835 194.048 36.3958C194.048 36.3865 194.057 36.3679 194.067 36.3679C194.067 36.3679 194.07 36.3555 194.076 36.3307C194.076 36.3307 194.085 36.3028 194.085 36.2936C194.141 36.1077 194.196 35.9126 194.243 35.7175C194.289 35.5595 194.326 35.3923 194.363 35.2343C194.595 34.333 194.771 33.4131 194.892 32.484C195.281 29.5942 195.188 26.593 194.53 23.5825V23.5732ZM174.756 53.5297C170.696 54.4124 166.57 54.2823 162.677 53.1859C162.464 53.1208 162.241 53.0558 162.019 52.9814C161.017 52.6748 160.035 52.2939 159.08 51.8479C158.292 51.4948 157.523 51.0859 156.772 50.6399C156.493 50.482 156.215 50.3054 155.937 50.1289C155.362 49.7572 154.797 49.367 154.259 48.9488C151.886 47.137 149.874 44.9348 148.308 42.4447C146.778 40.0009 145.656 37.2878 145.026 34.3888C143.608 27.8567 144.813 21.1574 148.419 15.5266C152.025 9.89584 157.597 6.01191 164.123 4.59028C168.378 3.66111 172.615 3.88411 176.527 5.04557C182.599 6.85746 187.855 10.9458 191.082 16.5301C191.221 16.7717 191.36 17.0133 191.49 17.2642C192.25 18.6951 192.88 20.2189 193.362 21.8264C193.39 21.91 193.418 22.0029 193.436 22.0958C193.594 22.6255 193.733 23.1737 193.853 23.7219C194.484 26.6116 194.577 29.5013 194.224 32.2795C194.104 33.1808 193.937 34.0728 193.714 34.9555C193.677 35.1414 193.622 35.3272 193.575 35.5131C193.52 35.7361 193.455 35.9591 193.381 36.1821C190.868 44.6375 183.953 51.5134 174.756 53.5297Z" fill="#EC8515"/>
    <path d="M177.76 19.0941H171.744C172.8 19.9304 173.561 21.1383 173.783 22.8201H177.751V24.6506H173.811C173.449 28.3765 170.492 30.7459 165.829 30.8946C168.675 33.8494 171.771 37.5753 174.831 41.3385H171.336C168.49 37.9098 165.829 34.7321 162.408 31.0804V28.8133H164.411C168.351 28.8133 170.464 27.1686 170.715 24.6506H162.408V22.8201H170.603C170.093 20.7016 168.165 19.6423 164.995 19.6423H162.408V17.2637H177.751V19.0941H177.76Z" fill="#E5E9F3"/>
    <path d="M177.12 33.627C161.657 37.0092 151.849 52.3126 155.223 67.8112C158.598 83.3097 173.866 93.1403 189.329 89.7582C204.792 86.376 214.601 71.0726 211.226 55.574C207.852 40.0755 192.583 30.2448 177.12 33.627Z" fill="#EC8515"/>
    <path d="M206.007 38.8486C202.067 35.2062 197.135 32.7068 191.805 31.7125C190.081 31.3873 188.319 31.2294 186.53 31.2387C185.325 31.2387 184.12 31.3223 182.896 31.4803C182.497 31.536 182.099 31.5918 181.7 31.6661C181.292 31.7404 180.884 31.8148 180.467 31.9077C179.327 32.1585 178.214 32.4745 177.139 32.8461C163.632 37.5477 155.446 51.7362 158.57 66.0918C161.843 81.1444 176.332 90.8449 191.323 88.299C191.638 88.2432 191.944 88.1875 192.259 88.1224C192.398 88.0946 192.537 88.0667 192.667 88.0388C193.075 87.9459 193.474 87.853 193.881 87.7508C208.64 83.8576 217.855 68.9537 214.573 53.864C213.266 47.8708 210.188 42.7232 205.998 38.8672L206.007 38.8486Z" fill="#ECC310"/>
    <path d="M211.736 54.8113C210.113 47.3594 205.413 41.3755 199.258 37.8819H199.248C198.488 37.4451 197.709 37.0549 196.903 36.7111C196.041 36.3208 195.151 35.9956 194.242 35.7076C194.233 35.7076 194.214 35.6983 194.196 35.689C193.992 35.6333 193.788 35.5682 193.575 35.5125C189.653 34.4068 185.426 34.2116 181.18 35.1408C174.478 36.6089 168.748 40.6043 165.04 46.3838C163.715 48.4651 162.695 50.6765 162.018 52.9809C161.953 53.2039 161.888 53.4176 161.833 53.6406C161.592 54.514 161.406 55.3874 161.276 56.2794C161.137 57.0971 161.054 57.9148 161.008 58.7417C160.869 61.0739 161.054 63.434 161.564 65.7755C163.019 72.4841 167.006 78.2357 172.772 81.9524C174.848 83.2811 177.064 84.2939 179.354 84.9815C183.461 86.208 187.818 86.3752 192.119 85.4368C201.612 83.3647 208.732 76.2473 211.291 67.4945C211.291 67.4945 211.291 67.4666 211.291 67.4573C212.459 63.4712 212.672 59.1506 211.726 54.8113H211.736ZM191.971 84.7585C185.445 86.1801 178.761 84.9815 173.152 81.367C167.534 77.7525 163.659 72.1589 162.241 65.6269C161.749 63.369 161.573 61.0925 161.703 58.8439C161.74 58.0448 161.823 57.255 161.944 56.4653C162.083 55.5825 162.259 54.7091 162.5 53.845C162.556 53.622 162.611 53.399 162.676 53.1853C163.344 50.946 164.326 48.781 165.624 46.7647C169.231 41.134 174.811 37.25 181.328 35.8191C185.454 34.9178 189.579 35.1036 193.38 36.1815C193.501 36.2186 193.612 36.2465 193.732 36.2837C193.834 36.3116 193.946 36.3487 194.048 36.3859H194.057C194.956 36.6646 195.846 36.9991 196.699 37.3801C201.51 39.4986 205.608 43.1131 208.287 47.7682C208.426 48.0098 208.565 48.2514 208.695 48.5023C209.455 49.9332 210.085 51.457 210.568 53.0645C210.595 53.1481 210.623 53.241 210.642 53.334C210.799 53.8636 210.938 54.4118 211.059 54.96C213.998 68.4515 205.432 81.8223 191.971 84.7585Z" fill="#EC8515"/>
    <path d="M194.975 50.3324H188.958C190.015 51.1687 190.775 52.3766 190.998 54.0584H194.966V55.8889H191.026C190.664 59.6148 187.707 61.9842 183.044 62.1329C185.89 65.0876 188.986 68.8136 192.045 72.5767H188.551C185.704 69.1481 183.044 65.9703 179.623 62.3187V60.0515H181.625C185.556 60.0515 187.67 58.4069 187.929 55.8889H179.623V54.0584H187.818C187.308 51.9399 185.38 50.8806 182.21 50.8806H179.623V48.502H194.966V50.3324H194.975Z" fill="#E5E9F3"/>
    <path d="M411.675 123.682C396.212 127.064 386.403 142.367 389.778 157.866C393.152 173.364 408.421 183.195 423.884 179.813C439.347 176.431 449.155 161.127 445.781 145.629C442.406 130.13 427.138 120.3 411.675 123.682Z" fill="#EC8515"/>
    <path d="M440.552 128.903C436.612 125.261 431.68 122.761 426.35 121.767C424.625 121.442 422.864 121.284 421.075 121.293C419.87 121.293 418.665 121.377 417.441 121.535C417.042 121.591 416.644 121.646 416.245 121.721C415.837 121.795 415.429 121.869 415.012 121.962C413.872 122.213 412.759 122.529 411.684 122.901C398.177 127.602 389.991 141.791 393.115 156.147C396.388 171.199 410.877 180.9 425.868 178.354C426.183 178.298 426.489 178.242 426.804 178.177C426.943 178.149 427.082 178.121 427.212 178.094C427.62 178.001 428.018 177.908 428.426 177.805C443.185 173.912 452.4 159.008 449.118 143.919C447.811 137.926 444.733 132.778 440.543 128.922L440.552 128.903Z" fill="#ECC310"/>
    <path d="M446.29 144.867C444.677 137.47 440.023 131.496 433.932 128.021C433.923 128.021 433.923 128.012 433.914 128.012C428.593 124.955 422.178 123.793 415.735 125.205C409.032 126.664 403.303 130.66 399.595 136.439C395.886 142.228 394.653 149.113 396.109 155.831C397.574 162.549 401.551 168.291 407.326 172.008C407.641 172.203 407.947 172.398 408.272 172.584C409.041 173.039 409.838 173.448 410.645 173.81C411.609 174.256 412.592 174.628 413.593 174.935C413.695 174.972 413.806 175.009 413.908 175.037C414.029 175.074 414.14 175.102 414.261 175.13C418.256 176.273 422.493 176.403 426.664 175.492C436.12 173.429 443.221 166.368 445.808 157.68C445.817 157.652 445.826 157.643 445.826 157.624H445.836V157.606C445.836 157.606 445.836 157.587 445.836 157.578C445.891 157.392 445.947 157.197 445.993 157.002C446.04 156.844 446.077 156.676 446.114 156.518C446.346 155.617 446.522 154.697 446.642 153.768C447.032 150.878 446.939 147.877 446.281 144.867H446.29ZM426.516 174.814C422.456 175.706 418.33 175.576 414.446 174.47C414.223 174.405 414.001 174.34 413.778 174.266C412.777 173.959 411.804 173.587 410.84 173.141C410.061 172.788 409.282 172.379 408.531 171.933C408.253 171.775 407.975 171.599 407.697 171.422C402.088 167.808 398.213 162.214 396.786 155.682C395.367 149.15 396.572 142.451 400.179 136.82C403.785 131.189 409.356 127.305 415.883 125.884C420.138 124.955 424.375 125.178 428.287 126.339C434.359 128.151 439.615 132.239 442.841 137.824C442.98 138.065 443.12 138.307 443.249 138.558C444.009 139.989 444.64 141.512 445.122 143.12C445.15 143.203 445.178 143.296 445.196 143.389C445.354 143.919 445.493 144.467 445.613 145.015C446.244 147.905 446.336 150.795 445.984 153.573C445.864 154.474 445.697 155.366 445.474 156.249C445.437 156.435 445.382 156.621 445.335 156.807C445.28 157.03 445.215 157.253 445.14 157.476C442.628 165.931 435.712 172.807 426.516 174.814Z" fill="#EC8515"/>
    <path d="M429.52 140.387H423.503C424.56 141.223 425.32 142.431 425.543 144.113H429.511V145.944H425.571C425.209 149.67 422.252 152.039 417.589 152.188C420.435 155.142 423.531 158.868 426.59 162.631H423.095C420.249 159.203 417.589 156.025 414.168 152.373V150.106H416.17C420.11 150.106 422.224 148.462 422.474 145.944H414.168V144.113H422.363C421.853 141.995 419.925 140.935 416.754 140.935H414.168V138.557H429.511V140.387H429.52Z" fill="#E5E9F3"/>
    <path d="M428.88 154.92C413.417 158.302 403.608 173.606 406.983 189.104C410.357 204.603 425.626 214.433 441.089 211.051C456.552 207.669 466.36 192.366 462.986 176.867C459.611 161.368 444.343 151.538 428.88 154.92Z" fill="#EC8515"/>
    <path d="M457.767 160.142C453.827 156.499 448.895 154 443.565 153.006C441.84 152.68 440.079 152.522 438.29 152.532C437.085 152.532 435.879 152.615 434.656 152.773C434.257 152.829 433.858 152.885 433.46 152.959C433.052 153.033 432.644 153.108 432.227 153.201C431.087 153.452 429.974 153.767 428.899 154.139C415.392 158.841 407.206 173.029 410.33 187.385C413.602 202.437 428.092 212.138 443.083 209.592C443.398 209.536 443.704 209.48 444.019 209.415C444.158 209.388 444.297 209.36 444.427 209.332C444.835 209.239 445.233 209.146 445.641 209.044C460.4 205.151 469.615 190.247 466.333 175.157C465.026 169.164 461.948 164.016 457.758 160.16L457.767 160.142Z" fill="#ECC310"/>
    <path d="M463.495 176.104C461.873 168.652 457.173 162.669 451.017 159.175H451.008C450.248 158.738 449.469 158.348 448.663 158.004C447.8 157.614 446.911 157.289 446.002 157.001C445.993 157.001 445.974 156.991 445.956 156.982C445.752 156.926 445.548 156.861 445.335 156.805C441.413 155.7 437.186 155.505 432.94 156.434C426.237 157.902 420.508 161.888 416.8 167.677C415.474 169.749 414.464 171.969 413.778 174.265C413.713 174.488 413.648 174.711 413.592 174.934C413.351 175.807 413.166 176.68 413.036 177.572C412.897 178.381 412.814 179.198 412.767 180.025C412.628 182.358 412.814 184.718 413.324 187.059C414.779 193.777 418.765 199.529 424.532 203.236C426.608 204.574 428.824 205.587 431.114 206.274C435.22 207.492 439.578 207.668 443.879 206.73C453.363 204.658 460.482 197.55 463.041 188.806C463.041 188.787 463.041 188.769 463.06 188.75C464.218 184.773 464.441 180.444 463.495 176.104ZM443.731 206.051C437.204 207.473 430.52 206.265 424.912 202.651C419.294 199.046 415.419 193.452 414 186.92C413.509 184.662 413.333 182.385 413.463 180.137C413.5 179.338 413.583 178.548 413.704 177.758C413.843 176.876 414.028 175.993 414.26 175.129C414.316 174.906 414.38 174.683 414.445 174.469C415.104 172.23 416.095 170.074 417.384 168.048C420.99 162.427 426.571 158.543 433.088 157.112C437.214 156.211 441.339 156.397 445.14 157.474C445.26 157.512 445.372 157.539 445.492 157.577C445.594 157.605 445.705 157.642 445.807 157.679H445.817C446.716 157.958 447.606 158.292 448.459 158.673C453.437 160.866 457.655 164.666 460.325 169.563C460.371 169.637 460.418 169.721 460.455 169.795C461.02 170.873 461.53 172.007 461.929 173.196C462.012 173.419 462.086 173.642 462.16 173.865C462.188 173.949 462.216 174.042 462.244 174.125C462.253 174.144 462.253 174.153 462.262 174.172C462.281 174.209 462.29 174.246 462.299 174.283C462.337 174.367 462.364 174.46 462.383 174.553C462.55 175.11 462.689 175.677 462.819 176.253C465.757 189.745 457.191 203.115 443.731 206.051Z" fill="#EC8515"/>
    <path d="M446.735 171.625H440.718C441.775 172.462 442.535 173.67 442.758 175.351H446.725V177.182H442.786C442.424 180.908 439.467 183.277 434.804 183.426C437.65 186.381 440.746 190.107 443.805 193.87H440.31C437.464 190.441 434.804 187.263 431.383 183.612V181.344H433.385C437.316 181.344 439.43 179.7 439.689 177.182H431.383V175.351H439.578C439.068 173.233 437.14 172.174 433.969 172.174H431.383V169.795H446.725V171.625H446.735Z" fill="#E5E9F3"/>
</svg>
