<?xml version="1.0" encoding="UTF-8"?>
<svg width="1334px" height="834px" viewBox="0 0 1334 834" xmlns="http://www.w3.org/2000/svg" xmlns:xlink="http://www.w3.org/1999/xlink" version="1.1">
 <!-- Generated by Pixelmator Pro 2.1.5 -->
 <path id="Path" d="M987.113 369 C987.113 487.6 910.933 588.4 804.833 625.14 762.126 639.845 716.435 643.714 671.863 636.4 Q665.518 635.365 659.263 634.02 650.788 632.22 642.513 629.88 C528.603 597.82 445.113 493.16 445.113 369 445.113 219.33 566.443 98 716.113 98 865.783 98 987.113 219.33 987.113 369 Z" fill="#e6e6e6" fill-opacity="1" stroke="none"/>
 <path id="Path-1" d="M546.376 452.643 C545.383 453.174 545.007 454.41 545.537 455.404 L647.426 646.244 C647.957 647.237 649.193 647.613 650.187 647.083 L794.217 570.186 C795.211 569.654 795.586 568.419 795.056 567.424 L693.168 376.585 C692.636 375.591 691.4 375.216 690.406 375.746 Z" fill="#3f3d56" fill-opacity="1" stroke="none"/>
 <path id="Path-2" d="M559.764 458.219 L653.003 632.854 780.829 564.609 687.591 389.973 Z M551.664 462.543 L551.682 462.534 551.662 462.544 Z" fill="#ffffff" fill-opacity="1" stroke="none"/>
 <path id="Path-3" d="M591.994 477.419 C590.008 478.479 589.585 481.574 591.05 484.317 592.515 487.06 595.321 488.431 597.307 487.371 L690.927 437.388 C692.912 436.327 693.335 433.232 691.871 430.489 690.406 427.746 687.599 426.375 685.613 427.436 Z" fill="#ffb442" fill-opacity="1" stroke="none"/>
 <path id="Path-4" d="M603.528 499.023 C601.543 500.083 601.12 503.178 602.584 505.922 604.049 508.665 606.856 510.035 608.842 508.975 L702.461 458.992 C704.447 457.932 704.87 454.837 703.405 452.094 701.941 449.35 699.134 447.98 697.148 449.04 Z" fill="#ffb442" fill-opacity="1" stroke="none"/>
 <path id="Path-5" d="M615.063 520.628 C613.077 521.688 612.654 524.783 614.119 527.526 615.584 530.269 618.391 531.64 620.376 530.58 L713.996 480.596 C715.982 479.536 716.404 476.441 714.94 473.698 713.475 470.955 710.668 469.584 708.682 470.644 Z" fill="#ffb442" fill-opacity="1" stroke="none"/>
 <path id="Path-6" d="M626.598 542.232 C624.612 543.292 624.189 546.387 625.654 549.13 627.118 551.874 629.925 553.244 631.911 552.184 L725.53 502.201 C727.516 501.141 727.939 498.046 726.474 495.302 725.01 492.559 722.203 491.189 720.217 492.249 Z" fill="#ffb442" fill-opacity="1" stroke="none"/>
 <path id="Path-7" d="M638.132 563.837 C636.146 564.897 635.724 567.992 637.188 570.735 638.653 573.478 641.46 574.849 643.446 573.789 L737.065 523.805 C739.051 522.745 739.474 519.65 738.009 516.907 736.544 514.164 733.737 512.793 731.752 513.853 Z" fill="#ffb442" fill-opacity="1" stroke="none"/>
 <path id="Path-8" d="M656.312 370.193 L741.142 375.373 764.899 304.525 690.494 288.804 Z" fill="#2f2e41" fill-opacity="1" stroke="none"/>
 <path id="Path-9" d="M751.419 318.351 C751.419 337.088 736.229 352.278 717.491 352.278 698.754 352.278 683.564 337.088 683.564 318.351 683.564 299.613 698.754 284.423 717.491 284.423 736.229 284.423 751.419 299.613 751.419 318.351 Z" fill="#ffb8b8" fill-opacity="1" stroke="none"/>
 <path id="Path-10" d="M804.613 622.5 L804.833 625.14 C762.126 639.845 716.435 643.714 671.863 636.4 L659.263 634.02 671.253 607.43 679.113 590 676.283 529.7 675.983 523.46 675.613 515.5 680.733 515.47 717.133 515.25 751.823 515.03 757.113 515 C790.283 555.8 817.653 588.96 804.613 622.5 Z" fill="#2f2e41" fill-opacity="1" stroke="none"/>
 <path id="Path-11" d="M756.613 514.5 L675.613 523.5 672.613 467.5 C663.107 443.256 669.382 421.616 689.111 402.197 L693.121 386.321 C695.267 377.827 701.959 371.232 710.483 369.209 723.742 361.605 738.761 357.98 755.613 358.5 769.431 363.896 778.091 377.698 776.937 392.487 773.452 436.496 767.195 477.693 756.613 514.5 Z" fill="#ffb442" fill-opacity="1" stroke="none"/>
 <path id="Path-12" d="M691.826 278.266 C691.826 278.266 674.283 284.668 673.832 307.942 673.807 311.859 674.33 315.76 675.386 319.532 676.523 323.809 677.436 333.09 669.786 345.463 664.788 353.493 660.269 361.812 656.253 370.377 L676.006 372.283 679.272 339.538 C680.856 323.662 684.768 308.106 690.884 293.371 L691.011 293.063 C691.011 293.063 700.073 308.813 717.297 308.328 L710.972 302.35 C710.972 302.35 732.544 310.474 744.274 312.105 747.002 312.485 749.297 314.343 750.235 316.933 751.173 319.523 750.6 322.42 748.748 324.458 Q748.645 324.571 748.537 324.685 C741.364 332.274 727.086 349.913 736.079 363.203 745.072 376.493 737.794 380.392 737.794 380.392 L751.119 372.629 757.166 368.765 757.305 373.686 789.187 369.094 C789.187 369.094 797.764 367.622 778.721 347.228 778.721 347.228 773.619 339.243 775.554 332.179 777.156 326.806 777.457 321.129 776.432 315.617 771.648 292.671 754.137 247.276 691.826 278.266 Z" fill="#2f2e41" fill-opacity="1" stroke="none"/>
 <path id="Path-13" d="M838.113 772.157 C838.113 776.023 783.492 779.157 716.113 779.157 648.734 779.157 594.113 776.023 594.113 772.157 594.113 768.291 648.734 765.157 716.113 765.157 783.492 765.157 838.113 768.291 838.113 772.157 Z" fill="#e6e6e6" fill-opacity="1" stroke="none"/>
 <path id="Path-14" d="M259.743 420.533 C259.209 420.675 258.892 421.223 259.034 421.756 L286.324 524.183 C286.467 524.717 287.014 525.034 287.548 524.892 L364.851 504.296 C365.384 504.153 365.701 503.606 365.56 503.072 L338.27 400.645 C338.127 400.112 337.579 399.795 337.046 399.936 Z" fill="#f2f2f2" fill-opacity="1" stroke="none"/>
 <path id="Path-15" d="M278.738 437.449 C277.672 437.733 277.125 439.162 277.517 440.634 277.909 442.107 279.095 443.074 280.161 442.79 L330.408 429.403 C331.474 429.119 332.022 427.689 331.629 426.217 331.237 424.745 330.051 423.777 328.985 424.061 Z" fill="#ffffff" fill-opacity="1" stroke="none"/>
 <path id="Path-16" d="M281.827 449.044 C280.762 449.328 280.214 450.758 280.606 452.23 280.999 453.702 282.185 454.67 283.251 454.386 L333.498 440.998 C334.564 440.714 335.111 439.285 334.719 437.812 334.326 436.34 333.14 435.373 332.075 435.656 Z" fill="#ffffff" fill-opacity="1" stroke="none"/>
 <path id="Path-17" d="M284.917 460.64 C283.851 460.924 283.304 462.353 283.696 463.825 284.088 465.298 285.274 466.265 286.34 465.981 L336.587 452.594 C337.653 452.31 338.2 450.88 337.808 449.408 337.416 447.936 336.23 446.968 335.164 447.252 Z" fill="#ffffff" fill-opacity="1" stroke="none"/>
 <path id="Path-18" d="M288.006 472.235 C286.94 472.519 286.393 473.948 286.785 475.421 287.178 476.893 288.364 477.861 289.43 477.577 L339.677 464.189 C340.742 463.905 341.29 462.476 340.898 461.003 340.505 459.531 339.319 458.564 338.253 458.848 Z" fill="#ffffff" fill-opacity="1" stroke="none"/>
 <path id="Path-19" d="M291.096 483.831 C290.03 484.115 289.483 485.544 289.875 487.016 290.267 488.488 291.453 489.456 292.519 489.172 L342.766 475.784 C343.832 475.5 344.379 474.071 343.987 472.599 343.595 471.127 342.409 470.159 341.343 470.443 Z" fill="#ffffff" fill-opacity="1" stroke="none"/>
 <path id="Path-20" d="M294.185 495.426 C293.119 495.71 292.572 497.139 292.964 498.612 293.357 500.084 294.543 501.052 295.608 500.768 L345.855 487.38 C346.921 487.096 347.469 485.667 347.077 484.194 346.684 482.722 345.498 481.755 344.432 482.038 Z" fill="#ffffff" fill-opacity="1" stroke="none"/>
 <path id="Path-21" d="M457.297 781.426 C457.297 781.553 457.745 781.657 458.297 781.657 L564.297 781.657 C564.848 781.657 565.297 781.553 565.297 781.426 L565.297 762.889 C565.297 762.761 564.848 762.657 564.297 762.657 L458.297 762.657 C457.745 762.657 457.297 762.761 457.297 762.889 Z" fill="#f2f2f2" fill-opacity="1" stroke="none"/>
 <path id="Path-22" d="M478.533 778.182 C478.533 778.437 479.773 778.645 481.297 778.645 482.82 778.645 484.06 778.438 484.06 778.182 L484.06 766.133 C484.06 765.878 482.82 765.67 481.297 765.67 479.773 765.67 478.533 765.877 478.533 766.133 Z" fill="#ffffff" fill-opacity="1" stroke="none"/>
 <path id="Path-23" d="M490.533 778.182 C490.533 778.437 491.773 778.645 493.297 778.645 494.82 778.645 496.06 778.438 496.06 778.182 L496.06 766.133 C496.06 765.878 494.82 765.67 493.297 765.67 491.773 765.67 490.533 765.877 490.533 766.133 Z" fill="#ffffff" fill-opacity="1" stroke="none"/>
 <path id="Path-24" d="M502.533 778.182 C502.533 778.437 503.773 778.645 505.297 778.645 506.82 778.645 508.06 778.438 508.06 778.182 L508.06 766.133 C508.06 765.878 506.82 765.67 505.297 765.67 503.773 765.67 502.533 765.877 502.533 766.133 Z" fill="#ffffff" fill-opacity="1" stroke="none"/>
 <path id="Path-25" d="M514.533 778.182 C514.533 778.437 515.773 778.645 517.297 778.645 518.82 778.645 520.06 778.438 520.06 778.182 L520.06 766.133 C520.06 765.878 518.82 765.67 517.297 765.67 515.773 765.67 514.533 765.877 514.533 766.133 Z" fill="#ffffff" fill-opacity="1" stroke="none"/>
 <path id="Path-26" d="M526.533 778.182 C526.533 778.437 527.773 778.645 529.297 778.645 530.82 778.645 532.06 778.438 532.06 778.182 L532.06 766.133 C532.06 765.878 530.82 765.67 529.297 765.67 527.773 765.67 526.533 765.877 526.533 766.133 Z" fill="#ffffff" fill-opacity="1" stroke="none"/>
 <path id="Path-27" d="M538.533 778.182 C538.533 778.437 539.773 778.645 541.297 778.645 542.82 778.645 544.06 778.438 544.06 778.182 L544.06 766.133 C544.06 765.878 542.82 765.67 541.297 765.67 539.773 765.67 538.533 765.877 538.533 766.133 Z" fill="#ffffff" fill-opacity="1" stroke="none"/>
 <path id="Path-28" d="M262.578 346.617 C262.091 346.878 261.908 347.483 262.167 347.971 L312.09 441.478 C312.351 441.965 312.956 442.149 313.444 441.889 L384.015 404.211 C384.502 403.951 384.686 403.345 384.426 402.858 L334.503 309.351 C334.242 308.864 333.637 308.68 333.15 308.939 Z" fill="#e6e6e6" fill-opacity="1" stroke="none"/>
 <path id="Path-29" d="M269.138 349.35 L314.823 434.917 377.455 401.479 331.77 315.91 Z M265.169 351.468 L265.178 351.464 265.168 351.469 Z" fill="#ffffff" fill-opacity="1" stroke="none"/>
 <path id="Path-30" d="M284.93 358.757 C283.957 359.277 283.75 360.793 284.467 362.137 285.185 363.481 286.56 364.153 287.533 363.633 L333.405 339.143 C334.378 338.623 334.585 337.107 333.868 335.763 333.15 334.418 331.775 333.747 330.802 334.266 Z" fill="#ffb442" fill-opacity="1" stroke="none"/>
 <path id="Path-31" d="M290.582 369.343 C289.609 369.862 289.401 371.379 290.119 372.723 290.837 374.067 292.212 374.739 293.185 374.219 L339.057 349.728 C340.03 349.209 340.237 347.692 339.519 346.348 338.802 345.004 337.426 344.333 336.453 344.852 Z" fill="#ffb442" fill-opacity="1" stroke="none"/>
 <path id="Path-32" d="M296.233 379.929 C295.26 380.448 295.053 381.965 295.771 383.309 296.488 384.653 297.864 385.324 298.837 384.805 L344.708 360.314 C345.681 359.795 345.889 358.278 345.171 356.934 344.453 355.59 343.078 354.918 342.105 355.438 Z" fill="#ffb442" fill-opacity="1" stroke="none"/>
 <path id="Path-33" d="M301.885 390.514 C300.912 391.034 300.705 392.55 301.423 393.894 302.14 395.239 303.516 395.91 304.489 395.391 L350.36 370.9 C351.333 370.38 351.54 368.864 350.823 367.52 350.105 366.176 348.73 365.504 347.757 366.024 Z" fill="#ffb442" fill-opacity="1" stroke="none"/>
 <path id="Path-34" d="M307.537 401.1 C306.564 401.62 306.357 403.136 307.074 404.48 307.792 405.824 309.167 406.496 310.14 405.976 L356.012 381.486 C356.985 380.966 357.192 379.45 356.474 378.106 355.757 376.762 354.381 376.09 353.408 376.609 Z" fill="#ffb442" fill-opacity="1" stroke="none"/>
 <path id="Path-35" d="M313.188 411.686 C312.215 412.205 312.008 413.722 312.726 415.066 313.444 416.41 314.819 417.082 315.792 416.562 L361.664 392.071 C362.637 391.552 362.844 390.035 362.126 388.691 361.408 387.347 360.033 386.676 359.06 387.195 Z" fill="#ffb442" fill-opacity="1" stroke="none"/>
 <path id="Path-36" d="M948.333 585.575 C947.857 585.295 947.244 585.452 946.963 585.927 L893.035 677.184 C892.755 677.659 892.913 678.272 893.388 678.554 L962.261 719.254 C962.736 719.534 963.349 719.377 963.63 718.902 L1017.558 627.645 C1017.838 627.169 1017.681 626.556 1017.206 626.275 Z" fill="#e6e6e6" fill-opacity="1" stroke="none"/>
 <path id="Path-37" d="M949.409 592.599 L900.061 676.108 961.185 712.229 1010.534 628.72 Z M945.536 590.31 L945.544 590.315 945.535 590.31 Z" fill="#ffffff" fill-opacity="1" stroke="none"/>
 <path id="Path-38" d="M949.582 610.98 C948.632 610.419 947.229 611.03 946.454 612.342 945.679 613.654 945.82 615.178 946.769 615.739 L991.537 642.194 C992.486 642.755 993.89 642.144 994.665 640.832 995.44 639.52 995.299 637.996 994.349 637.435 Z" fill="#ffb442" fill-opacity="1" stroke="none"/>
 <path id="Path-39" d="M943.477 621.311 C942.527 620.75 941.124 621.361 940.349 622.673 939.573 623.985 939.715 625.509 940.664 626.07 L985.432 652.525 C986.381 653.086 987.785 652.475 988.56 651.163 989.335 649.851 989.194 648.327 988.244 647.766 Z" fill="#ffb442" fill-opacity="1" stroke="none"/>
 <path id="Path-40" d="M937.372 631.642 C936.422 631.081 935.019 631.692 934.244 633.004 933.468 634.316 933.61 635.84 934.559 636.401 L979.327 662.856 C980.276 663.417 981.68 662.806 982.455 661.494 983.23 660.182 983.089 658.658 982.139 658.097 Z" fill="#ffb442" fill-opacity="1" stroke="none"/>
 <path id="Path-41" d="M931.267 641.973 C930.317 641.411 928.914 642.023 928.139 643.335 927.363 644.646 927.505 646.17 928.454 646.732 L973.222 673.187 C974.171 673.748 975.575 673.136 976.35 671.825 977.125 670.513 976.984 668.989 976.034 668.428 Z" fill="#ffb442" fill-opacity="1" stroke="none"/>
 <path id="Path-42" d="M925.162 652.304 C924.212 651.742 922.809 652.354 922.034 653.666 921.258 654.977 921.4 656.501 922.349 657.063 L967.117 683.518 C968.066 684.079 969.47 683.467 970.245 682.156 971.02 680.844 970.879 679.32 969.929 678.759 Z" fill="#ffb442" fill-opacity="1" stroke="none"/>
 <path id="Path-43" d="M919.057 662.635 C918.107 662.074 916.704 662.685 915.929 663.997 915.153 665.308 915.295 666.833 916.244 667.394 L961.012 693.849 C961.961 694.41 963.365 693.798 964.14 692.487 964.915 691.175 964.774 689.651 963.824 689.09 Z" fill="#ffb442" fill-opacity="1" stroke="none"/>
 <path id="Path-44" d="M699.613 419.5 L698.573 425.94 687.613 493.5 680.733 515.47 678.313 523.2 676.283 529.7 651.613 608.5 644.844 624.403 C637.23 627.219 632.248 634.562 632.444 642.678 632.641 650.794 637.974 657.887 645.715 660.331 653.456 662.775 661.895 660.03 666.716 653.498 671.537 646.967 671.674 638.093 667.058 631.416 L715.343 519.09 717.133 515.25 722.613 503.5 732.963 425.41 733.613 420.5 Z" fill="#ffb8b8" fill-opacity="1" stroke="none"/>
 <path id="Path-45" d="M739.613 427.5 C723.897 421.853 708.821 421.252 694.613 427.5 L699.25 387.305 C698.896 376.863 706.969 368.06 717.403 367.511 727.976 366.955 736.998 375.075 737.555 385.648 L737.558 385.714 Z" fill="#ffb442" fill-opacity="1" stroke="none"/>
</svg>
