<svg width="60" height="60" viewBox="0 0 60 60" fill="none" xmlns="http://www.w3.org/2000/svg">
<path opacity="0.3" d="M37.5 42.5H22.5V40H12.5V47.5H47.5V40H37.5V42.5ZM10 35H22.5V27.5H37.5V35H50V22.5H10V35Z" fill="#FFA400"/>
<path d="M50 17.5H40V12.5L35 7.5H25L20 12.5V17.5H10C7.25 17.5 5 19.75 5 22.5V35C5 36.875 6 38.45 7.5 39.325V47.5C7.5 50.275 9.725 52.5 12.5 52.5H47.5C50.275 52.5 52.5 50.275 52.5 47.5V39.3C53.975 38.425 55 36.825 55 35V22.5C55 19.75 52.75 17.5 50 17.5ZM25 12.5H35V17.5H25V12.5ZM47.5 47.5H12.5V40H22.5V42.5H37.5V40H47.5V47.5ZM27.5 37.5V32.5H32.5V37.5H27.5ZM50 35H37.5V27.5H22.5V35H10V22.5H50V35Z" fill="#FFA400"/>
</svg>
