<?xml version="1.0" encoding="UTF-8"?>
<svg width="61px" height="167px" viewBox="0 0 61 167" version="1.1" xmlns="http://www.w3.org/2000/svg" xmlns:xlink="http://www.w3.org/1999/xlink">
    <!-- Generator: Sketch 46.2 (44496) - http://www.bohemiancoding.com/sketch -->
    <title>hand-ok</title>
    <desc>Created with Sketch.</desc>
    <defs></defs>
    <g id="Page-1" stroke="none" stroke-width="1" fill="none" fill-rule="evenodd">
        <g id="Desktop-HD-Copy-3" transform="translate(-817.000000, -2030.000000)" fill="#BA692D">
            <g id="hand-ok" transform="translate(852.110542, 2116.499466) rotate(49.000000) translate(-852.110542, -2116.499466) translate(781.610542, 2054.499466)">
                <polygon id="Fill-1" points="52.68083 61.2264687 123.90011 123.136444 140.92313 103.465876 60.6652198 33.6987396"></polygon>
                <g id="Group-26" transform="translate(0.789792, 0.594975)">
                    <path d="M74.3915575,64.7978433 C69.4253662,69.7640345 60.302428,68.6924669 54.0148521,62.404891 C47.7269685,56.1170074 46.6557085,46.9940692 51.6218998,42.0278779 C56.5877834,37.0619943 65.7107216,38.1332542 71.9986052,44.4211378 C78.2861811,50.7087138 79.3577487,59.831652 74.3915575,64.7978433" id="Fill-2"></path>
                    <path d="M70.1565427,61.0735382 C70.1565427,65.7988344 62.9481508,69.6294656 54.055955,69.6294656 C45.1637591,69.6294656 37.9550596,65.7988344 37.9550596,61.0735382 C37.9550596,56.348242 45.1637591,52.5176109 54.055955,52.5176109 C62.9481508,52.5176109 70.1565427,56.348242 70.1565427,61.0735382" id="Fill-4"></path>
                    <path d="M18.1620401,1.57560124 L18.1620401,1.57560124 C19.8544585,-0.214959598 22.6778222,-0.294642632 24.4683831,1.39777578 L64.895678,39.6087133 C66.6862389,41.3008241 66.7659219,44.1244954 65.0735035,45.9147486 L65.0735035,45.9150563 C63.3810851,47.7053095 60.5577213,47.7849925 58.7671605,46.0925741 L18.3398656,7.88194421 C16.5493047,6.1895258 16.4696217,3.36616208 18.1620401,1.57560124" id="Fill-6"></path>
                    <path d="M0.527692432,9.51815379 L0.527692432,9.51815379 C1.68909573,7.34548357 4.39216575,6.525579 6.56483597,7.68698229 L55.2176351,33.694417 C57.390613,34.8558203 58.2102099,37.5588903 57.0488066,39.7315605 L57.0488066,39.7315605 C55.8874034,41.9045384 53.1843333,42.724443 51.0116631,41.562732 L2.35886393,15.5552973 C0.186193715,14.393894 -0.633710862,11.690824 0.527692432,9.51815379" id="Fill-8"></path>
                    <path d="M35.3685606,2.27136642 L35.3685606,2.27136642 C37.3714045,0.836764153 40.158157,1.29732594 41.593067,3.30016976 L74.5692291,49.3363504 C76.004139,51.3391942 75.5432696,54.1259468 73.5404258,55.5608567 L73.5404258,55.5608567 C71.5375819,56.995459 68.7508293,56.5348972 67.3162271,54.5320534 L34.3397573,8.49587276 C32.905155,6.49272128 33.3657168,3.70596869 35.3685606,2.27136642" id="Fill-10"></path>
                    <path d="M31.1815095,58.7905732 L58.626623,48.9578714 C61.3893784,47.9681404 64.4594826,49.4187408 65.4492136,52.1811885 L65.4492136,52.1811885 C66.4389446,54.9439439 64.9883442,58.0140482 62.2258964,59.0037791 L34.7804752,68.8364809 C32.0180275,69.8262119 28.9479233,68.3756115 27.9581923,65.6131637 L27.9581923,65.6131637 C26.9684613,62.8504084 28.4187541,59.7803041 31.1815095,58.7905732" id="Fill-12"></path>
                    <path d="M13.4549571,40.6413623 L16.5130628,35.0817017 C17.9273597,32.5103087 21.188211,31.5639573 23.7592964,32.9782542 L23.7592964,32.9782542 C26.3306894,34.3925511 27.2773485,37.6534024 25.8630515,40.2244878 L22.8049459,45.7841484 C21.390649,48.3555415 18.1297977,49.3022005 15.5587123,47.8879036 L15.5587123,47.8879036 C12.9873193,46.4736067 12.0406602,43.2127554 13.4549571,40.6413623" id="Fill-14"></path>
                    <path d="M20.4980759,32.3328216 L37.7320702,26.3732075 C40.5052859,25.4142422 43.559392,26.8986848 44.5183573,29.6722082 L44.5183573,29.6722082 C45.4773226,32.4457316 43.99288,35.49953 41.2193566,36.4584953 L23.98567,42.4181094 C21.2121467,43.3770747 18.1583482,41.8926321 17.1990752,39.1191087 L17.1990752,39.1191087 C16.2401099,36.3455854 17.7245525,33.2917869 20.4980759,32.3328216" id="Fill-16"></path>
                    <path d="M13.223138,51.8918991 L12.6758171,44.6773542 C12.4539967,41.7512332 14.6663546,39.1752253 17.5924756,38.953405 L17.5924756,38.953405 C20.5185966,38.731277 23.0942968,40.9439425 23.3164248,43.8700635 L23.8637457,51.0846085 C24.0855661,54.0107295 21.8732082,56.5867373 18.9470872,56.8085577 L18.9470872,56.8085577 C16.0209662,57.0306857 13.4449583,54.8180201 13.223138,51.8918991" id="Fill-18"></path>
                    <path d="M27.0850631,56.0360014 L33.8728885,58.884593 C36.5787275,60.0201531 37.8638087,63.163172 36.7282485,65.8693186 L36.7282485,65.8693186 C35.5926884,68.5751575 32.4493619,69.859931 29.743523,68.7243709 L22.9556976,65.8757793 C20.2498586,64.7402192 18.9647774,61.5972004 20.1003376,58.8913614 L20.1003376,58.8910538 C21.2362054,56.1852148 24.3792242,54.9004413 27.0850631,56.0360014" id="Fill-20"></path>
                    <path d="M43.8197924,29.9086115 L53.7857095,38.0565862 C56.0574451,39.9142162 56.3967902,43.2925923 54.5391603,45.5646355 L54.5391603,45.5646355 C52.681838,47.8363711 49.3031543,48.1754086 47.031111,46.3180863 L37.0655016,38.1701115 C34.7934583,36.3124815 34.4544209,32.9341055 36.3117432,30.6620622 L36.3117432,30.6620622 C38.1693731,28.3903266 41.5480568,28.0512892 43.8197924,29.9086115" id="Fill-22"></path>
                    <path d="M38.6119985,58.6334838 C39.264538,57.5456104 49.0541679,52.977219 43.6154162,41.01215 C38.1769722,29.047081 56.2333323,40.1420974 56.2333323,40.1420974 L62.3246234,49.2788802 L59.0613109,57.7634312 L47.9666021,62.3318226 L37.0890988,58.8509969" id="Fill-24"></path>
                </g>
            </g>
        </g>
    </g>
</svg>