<?xml version="1.0" encoding="UTF-8"?>
<svg width="52px" height="166px" viewBox="0 0 52 166" version="1.1" xmlns="http://www.w3.org/2000/svg" xmlns:xlink="http://www.w3.org/1999/xlink">
    <!-- Generator: Sketch 46.2 (44496) - http://www.bohemiancoding.com/sketch -->
    <title>hand-dinero</title>
    <desc>Created with Sketch.</desc>
    <defs></defs>
    <g id="Page-1" stroke="none" stroke-width="1" fill="none" fill-rule="evenodd">
        <g id="Desktop-HD-Copy-3" transform="translate(-1209.000000, -2031.000000)">
            <g id="hand-dinero" transform="translate(1208.000000, 2031.000000)">
                <g id="Page-1" transform="translate(26.781250, 83.555921) rotate(-270.000000) translate(-26.781250, -83.555921) translate(-56.218750, 57.555921)">
                    <path d="M31.141356,44.5162674 L20.597106,29.2294626 C18.7064317,26.4891183 19.4028527,22.7005152 22.1422902,20.8107477 C24.8826345,18.9200734 28.6712376,19.6155876 30.561912,22.3559319 L41.106162,37.6427367 C42.9959295,40.383081 42.3004152,44.1716841 39.5600709,46.0623584 C36.8197266,47.952126 33.0311236,47.2566117 31.141356,44.5162674 Z" id="Fill-1" fill="#E89456"></path>
                    <path d="M39.5055724,40.3354741 L26.4875768,27.0916857 C24.1534781,24.7176879 24.1861228,20.865609 26.5601206,18.5324171 L26.5601206,18.5324171 C28.9341184,16.1983184 32.7861974,16.23187 35.1202961,18.6058678 L48.1382917,31.8496561 C50.4723904,34.2236539 50.4388388,38.0748261 48.064841,40.4089248 L48.064841,40.4089248 C45.6908432,42.7421167 41.8396711,42.7094719 39.5055724,40.3354741" id="Fill-3" fill="#E89456"></path>
                    <path d="M21.7483771,47.196491 L16.3901063,29.4150842 C15.4298069,26.2276884 17.2524714,22.8344493 20.4398672,21.87415 L20.4398672,21.87415 C23.627263,20.9138507 27.0205021,22.7356083 27.9808014,25.9230042 L33.3390723,43.7035042 C34.2993716,46.8909 32.4776139,50.2850458 29.2902181,51.2453452 L29.2902181,51.2453452 C26.1028223,52.2056445 22.7086764,50.3838868 21.7483771,47.196491" id="Fill-5" fill="#E89456"></path>
                    <polygon id="Fill-7" fill="#FFBC85" points="60.5659616 36.7363281 165.257405 36.7363281 165.257405 10.828125 60.5659616 10.828125"></polygon>
                    <path d="M90.1896094,26.2487261 C90.1896094,35.1616461 81.0409219,42.3870145 69.7567246,42.3870145 C58.4716204,42.3870145 48.1232388,36.3613401 48.1232388,27.4484202 C48.1232388,18.5355002 57.2710195,11.3101318 68.5561237,11.3101318 C79.8412279,11.3101318 90.1896094,17.3358061 90.1896094,26.2487261" id="Fill-9" fill="#FFBC85"></path>
                    <path d="M17.3786977,29.4175326 L16.1436385,28.1824734 C14.2738205,26.3126554 14.2738205,23.2812288 16.1436385,21.4114109 L36.1521418,1.40290757 C38.0228666,-0.467817215 41.0542931,-0.467817215 42.9241111,1.40290757 L44.1591703,2.63705998 C46.0289883,4.50687796 46.0289883,7.53921129 44.1591703,9.40902928 L24.150667,29.4175326 C22.280849,31.2873505 19.2485157,31.2873505 17.3786977,29.4175326" id="Fill-10" fill="#FFBC85"></path>
                    <path d="M34.5319654,4.27129178 L34.5319654,4.27129178 C35.5167482,1.30334112 38.7213732,-0.303505373 41.6884171,0.681277522 L76.4967746,12.234794 C79.4647252,13.2195769 82.2721726,15.2245078 81.2864829,18.1915516 L81.2864829,18.1915516 C80.3017,21.1595023 77.0979818,22.7663488 74.1300311,21.7815659 L38.1219796,11.4277435 C35.1540289,10.4429606 33.5471825,7.23924243 34.5319654,4.27129178" id="Fill-11" fill="#FFBC85"></path>
                    <path d="M55.0832781,23.544291 L32.6808274,23.544291 C31.6833493,23.544291 30.8672309,22.7281726 30.8672309,21.7306945 L30.8672309,12.0823612 C30.8672309,11.0848831 31.6833493,10.2687647 32.6808274,10.2687647 L55.0832781,10.2687647 C56.0807561,10.2687647 56.8968746,11.0848831 56.8968746,12.0823612 L56.8968746,21.7306945 C56.8968746,22.7281726 56.0807561,23.544291 55.0832781,23.544291" id="Fill-12" fill="#FFBC85"></path>
                    <path d="M4.09700515,33.6641594 C2.11927818,31.6864325 1.02930669,29.0567175 1.02930669,26.259245 C1.02930669,23.4617724 2.11927818,20.8329643 4.09700515,18.8552373 C6.07563893,16.8766035 8.70444704,15.7875388 11.5019196,15.7875388 C14.2984854,15.7875388 16.9282003,16.8766035 18.9068341,18.8552373 C22.9892398,22.937643 22.9892398,29.5808469 18.9068341,33.6641594 C16.9282003,35.6418864 14.2984854,36.7309511 11.5019196,36.7309511 C8.70444704,36.7309511 6.07563893,35.6418864 4.09700515,33.6641594 Z" id="Fill-16" fill="#EAC300"></path>
                    <path d="M11.5014662,14.7575067 C8.55799912,14.7575067 5.61453202,15.8810297 3.36839276,18.1262622 C-1.12297895,22.6176339 -1.12297895,29.9001306 3.36839276,34.3924091 C5.61453202,36.6385484 8.55799912,37.7611646 11.5014662,37.7611646 C14.4449333,37.7611646 17.3884004,36.6385484 19.6345397,34.3924091 C24.1259114,29.9001306 24.1259114,22.6176339 19.6345397,18.1262622 C17.3884004,15.8810297 14.4449333,14.7575067 11.5014662,14.7575067 M11.5014662,16.8177523 C14.0232721,16.8177523 16.3945496,17.7998148 18.1773149,19.583487 C19.9609871,21.3662523 20.9430496,23.7375297 20.9430496,26.2593356 C20.9430496,28.7811416 19.9609871,31.152419 18.1773149,32.9351843 C16.3945496,34.7188565 14.0232721,35.700919 11.5014662,35.700919 C8.97966031,35.700919 6.60838289,34.7188565 4.82561754,32.9360911 C1.14401667,29.2544902 1.14401667,23.264181 4.82561754,19.583487 C6.60838289,17.7998148 8.97966031,16.8177523 11.5014662,16.8177523" id="Fill-17" fill="#C16C06"></path>
                    <path d="M26.946594,21.1180009 C26.946594,27.2344444 21.9884441,32.1925943 15.8720006,32.1925943 C9.75555718,32.1925943 4.79740728,27.2344444 4.79740728,21.1180009 L26.946594,21.1180009 Z" fill="#692721" opacity="0.200000003" transform="translate(15.872001, 26.655298) rotate(-90.000000) translate(-15.872001, -26.655298) "></path>
                    <path d="M17.0688907,32.78125 C13.349882,32.78125 10.3073036,29.7344079 10.3073036,26.0101875 C10.3073036,22.2859671 13.349882,19.2382182 17.0688907,19.2382182 L52.5457165,19.2382182 C56.2647253,19.2382182 59.3073036,22.2859671 59.3073036,26.0101875 C59.3073036,29.7344079 56.2647253,32.78125 52.5457165,32.78125 L17.0688907,32.78125 Z" id="Fill-18" fill="#FFBC85"></path>
                </g>
            </g>
        </g>
    </g>
</svg>