<?xml version="1.0" encoding="UTF-8"?>
<svg width="48px" height="166px" viewBox="0 0 48 166" version="1.1" xmlns="http://www.w3.org/2000/svg" xmlns:xlink="http://www.w3.org/1999/xlink">
    <!-- Generator: Sketch 46.2 (44496) - http://www.bohemiancoding.com/sketch -->
    <title>hand-card</title>
    <desc>Created with Sketch.</desc>
    <defs>
        <polygon id="path-1" points="28.0224976 0.28437316 28.0224976 16.4808542 0.302569539 16.4808542 0.302569539 0.28437316"></polygon>
    </defs>
    <g id="Page-1" stroke="none" stroke-width="1" fill="none" fill-rule="evenodd">
        <g id="Desktop-HD-Copy-3" transform="translate(-440.000000, -2031.000000)">
            <g id="hand-card" transform="translate(463.000000, 2114.423173) scale(-1, 1) translate(-463.000000, -2114.423173) translate(438.500000, 2030.923173)">
                <path d="M40.956406,47.9264057 C43.4979912,49.6799105 44.1433565,53.1937411 42.3903764,55.7358509 C40.6368715,58.2774361 37.1225162,58.9228014 34.5809311,57.1692966 L20.4012576,47.3886012 C17.8596725,45.635621 17.2143072,42.1212657 18.9672873,39.5796806 C20.7207922,37.0375708 24.2351475,36.3927301 26.7767326,38.1457103 L40.956406,47.9264057 Z" id="Fill-1" fill="#9B5E35"></path>
                <path d="M37.07839,55.6848513 L24.793887,43.6091739 C22.5917745,41.4448389 19.0191789,41.4752708 16.8543192,43.6773832 L16.8543192,43.6773832 C14.6899843,45.8794957 14.7204161,49.4520913 16.9225286,51.616951 L29.2070316,63.6926284 C31.4091441,65.8569634 34.9817397,65.8265315 37.1465993,63.6244191 L37.1465993,63.6244191 C39.3109343,61.4223066 39.2805024,57.849711 37.07839,55.6848513" id="Fill-3" fill="#9B5E35"></path>
                <g id="Group-7" transform="translate(19.413429, 33.721705)">
                    <mask id="mask-2" fill="white">
                        <use xlink:href="#path-1"></use>
                    </mask>
                    <g id="Clip-6"></g>
                    <path d="M24.0291028,5.49211151 L7.53608323,0.522273707 C4.57947048,-0.368645275 1.43134687,1.32137242 0.540427886,4.27798517 L0.540427886,4.27798517 C-0.350491095,7.23459793 1.34005128,10.3821968 4.29613935,11.2731158 L20.7896836,16.2429536 C23.7462964,17.1338726 26.8938953,15.4438549 27.7848143,12.4872422 L27.7848143,12.4872422 C28.6757333,9.53062941 26.9857156,6.38303049 24.0291028,5.49211151" id="Fill-5" fill="#9B5E35" mask="url(#mask-2)"></path>
                </g>
                <polygon id="Fill-8" fill="#D17C3D" points="35.5 166.076827 35.5 71.0768269 10.5 71.0768269 10.5 166.076827"></polygon>
                <path d="M25.1250696,98.584651 C33.3925669,98.584651 40.0943973,90.0988838 40.0943973,79.6313728 C40.0943973,69.1638618 33.3925669,60.6780946 25.1250696,60.6780946 C16.8575723,60.6780946 10.1557418,69.1638618 10.1557418,79.6313728 C10.1557418,90.0988838 16.8575723,98.584651 25.1250696,98.584651" id="Fill-10" fill="#D17C3D"></path>
                <path d="M26.3786524,31.5879109 L26.3786524,31.5879109 C24.3276499,29.5369083 21.0027067,29.5369083 18.9522288,31.5879109 L1.53785838,49.0017566 C-0.512619461,51.0527591 -0.512619461,54.3777023 1.53785838,56.4287049 L1.53785838,56.4287049 C3.58886091,58.4791827 6.91380413,58.4791827 8.96480666,56.4287049 L26.3786524,39.0143345 C28.4296549,36.9638566 28.4296549,33.6389134 26.3786524,31.5879109" id="Fill-12" fill="#D17C3D"></path>
                <path d="M3.62648099,48.0714336 L3.62648099,48.0714336 C0.873971582,48.9849141 -0.616664946,51.9572675 0.296815588,54.7097769 L11.013553,86.9969326 C11.9270336,89.7494421 14.8988623,91.2400786 17.6518964,90.326598 L17.6518964,90.326598 C20.4044058,89.4131175 21.8950423,86.4407641 20.9815618,83.6882547 L10.2648243,51.401099 C9.35134377,48.6485896 6.3789904,47.1579531 3.62648099,48.0714336" id="Fill-14" fill="#D17C3D"></path>
                <path d="M21.5034157,67.7669869 L21.5034157,45.7217266 C21.5034157,45.1445706 21.0311972,44.6723521 20.4540412,44.6723521 L10.2394294,44.6723521 C9.66227345,44.6723521 9.19005491,45.1445706 9.19005491,45.7217266 L9.19005491,67.7669869 C9.19005491,68.3441429 9.66227345,68.8163614 10.2394294,68.8163614 L20.4540412,68.8163614 C21.0311972,68.8163614 21.5034157,68.3441429 21.5034157,67.7669869" id="Fill-16" fill="#D17C3D"></path>
                <path d="M37.5,2.43177664 L37.5,38.7218772 C37.5,40.0226032 36.439453,41.0768269 35.1309252,41.0768269 L11.8690748,41.0768269 C10.560547,41.0768269 9.5,40.0226032 9.5,38.7218772 L9.5,2.43177664 C9.5,1.13105063 10.560547,0.0768269336 11.8690748,0.0768269336 L35.1309252,0.0768269336 C36.439453,0.0768269336 37.5,1.13105063 37.5,2.43177664" id="Fill-18" fill="#9B9794"></path>
                <polygon id="Fill-20" fill="#383838" points="13.5 42.0768269 18.5 42.0768269 18.5 0.0768269336 13.5 0.0768269336"></polygon>
                <path d="M25.5,58.8668715 L25.5,26.2867823 C25.5,22.8713328 22.7998622,20.0768269 19.4997494,20.0768269 L19.4997494,20.0768269 C16.1996366,20.0768269 13.5,22.8713328 13.5,26.2867823 L13.5,58.8668715 C13.5,62.2823211 16.1996366,65.0768269 19.4997494,65.0768269 L19.4997494,65.0768269 C22.7998622,65.0768269 25.5,62.2823211 25.5,58.8668715" id="Fill-22" fill="#D17C3D"></path>
            </g>
        </g>
    </g>
</svg>