<svg width="738" height="212" viewBox="0 0 738 212" fill="none" xmlns="http://www.w3.org/2000/svg">
	<path d="M3.35877 157V146.5H7.90377C8.84377 146.5 9.65377 146.655 10.3338 146.965C11.0138 147.265 11.5388 147.7 11.9088 148.27C12.2788 148.84 12.4638 149.52 12.4638 150.31C12.4638 151.09 12.2788 151.765 11.9088 152.335C11.5388 152.895 11.0138 153.325 10.3338 153.625C9.65377 153.925 8.84377 154.075 7.90377 154.075H4.70877L5.78877 153.01V157H3.35877ZM10.0338 157L7.40877 153.19H10.0038L12.6588 157H10.0338ZM5.78877 153.28L4.70877 152.14H7.76877C8.51877 152.14 9.07877 151.98 9.44877 151.66C9.81877 151.33 10.0038 150.88 10.0038 150.31C10.0038 149.73 9.81877 149.28 9.44877 148.96C9.07877 148.64 8.51877 148.48 7.76877 148.48H4.70877L5.78877 147.325V153.28ZM14.074 157V148.93H16.414V157H14.074ZM15.244 147.805C14.814 147.805 14.464 147.68 14.194 147.43C13.924 147.18 13.789 146.87 13.789 146.5C13.789 146.13 13.924 145.82 14.194 145.57C14.464 145.32 14.814 145.195 15.244 145.195C15.674 145.195 16.024 145.315 16.294 145.555C16.564 145.785 16.699 146.085 16.699 146.455C16.699 146.845 16.564 147.17 16.294 147.43C16.034 147.68 15.684 147.805 15.244 147.805ZM21.1508 157.12C20.4608 157.12 19.7958 157.04 19.1558 156.88C18.5258 156.71 18.0258 156.5 17.6558 156.25L18.4358 154.57C18.8058 154.8 19.2408 154.99 19.7408 155.14C20.2508 155.28 20.7508 155.35 21.2408 155.35C21.7808 155.35 22.1608 155.285 22.3808 155.155C22.6108 155.025 22.7258 154.845 22.7258 154.615C22.7258 154.425 22.6358 154.285 22.4558 154.195C22.2858 154.095 22.0558 154.02 21.7658 153.97C21.4758 153.92 21.1558 153.87 20.8058 153.82C20.4658 153.77 20.1208 153.705 19.7708 153.625C19.4208 153.535 19.1008 153.405 18.8108 153.235C18.5208 153.065 18.2858 152.835 18.1058 152.545C17.9358 152.255 17.8508 151.88 17.8508 151.42C17.8508 150.91 17.9958 150.46 18.2858 150.07C18.5858 149.68 19.0158 149.375 19.5758 149.155C20.1358 148.925 20.8058 148.81 21.5858 148.81C22.1358 148.81 22.6958 148.87 23.2658 148.99C23.8358 149.11 24.3108 149.285 24.6908 149.515L23.9108 151.18C23.5208 150.95 23.1258 150.795 22.7258 150.715C22.3358 150.625 21.9558 150.58 21.5858 150.58C21.0658 150.58 20.6858 150.65 20.4458 150.79C20.2058 150.93 20.0858 151.11 20.0858 151.33C20.0858 151.53 20.1708 151.68 20.3408 151.78C20.5208 151.88 20.7558 151.96 21.0458 152.02C21.3358 152.08 21.6508 152.135 21.9908 152.185C22.3408 152.225 22.6908 152.29 23.0408 152.38C23.3908 152.47 23.7058 152.6 23.9858 152.77C24.2758 152.93 24.5108 153.155 24.6908 153.445C24.8708 153.725 24.9608 154.095 24.9608 154.555C24.9608 155.055 24.8108 155.5 24.5108 155.89C24.2108 156.27 23.7758 156.57 23.2058 156.79C22.6458 157.01 21.9608 157.12 21.1508 157.12ZM28.1895 155.35L28.2495 152.5L32.0145 148.93H34.8045L31.1895 152.605L29.9745 153.595L28.1895 155.35ZM26.2545 157V145.87H28.5945V157H26.2545ZM32.2695 157L29.5395 153.61L31.0095 151.795L35.1045 157H32.2695ZM42.5199 151.225H47.5599V153.175H42.5199V151.225ZM42.6999 157H40.2699V146.5H48.2049V148.45H42.6999V157ZM49.3885 157V148.93H51.6235V151.21L51.3085 150.55C51.5485 149.98 51.9335 149.55 52.4635 149.26C52.9935 148.96 53.6385 148.81 54.3985 148.81V150.97C54.2985 150.96 54.2085 150.955 54.1285 150.955C54.0485 150.945 53.9635 150.94 53.8735 150.94C53.2335 150.94 52.7135 151.125 52.3135 151.495C51.9235 151.855 51.7285 152.42 51.7285 153.19V157H49.3885ZM59.5863 157.12C58.6663 157.12 57.8563 156.94 57.1563 156.58C56.4663 156.22 55.9313 155.73 55.5513 155.11C55.1713 154.48 54.9813 153.765 54.9813 152.965C54.9813 152.155 55.1663 151.44 55.5363 150.82C55.9163 150.19 56.4313 149.7 57.0813 149.35C57.7313 148.99 58.4663 148.81 59.2863 148.81C60.0763 148.81 60.7863 148.98 61.4163 149.32C62.0563 149.65 62.5613 150.13 62.9313 150.76C63.3013 151.38 63.4863 152.125 63.4863 152.995C63.4863 153.085 63.4813 153.19 63.4713 153.31C63.4613 153.42 63.4513 153.525 63.4413 153.625H56.8863V152.26H62.2113L61.3113 152.665C61.3113 152.245 61.2263 151.88 61.0563 151.57C60.8863 151.26 60.6513 151.02 60.3513 150.85C60.0513 150.67 59.7013 150.58 59.3013 150.58C58.9013 150.58 58.5463 150.67 58.2363 150.85C57.9363 151.02 57.7013 151.265 57.5313 151.585C57.3613 151.895 57.2763 152.265 57.2763 152.695V153.055C57.2763 153.495 57.3713 153.885 57.5613 154.225C57.7613 154.555 58.0363 154.81 58.3863 154.99C58.7463 155.16 59.1663 155.245 59.6463 155.245C60.0763 155.245 60.4513 155.18 60.7713 155.05C61.1013 154.92 61.4013 154.725 61.6713 154.465L62.9163 155.815C62.5463 156.235 62.0813 156.56 61.5213 156.79C60.9613 157.01 60.3163 157.12 59.5863 157.12ZM68.8992 157.12C67.9792 157.12 67.1692 156.94 66.4692 156.58C65.7792 156.22 65.2442 155.73 64.8642 155.11C64.4842 154.48 64.2942 153.765 64.2942 152.965C64.2942 152.155 64.4792 151.44 64.8492 150.82C65.2292 150.19 65.7442 149.7 66.3942 149.35C67.0442 148.99 67.7792 148.81 68.5992 148.81C69.3892 148.81 70.0992 148.98 70.7292 149.32C71.3692 149.65 71.8742 150.13 72.2442 150.76C72.6142 151.38 72.7992 152.125 72.7992 152.995C72.7992 153.085 72.7942 153.19 72.7842 153.31C72.7742 153.42 72.7642 153.525 72.7542 153.625H66.1992V152.26H71.5242L70.6242 152.665C70.6242 152.245 70.5392 151.88 70.3692 151.57C70.1992 151.26 69.9642 151.02 69.6642 150.85C69.3642 150.67 69.0142 150.58 68.6142 150.58C68.2142 150.58 67.8592 150.67 67.5492 150.85C67.2492 151.02 67.0142 151.265 66.8442 151.585C66.6742 151.895 66.5892 152.265 66.5892 152.695V153.055C66.5892 153.495 66.6842 153.885 66.8742 154.225C67.0742 154.555 67.3492 154.81 67.6992 154.99C68.0592 155.16 68.4792 155.245 68.9592 155.245C69.3892 155.245 69.7642 155.18 70.0842 155.05C70.4142 154.92 70.7142 154.725 70.9842 154.465L72.2292 155.815C71.8592 156.235 71.3942 156.56 70.8342 156.79C70.2742 157.01 69.6292 157.12 68.8992 157.12ZM83.4951 157.18C82.6851 157.18 81.9301 157.05 81.2301 156.79C80.5401 156.52 79.9401 156.14 79.4301 155.65C78.9201 155.16 78.5201 154.585 78.2301 153.925C77.9501 153.265 77.8101 152.54 77.8101 151.75C77.8101 150.96 77.9501 150.235 78.2301 149.575C78.5201 148.915 78.9201 148.34 79.4301 147.85C79.9501 147.36 80.5551 146.985 81.2451 146.725C81.9351 146.455 82.6901 146.32 83.5101 146.32C84.4201 146.32 85.2401 146.48 85.9701 146.8C86.7101 147.11 87.3301 147.57 87.8301 148.18L86.2701 149.62C85.9101 149.21 85.5101 148.905 85.0701 148.705C84.6301 148.495 84.1501 148.39 83.6301 148.39C83.1401 148.39 82.6901 148.47 82.2801 148.63C81.8701 148.79 81.5151 149.02 81.2151 149.32C80.9151 149.62 80.6801 149.975 80.5101 150.385C80.3501 150.795 80.2701 151.25 80.2701 151.75C80.2701 152.25 80.3501 152.705 80.5101 153.115C80.6801 153.525 80.9151 153.88 81.2151 154.18C81.5151 154.48 81.8701 154.71 82.2801 154.87C82.6901 155.03 83.1401 155.11 83.6301 155.11C84.1501 155.11 84.6301 155.01 85.0701 154.81C85.5101 154.6 85.9101 154.285 86.2701 153.865L87.8301 155.305C87.3301 155.915 86.7101 156.38 85.9701 156.7C85.2401 157.02 84.4151 157.18 83.4951 157.18ZM92.7178 157.12C91.8578 157.12 91.0928 156.94 90.4228 156.58C89.7628 156.22 89.2378 155.73 88.8478 155.11C88.4678 154.48 88.2778 153.765 88.2778 152.965C88.2778 152.155 88.4678 151.44 88.8478 150.82C89.2378 150.19 89.7628 149.7 90.4228 149.35C91.0928 148.99 91.8578 148.81 92.7178 148.81C93.5678 148.81 94.3278 148.99 94.9978 149.35C95.6678 149.7 96.1928 150.185 96.5728 150.805C96.9528 151.425 97.1428 152.145 97.1428 152.965C97.1428 153.765 96.9528 154.48 96.5728 155.11C96.1928 155.73 95.6678 156.22 94.9978 156.58C94.3278 156.94 93.5678 157.12 92.7178 157.12ZM92.7178 155.2C93.1078 155.2 93.4578 155.11 93.7678 154.93C94.0778 154.75 94.3228 154.495 94.5028 154.165C94.6828 153.825 94.7728 153.425 94.7728 152.965C94.7728 152.495 94.6828 152.095 94.5028 151.765C94.3228 151.435 94.0778 151.18 93.7678 151C93.4578 150.82 93.1078 150.73 92.7178 150.73C92.3278 150.73 91.9778 150.82 91.6678 151C91.3578 151.18 91.1078 151.435 90.9178 151.765C90.7378 152.095 90.6478 152.495 90.6478 152.965C90.6478 153.425 90.7378 153.825 90.9178 154.165C91.1078 154.495 91.3578 154.75 91.6678 154.93C91.9778 155.11 92.3278 155.2 92.7178 155.2ZM98.5569 157V148.93H100.792V151.21L100.477 150.55C100.717 149.98 101.102 149.55 101.632 149.26C102.162 148.96 102.807 148.81 103.567 148.81V150.97C103.467 150.96 103.377 150.955 103.297 150.955C103.217 150.945 103.132 150.94 103.042 150.94C102.402 150.94 101.882 151.125 101.482 151.495C101.092 151.855 100.897 152.42 100.897 153.19V157H98.5569ZM109.593 157.12C108.913 157.12 108.318 156.97 107.808 156.67C107.298 156.37 106.898 155.915 106.608 155.305C106.328 154.685 106.188 153.905 106.188 152.965C106.188 152.015 106.323 151.235 106.593 150.625C106.863 150.015 107.253 149.56 107.763 149.26C108.273 148.96 108.883 148.81 109.593 148.81C110.353 148.81 111.033 148.985 111.633 149.335C112.243 149.675 112.723 150.155 113.073 150.775C113.433 151.395 113.613 152.125 113.613 152.965C113.613 153.815 113.433 154.55 113.073 155.17C112.723 155.79 112.243 156.27 111.633 156.61C111.033 156.95 110.353 157.12 109.593 157.12ZM104.823 159.91V148.93H107.058V150.58L107.013 152.98L107.163 155.365V159.91H104.823ZM109.188 155.2C109.578 155.2 109.923 155.11 110.223 154.93C110.533 154.75 110.778 154.495 110.958 154.165C111.148 153.825 111.243 153.425 111.243 152.965C111.243 152.495 111.148 152.095 110.958 151.765C110.778 151.435 110.533 151.18 110.223 151C109.923 150.82 109.578 150.73 109.188 150.73C108.798 150.73 108.448 150.82 108.138 151C107.828 151.18 107.583 151.435 107.403 151.765C107.223 152.095 107.133 152.495 107.133 152.965C107.133 153.425 107.223 153.825 107.403 154.165C107.583 154.495 107.828 154.75 108.138 154.93C108.448 155.11 108.798 155.2 109.188 155.2ZM118.434 157.12C117.764 157.12 117.164 156.99 116.634 156.73C116.114 156.47 115.709 156.075 115.419 155.545C115.129 155.005 114.984 154.32 114.984 153.49V148.93H117.324V153.145C117.324 153.815 117.464 154.31 117.744 154.63C118.034 154.94 118.439 155.095 118.959 155.095C119.319 155.095 119.639 155.02 119.919 154.87C120.199 154.71 120.419 154.47 120.579 154.15C120.739 153.82 120.819 153.41 120.819 152.92V148.93H123.159V157H120.939V154.78L121.344 155.425C121.074 155.985 120.674 156.41 120.144 156.7C119.624 156.98 119.054 157.12 118.434 157.12ZM127.892 157.12C127.202 157.12 126.537 157.04 125.897 156.88C125.267 156.71 124.767 156.5 124.397 156.25L125.177 154.57C125.547 154.8 125.982 154.99 126.482 155.14C126.992 155.28 127.492 155.35 127.982 155.35C128.522 155.35 128.902 155.285 129.122 155.155C129.352 155.025 129.467 154.845 129.467 154.615C129.467 154.425 129.377 154.285 129.197 154.195C129.027 154.095 128.797 154.02 128.507 153.97C128.217 153.92 127.897 153.87 127.547 153.82C127.207 153.77 126.862 153.705 126.512 153.625C126.162 153.535 125.842 153.405 125.552 153.235C125.262 153.065 125.027 152.835 124.847 152.545C124.677 152.255 124.592 151.88 124.592 151.42C124.592 150.91 124.737 150.46 125.027 150.07C125.327 149.68 125.757 149.375 126.317 149.155C126.877 148.925 127.547 148.81 128.327 148.81C128.877 148.81 129.437 148.87 130.007 148.99C130.577 149.11 131.052 149.285 131.432 149.515L130.652 151.18C130.262 150.95 129.867 150.795 129.467 150.715C129.077 150.625 128.697 150.58 128.327 150.58C127.807 150.58 127.427 150.65 127.187 150.79C126.947 150.93 126.827 151.11 126.827 151.33C126.827 151.53 126.912 151.68 127.082 151.78C127.262 151.88 127.497 151.96 127.787 152.02C128.077 152.08 128.392 152.135 128.732 152.185C129.082 152.225 129.432 152.29 129.782 152.38C130.132 152.47 130.447 152.6 130.727 152.77C131.017 152.93 131.252 153.155 131.432 153.445C131.612 153.725 131.702 154.095 131.702 154.555C131.702 155.055 131.552 155.5 131.252 155.89C130.952 156.27 130.517 156.57 129.947 156.79C129.387 157.01 128.702 157.12 127.892 157.12Z" fill="black" />
	<path d="M628.964 12.18C628.134 12.18 627.369 12.05 626.669 11.79C625.979 11.52 625.374 11.14 624.854 10.65C624.344 10.16 623.944 9.585 623.654 8.925C623.374 8.265 623.234 7.54 623.234 6.75C623.234 5.96 623.374 5.235 623.654 4.575C623.944 3.915 624.349 3.34 624.869 2.85C625.389 2.36 625.999 1.985 626.699 1.725C627.399 1.455 628.169 1.32 629.009 1.32C629.939 1.32 630.774 1.475 631.514 1.785C632.264 2.095 632.894 2.545 633.404 3.135L631.844 4.575C631.464 4.175 631.049 3.88 630.599 3.69C630.149 3.49 629.659 3.39 629.129 3.39C628.619 3.39 628.154 3.47 627.734 3.63C627.314 3.79 626.949 4.02 626.639 4.32C626.339 4.62 626.104 4.975 625.934 5.385C625.774 5.795 625.694 6.25 625.694 6.75C625.694 7.24 625.774 7.69 625.934 8.1C626.104 8.51 626.339 8.87 626.639 9.18C626.949 9.48 627.309 9.71 627.719 9.87C628.139 10.03 628.599 10.11 629.099 10.11C629.579 10.11 630.044 10.035 630.494 9.885C630.954 9.725 631.399 9.46 631.829 9.09L633.209 10.845C632.639 11.275 631.974 11.605 631.214 11.835C630.464 12.065 629.714 12.18 628.964 12.18ZM630.989 10.53V6.585H633.209V10.845L630.989 10.53ZM635.151 12V3.93H637.386V6.21L637.071 5.55C637.311 4.98 637.696 4.55 638.226 4.26C638.756 3.96 639.401 3.81 640.161 3.81V5.97C640.061 5.96 639.971 5.955 639.891 5.955C639.811 5.945 639.726 5.94 639.636 5.94C638.996 5.94 638.476 6.125 638.076 6.495C637.686 6.855 637.491 7.42 637.491 8.19V12H635.151ZM645.184 12.12C644.324 12.12 643.559 11.94 642.889 11.58C642.229 11.22 641.704 10.73 641.314 10.11C640.934 9.48 640.744 8.765 640.744 7.965C640.744 7.155 640.934 6.44 641.314 5.82C641.704 5.19 642.229 4.7 642.889 4.35C643.559 3.99 644.324 3.81 645.184 3.81C646.034 3.81 646.794 3.99 647.464 4.35C648.134 4.7 648.659 5.185 649.039 5.805C649.419 6.425 649.609 7.145 649.609 7.965C649.609 8.765 649.419 9.48 649.039 10.11C648.659 10.73 648.134 11.22 647.464 11.58C646.794 11.94 646.034 12.12 645.184 12.12ZM645.184 10.2C645.574 10.2 645.924 10.11 646.234 9.93C646.544 9.75 646.789 9.495 646.969 9.165C647.149 8.825 647.239 8.425 647.239 7.965C647.239 7.495 647.149 7.095 646.969 6.765C646.789 6.435 646.544 6.18 646.234 6C645.924 5.82 645.574 5.73 645.184 5.73C644.794 5.73 644.444 5.82 644.134 6C643.824 6.18 643.574 6.435 643.384 6.765C643.204 7.095 643.114 7.495 643.114 7.965C643.114 8.425 643.204 8.825 643.384 9.165C643.574 9.495 643.824 9.75 644.134 9.93C644.444 10.11 644.794 10.2 645.184 10.2ZM652.648 12L649.738 3.93H651.943L654.358 10.875H653.308L655.828 3.93H657.808L660.253 10.875H659.203L661.693 3.93H663.763L660.838 12H658.573L656.428 6.045H657.118L654.898 12H652.648ZM668.221 12.12C667.271 12.12 666.531 11.88 666.001 11.4C665.471 10.91 665.206 10.185 665.206 9.225V2.145H667.546V9.195C667.546 9.535 667.636 9.8 667.816 9.99C667.996 10.17 668.241 10.26 668.551 10.26C668.921 10.26 669.236 10.16 669.496 9.96L670.126 11.61C669.886 11.78 669.596 11.91 669.256 12C668.926 12.08 668.581 12.12 668.221 12.12ZM663.961 5.91V4.11H669.556V5.91H663.961ZM676.195 3.81C676.835 3.81 677.405 3.94 677.905 4.2C678.415 4.45 678.815 4.84 679.105 5.37C679.395 5.89 679.54 6.56 679.54 7.38V12H677.2V7.74C677.2 7.09 677.055 6.61 676.765 6.3C676.485 5.99 676.085 5.835 675.565 5.835C675.195 5.835 674.86 5.915 674.56 6.075C674.27 6.225 674.04 6.46 673.87 6.78C673.71 7.1 673.63 7.51 673.63 8.01V12H671.29V0.869999H673.63V6.165L673.105 5.49C673.395 4.95 673.81 4.535 674.35 4.245C674.89 3.955 675.505 3.81 676.195 3.81ZM690.799 12.18C689.989 12.18 689.234 12.05 688.534 11.79C687.844 11.52 687.244 11.14 686.734 10.65C686.224 10.16 685.824 9.585 685.534 8.925C685.254 8.265 685.114 7.54 685.114 6.75C685.114 5.96 685.254 5.235 685.534 4.575C685.824 3.915 686.224 3.34 686.734 2.85C687.254 2.36 687.859 1.985 688.549 1.725C689.239 1.455 689.994 1.32 690.814 1.32C691.724 1.32 692.544 1.48 693.274 1.8C694.014 2.11 694.634 2.57 695.134 3.18L693.574 4.62C693.214 4.21 692.814 3.905 692.374 3.705C691.934 3.495 691.454 3.39 690.934 3.39C690.444 3.39 689.994 3.47 689.584 3.63C689.174 3.79 688.819 4.02 688.519 4.32C688.219 4.62 687.984 4.975 687.814 5.385C687.654 5.795 687.574 6.25 687.574 6.75C687.574 7.25 687.654 7.705 687.814 8.115C687.984 8.525 688.219 8.88 688.519 9.18C688.819 9.48 689.174 9.71 689.584 9.87C689.994 10.03 690.444 10.11 690.934 10.11C691.454 10.11 691.934 10.01 692.374 9.81C692.814 9.6 693.214 9.285 693.574 8.865L695.134 10.305C694.634 10.915 694.014 11.38 693.274 11.7C692.544 12.02 691.719 12.18 690.799 12.18ZM701.366 12V10.425L701.216 10.08V7.26C701.216 6.76 701.061 6.37 700.751 6.09C700.451 5.81 699.986 5.67 699.356 5.67C698.926 5.67 698.501 5.74 698.081 5.88C697.671 6.01 697.321 6.19 697.031 6.42L696.191 4.785C696.631 4.475 697.161 4.235 697.781 4.065C698.401 3.895 699.031 3.81 699.671 3.81C700.901 3.81 701.856 4.1 702.536 4.68C703.216 5.26 703.556 6.165 703.556 7.395V12H701.366ZM698.906 12.12C698.276 12.12 697.736 12.015 697.286 11.805C696.836 11.585 696.491 11.29 696.251 10.92C696.011 10.55 695.891 10.135 695.891 9.675C695.891 9.195 696.006 8.775 696.236 8.415C696.476 8.055 696.851 7.775 697.361 7.575C697.871 7.365 698.536 7.26 699.356 7.26H701.501V8.625H699.611C699.061 8.625 698.681 8.715 698.471 8.895C698.271 9.075 698.171 9.3 698.171 9.57C698.171 9.87 698.286 10.11 698.516 10.29C698.756 10.46 699.081 10.545 699.491 10.545C699.881 10.545 700.231 10.455 700.541 10.275C700.851 10.085 701.076 9.81 701.216 9.45L701.576 10.53C701.406 11.05 701.096 11.445 700.646 11.715C700.196 11.985 699.616 12.12 698.906 12.12ZM710.294 12.12C709.614 12.12 709.019 11.97 708.509 11.67C707.999 11.37 707.599 10.915 707.309 10.305C707.029 9.685 706.889 8.905 706.889 7.965C706.889 7.015 707.024 6.235 707.294 5.625C707.564 5.015 707.954 4.56 708.464 4.26C708.974 3.96 709.584 3.81 710.294 3.81C711.054 3.81 711.734 3.985 712.334 4.335C712.944 4.675 713.424 5.155 713.774 5.775C714.134 6.395 714.314 7.125 714.314 7.965C714.314 8.815 714.134 9.55 713.774 10.17C713.424 10.79 712.944 11.27 712.334 11.61C711.734 11.95 711.054 12.12 710.294 12.12ZM705.524 14.91V3.93H707.759V5.58L707.714 7.98L707.864 10.365V14.91H705.524ZM709.889 10.2C710.279 10.2 710.624 10.11 710.924 9.93C711.234 9.75 711.479 9.495 711.659 9.165C711.849 8.825 711.944 8.425 711.944 7.965C711.944 7.495 711.849 7.095 711.659 6.765C711.479 6.435 711.234 6.18 710.924 6C710.624 5.82 710.279 5.73 709.889 5.73C709.499 5.73 709.149 5.82 708.839 6C708.529 6.18 708.284 6.435 708.104 6.765C707.924 7.095 707.834 7.495 707.834 7.965C707.834 8.425 707.924 8.825 708.104 9.165C708.284 9.495 708.529 9.75 708.839 9.93C709.149 10.11 709.499 10.2 709.889 10.2ZM715.73 12V3.93H718.07V12H715.73ZM716.9 2.805C716.47 2.805 716.12 2.68 715.85 2.43C715.58 2.18 715.445 1.87 715.445 1.5C715.445 1.13 715.58 0.819999 715.85 0.57C716.12 0.319999 716.47 0.194999 716.9 0.194999C717.33 0.194999 717.68 0.314999 717.95 0.555C718.22 0.785 718.355 1.085 718.355 1.455C718.355 1.845 718.22 2.17 717.95 2.43C717.69 2.68 717.34 2.805 716.9 2.805ZM723.392 12.12C722.442 12.12 721.702 11.88 721.172 11.4C720.642 10.91 720.377 10.185 720.377 9.225V2.145H722.717V9.195C722.717 9.535 722.807 9.8 722.987 9.99C723.167 10.17 723.412 10.26 723.722 10.26C724.092 10.26 724.407 10.16 724.667 9.96L725.297 11.61C725.057 11.78 724.767 11.91 724.427 12C724.097 12.08 723.752 12.12 723.392 12.12ZM719.132 5.91V4.11H724.727V5.91H719.132ZM731.41 12V10.425L731.26 10.08V7.26C731.26 6.76 731.105 6.37 730.795 6.09C730.495 5.81 730.03 5.67 729.4 5.67C728.97 5.67 728.545 5.74 728.125 5.88C727.715 6.01 727.365 6.19 727.075 6.42L726.235 4.785C726.675 4.475 727.205 4.235 727.825 4.065C728.445 3.895 729.075 3.81 729.715 3.81C730.945 3.81 731.9 4.1 732.58 4.68C733.26 5.26 733.6 6.165 733.6 7.395V12H731.41ZM728.95 12.12C728.32 12.12 727.78 12.015 727.33 11.805C726.88 11.585 726.535 11.29 726.295 10.92C726.055 10.55 725.935 10.135 725.935 9.675C725.935 9.195 726.05 8.775 726.28 8.415C726.52 8.055 726.895 7.775 727.405 7.575C727.915 7.365 728.58 7.26 729.4 7.26H731.545V8.625H729.655C729.105 8.625 728.725 8.715 728.515 8.895C728.315 9.075 728.215 9.3 728.215 9.57C728.215 9.87 728.33 10.11 728.56 10.29C728.8 10.46 729.125 10.545 729.535 10.545C729.925 10.545 730.275 10.455 730.585 10.275C730.895 10.085 731.12 9.81 731.26 9.45L731.62 10.53C731.45 11.05 731.14 11.445 730.69 11.715C730.24 11.985 729.66 12.12 728.95 12.12ZM735.568 12V0.869999H737.908V12H735.568Z" fill="black" />
	<path d="M3.70951 177.532V167.032H4.81951V176.572H10.6995V177.532H3.70951ZM15.2603 177.607C14.5003 177.607 13.8153 177.437 13.2053 177.097C12.6053 176.747 12.1303 176.272 11.7803 175.672C11.4303 175.062 11.2553 174.367 11.2553 173.587C11.2553 172.797 11.4303 172.102 11.7803 171.502C12.1303 170.902 12.6053 170.432 13.2053 170.092C13.8053 169.752 14.4903 169.582 15.2603 169.582C16.0403 169.582 16.7303 169.752 17.3303 170.092C17.9403 170.432 18.4153 170.902 18.7553 171.502C19.1053 172.102 19.2803 172.797 19.2803 173.587C19.2803 174.367 19.1053 175.062 18.7553 175.672C18.4153 176.272 17.9403 176.747 17.3303 177.097C16.7203 177.437 16.0303 177.607 15.2603 177.607ZM15.2603 176.662C15.8303 176.662 16.3353 176.537 16.7753 176.287C17.2153 176.027 17.5603 175.667 17.8103 175.207C18.0703 174.737 18.2003 174.197 18.2003 173.587C18.2003 172.967 18.0703 172.427 17.8103 171.967C17.5603 171.507 17.2153 171.152 16.7753 170.902C16.3353 170.642 15.8353 170.512 15.2753 170.512C14.7153 170.512 14.2153 170.642 13.7753 170.902C13.3353 171.152 12.9853 171.507 12.7253 171.967C12.4653 172.427 12.3353 172.967 12.3353 173.587C12.3353 174.197 12.4653 174.737 12.7253 175.207C12.9853 175.667 13.3353 176.027 13.7753 176.287C14.2153 176.537 14.7103 176.662 15.2603 176.662ZM22.6899 177.532L19.7199 169.657H20.7399L23.4399 176.962H22.9749L25.7499 169.657H26.6649L29.4099 176.962H28.9449L31.6899 169.657H32.6649L29.6799 177.532H28.6749L26.0349 170.662H26.3499L23.6949 177.532H22.6899ZM38.1193 177.532V167.032H42.0493C42.9393 167.032 43.7043 167.177 44.3443 167.467C44.9843 167.747 45.4743 168.157 45.8143 168.697C46.1643 169.227 46.3393 169.872 46.3393 170.632C46.3393 171.372 46.1643 172.012 45.8143 172.552C45.4743 173.082 44.9843 173.492 44.3443 173.782C43.7043 174.062 42.9393 174.202 42.0493 174.202H38.7343L39.2293 173.692V177.532H38.1193ZM45.2893 177.532L42.5893 173.722H43.7893L46.5043 177.532H45.2893ZM39.2293 173.782L38.7343 173.257H42.0193C43.0693 173.257 43.8643 173.027 44.4043 172.567C44.9543 172.107 45.2293 171.462 45.2293 170.632C45.2293 169.792 44.9543 169.142 44.4043 168.682C43.8643 168.222 43.0693 167.992 42.0193 167.992H38.7343L39.2293 167.467V173.782ZM51.9291 177.607C51.1091 177.607 50.3891 177.437 49.7691 177.097C49.1491 176.747 48.6641 176.272 48.3141 175.672C47.9641 175.062 47.7891 174.367 47.7891 173.587C47.7891 172.807 47.9541 172.117 48.2841 171.517C48.6241 170.917 49.0841 170.447 49.6641 170.107C50.2541 169.757 50.9141 169.582 51.6441 169.582C52.3841 169.582 53.0391 169.752 53.6091 170.092C54.1891 170.422 54.6441 170.892 54.9741 171.502C55.3041 172.102 55.4691 172.797 55.4691 173.587C55.4691 173.637 55.4641 173.692 55.4541 173.752C55.4541 173.802 55.4541 173.857 55.4541 173.917H48.5991V173.122H54.8841L54.4641 173.437C54.4641 172.867 54.3391 172.362 54.0891 171.922C53.8491 171.472 53.5191 171.122 53.0991 170.872C52.6791 170.622 52.1941 170.497 51.6441 170.497C51.1041 170.497 50.6191 170.622 50.1891 170.872C49.7591 171.122 49.4241 171.472 49.1841 171.922C48.9441 172.372 48.8241 172.887 48.8241 173.467V173.632C48.8241 174.232 48.9541 174.762 49.2141 175.222C49.4841 175.672 49.8541 176.027 50.3241 176.287C50.8041 176.537 51.3491 176.662 51.9591 176.662C52.4391 176.662 52.8841 176.577 53.2941 176.407C53.7141 176.237 54.0741 175.977 54.3741 175.627L54.9741 176.317C54.6241 176.737 54.1841 177.057 53.6541 177.277C53.1341 177.497 52.5591 177.607 51.9291 177.607ZM59.9769 177.607C59.2369 177.607 58.6669 177.407 58.2669 177.007C57.8669 176.607 57.6669 176.042 57.6669 175.312V167.917H58.7319V175.252C58.7319 175.712 58.8469 176.067 59.0769 176.317C59.3169 176.567 59.6569 176.692 60.0969 176.692C60.5669 176.692 60.9569 176.557 61.2669 176.287L61.6419 177.052C61.4319 177.242 61.1769 177.382 60.8769 177.472C60.5869 177.562 60.2869 177.607 59.9769 177.607ZM56.2569 170.542V169.657H61.1319V170.542H56.2569ZM66.6856 177.607C66.0156 177.607 65.4306 177.482 64.9306 177.232C64.4306 176.982 64.0406 176.607 63.7606 176.107C63.4906 175.607 63.3556 174.982 63.3556 174.232V169.657H64.4206V174.112C64.4206 174.952 64.6256 175.587 65.0356 176.017C65.4556 176.437 66.0406 176.647 66.7906 176.647C67.3406 176.647 67.8156 176.537 68.2156 176.317C68.6256 176.087 68.9356 175.757 69.1456 175.327C69.3656 174.897 69.4756 174.382 69.4756 173.782V169.657H70.5406V177.532H69.5206V175.372L69.6856 175.762C69.4356 176.342 69.0456 176.797 68.5156 177.127C67.9956 177.447 67.3856 177.607 66.6856 177.607ZM73.3587 177.532V169.657H74.3787V171.802L74.2737 171.427C74.4937 170.827 74.8637 170.372 75.3837 170.062C75.9037 169.742 76.5487 169.582 77.3187 169.582V170.617C77.2787 170.617 77.2387 170.617 77.1987 170.617C77.1587 170.607 77.1187 170.602 77.0787 170.602C76.2487 170.602 75.5987 170.857 75.1287 171.367C74.6587 171.867 74.4237 172.582 74.4237 173.512V177.532H73.3587ZM83.1321 169.582C83.7721 169.582 84.3321 169.707 84.8121 169.957C85.3021 170.197 85.6821 170.567 85.9521 171.067C86.2321 171.567 86.3721 172.197 86.3721 172.957V177.532H85.3071V173.062C85.3071 172.232 85.0971 171.607 84.6771 171.187C84.2671 170.757 83.6871 170.542 82.9371 170.542C82.3771 170.542 81.8871 170.657 81.4671 170.887C81.0571 171.107 80.7371 171.432 80.5071 171.862C80.2871 172.282 80.1771 172.792 80.1771 173.392V177.532H79.1121V169.657H80.1321V171.817L79.9671 171.412C80.2171 170.842 80.6171 170.397 81.1671 170.077C81.7171 169.747 82.3721 169.582 83.1321 169.582ZM91.2138 177.607C90.5638 177.607 89.9488 177.517 89.3688 177.337C88.7888 177.147 88.3338 176.912 88.0038 176.632L88.4838 175.792C88.8038 176.032 89.2138 176.242 89.7138 176.422C90.2138 176.592 90.7388 176.677 91.2888 176.677C92.0388 176.677 92.5788 176.562 92.9088 176.332C93.2388 176.092 93.4038 175.777 93.4038 175.387C93.4038 175.097 93.3088 174.872 93.1188 174.712C92.9388 174.542 92.6988 174.417 92.3988 174.337C92.0988 174.247 91.7638 174.172 91.3938 174.112C91.0238 174.052 90.6538 173.982 90.2838 173.902C89.9238 173.822 89.5938 173.707 89.2938 173.557C88.9938 173.397 88.7488 173.182 88.5588 172.912C88.3788 172.642 88.2888 172.282 88.2888 171.832C88.2888 171.402 88.4088 171.017 88.6488 170.677C88.8888 170.337 89.2388 170.072 89.6988 169.882C90.1688 169.682 90.7388 169.582 91.4088 169.582C91.9188 169.582 92.4288 169.652 92.9388 169.792C93.4488 169.922 93.8688 170.097 94.1988 170.317L93.7338 171.172C93.3838 170.932 93.0088 170.762 92.6088 170.662C92.2088 170.552 91.8088 170.497 91.4088 170.497C90.6988 170.497 90.1738 170.622 89.8338 170.872C89.5038 171.112 89.3388 171.422 89.3388 171.802C89.3388 172.102 89.4288 172.337 89.6088 172.507C89.7988 172.677 90.0438 172.812 90.3438 172.912C90.6538 173.002 90.9888 173.077 91.3488 173.137C91.7188 173.197 92.0838 173.272 92.4438 173.362C92.8138 173.442 93.1488 173.557 93.4488 173.707C93.7588 173.847 94.0038 174.052 94.1838 174.322C94.3738 174.582 94.4688 174.927 94.4688 175.357C94.4688 175.817 94.3388 176.217 94.0788 176.557C93.8288 176.887 93.4588 177.147 92.9688 177.337C92.4888 177.517 91.9038 177.607 91.2138 177.607Z" fill="black" />
	<path d="M631.827 22.3363H632.922V32.8363H631.827V22.3363ZM625.257 32.8363H624.147V22.3363H625.257V32.8363ZM631.932 27.9913H625.137V27.0163H631.932V27.9913ZM635.974 32.8363V24.9613H637.039V32.8363H635.974ZM636.514 23.2213C636.294 23.2213 636.109 23.1463 635.959 22.9963C635.809 22.8463 635.734 22.6663 635.734 22.4563C635.734 22.2463 635.809 22.0713 635.959 21.9313C636.109 21.7813 636.294 21.7063 636.514 21.7063C636.734 21.7063 636.919 21.7763 637.069 21.9163C637.219 22.0563 637.294 22.2313 637.294 22.4413C637.294 22.6613 637.219 22.8463 637.069 22.9963C636.929 23.1463 636.744 23.2213 636.514 23.2213ZM643.213 35.8213C642.493 35.8213 641.803 35.7163 641.143 35.5063C640.483 35.2963 639.948 34.9963 639.538 34.6063L640.078 33.7963C640.448 34.1263 640.903 34.3863 641.443 34.5763C641.993 34.7763 642.573 34.8763 643.183 34.8763C644.183 34.8763 644.918 34.6413 645.388 34.1713C645.858 33.7113 646.093 32.9913 646.093 32.0113V30.0463L646.243 28.6963L646.138 27.3463V24.9613H647.158V31.8763C647.158 33.2363 646.823 34.2313 646.153 34.8613C645.493 35.5013 644.513 35.8213 643.213 35.8213ZM643.018 32.5363C642.268 32.5363 641.593 32.3763 640.993 32.0563C640.393 31.7263 639.918 31.2713 639.568 30.6913C639.228 30.1113 639.058 29.4463 639.058 28.6963C639.058 27.9463 639.228 27.2863 639.568 26.7163C639.918 26.1363 640.393 25.6863 640.993 25.3663C641.593 25.0463 642.268 24.8863 643.018 24.8863C643.718 24.8863 644.348 25.0313 644.908 25.3213C645.468 25.6113 645.913 26.0413 646.243 26.6113C646.573 27.1813 646.738 27.8763 646.738 28.6963C646.738 29.5163 646.573 30.2113 646.243 30.7813C645.913 31.3513 645.468 31.7863 644.908 32.0863C644.348 32.3863 643.718 32.5363 643.018 32.5363ZM643.123 31.5913C643.703 31.5913 644.218 31.4713 644.668 31.2313C645.118 30.9813 645.473 30.6413 645.733 30.2113C645.993 29.7713 646.123 29.2663 646.123 28.6963C646.123 28.1263 645.993 27.6263 645.733 27.1963C645.473 26.7663 645.118 26.4313 644.668 26.1913C644.218 25.9413 643.703 25.8163 643.123 25.8163C642.553 25.8163 642.038 25.9413 641.578 26.1913C641.128 26.4313 640.773 26.7663 640.513 27.1963C640.263 27.6263 640.138 28.1263 640.138 28.6963C640.138 29.2663 640.263 29.7713 640.513 30.2113C640.773 30.6413 641.128 30.9813 641.578 31.2313C642.038 31.4713 642.553 31.5913 643.123 31.5913ZM653.991 24.8863C654.631 24.8863 655.191 25.0113 655.671 25.2613C656.161 25.5013 656.541 25.8713 656.811 26.3713C657.091 26.8713 657.231 27.5013 657.231 28.2613V32.8363H656.166V28.3663C656.166 27.5363 655.956 26.9113 655.536 26.4913C655.126 26.0613 654.546 25.8463 653.796 25.8463C653.236 25.8463 652.746 25.9613 652.326 26.1913C651.916 26.4113 651.596 26.7363 651.366 27.1663C651.146 27.5863 651.036 28.0963 651.036 28.6963V32.8363H649.971V21.7063H651.036V27.1213L650.826 26.7163C651.076 26.1463 651.476 25.7013 652.026 25.3813C652.576 25.0513 653.231 24.8863 653.991 24.8863ZM663.959 32.8363V22.3363H667.889C668.779 22.3363 669.544 22.4813 670.184 22.7713C670.824 23.0513 671.314 23.4613 671.654 24.0013C672.004 24.5313 672.179 25.1763 672.179 25.9363C672.179 26.6763 672.004 27.3163 671.654 27.8563C671.314 28.3863 670.824 28.7963 670.184 29.0863C669.544 29.3663 668.779 29.5063 667.889 29.5063H664.574L665.069 28.9963V32.8363H663.959ZM671.129 32.8363L668.429 29.0263H669.629L672.344 32.8363H671.129ZM665.069 29.0863L664.574 28.5613H667.859C668.909 28.5613 669.704 28.3313 670.244 27.8713C670.794 27.4113 671.069 26.7663 671.069 25.9363C671.069 25.0963 670.794 24.4463 670.244 23.9863C669.704 23.5263 668.909 23.2963 667.859 23.2963H664.574L665.069 22.7713V29.0863ZM674.424 32.8363V24.9613H675.489V32.8363H674.424ZM674.964 23.2213C674.744 23.2213 674.559 23.1463 674.409 22.9963C674.259 22.8463 674.184 22.6663 674.184 22.4563C674.184 22.2463 674.259 22.0713 674.409 21.9313C674.559 21.7813 674.744 21.7063 674.964 21.7063C675.184 21.7063 675.369 21.7763 675.519 21.9163C675.669 22.0563 675.744 22.2313 675.744 22.4413C675.744 22.6613 675.669 22.8463 675.519 22.9963C675.379 23.1463 675.194 23.2213 674.964 23.2213ZM680.417 32.9113C679.767 32.9113 679.152 32.8213 678.572 32.6413C677.992 32.4513 677.537 32.2163 677.207 31.9363L677.687 31.0963C678.007 31.3363 678.417 31.5463 678.917 31.7263C679.417 31.8963 679.942 31.9813 680.492 31.9813C681.242 31.9813 681.782 31.8663 682.112 31.6363C682.442 31.3963 682.607 31.0813 682.607 30.6913C682.607 30.4013 682.512 30.1763 682.322 30.0163C682.142 29.8463 681.902 29.7213 681.602 29.6413C681.302 29.5513 680.967 29.4763 680.597 29.4163C680.227 29.3563 679.857 29.2863 679.487 29.2063C679.127 29.1263 678.797 29.0113 678.497 28.8613C678.197 28.7013 677.952 28.4863 677.762 28.2163C677.582 27.9463 677.492 27.5863 677.492 27.1363C677.492 26.7063 677.612 26.3213 677.852 25.9813C678.092 25.6413 678.442 25.3763 678.902 25.1863C679.372 24.9863 679.942 24.8863 680.612 24.8863C681.122 24.8863 681.632 24.9563 682.142 25.0963C682.652 25.2263 683.072 25.4013 683.402 25.6213L682.937 26.4763C682.587 26.2363 682.212 26.0663 681.812 25.9663C681.412 25.8563 681.012 25.8013 680.612 25.8013C679.902 25.8013 679.377 25.9263 679.037 26.1763C678.707 26.4163 678.542 26.7263 678.542 27.1063C678.542 27.4063 678.632 27.6413 678.812 27.8113C679.002 27.9813 679.247 28.1163 679.547 28.2163C679.857 28.3063 680.192 28.3813 680.552 28.4413C680.922 28.5013 681.287 28.5763 681.647 28.6663C682.017 28.7463 682.352 28.8613 682.652 29.0113C682.962 29.1513 683.207 29.3563 683.387 29.6263C683.577 29.8863 683.672 30.2313 683.672 30.6613C683.672 31.1213 683.542 31.5213 683.282 31.8613C683.032 32.1913 682.662 32.4513 682.172 32.6413C681.692 32.8213 681.107 32.9113 680.417 32.9113ZM686.316 30.7963L686.346 29.4313L691.251 24.9613H692.556L689.091 28.2763L688.491 28.7863L686.316 30.7963ZM685.476 32.8363V21.7063H686.541V32.8363H685.476ZM691.581 32.8363L688.296 28.7413L688.986 27.9163L692.886 32.8363H691.581Z" fill="black" />
	<path d="M1.99951 210L31.6324 202.715L68.4734 193.658L99.7081 185.98L131.744 178.104L159.775 171.213L191.81 163.338L224.647 155.266L251.877 148.572L309.096 134.505L349.586 124.551L440.887 102.107L478.929 92.7545L512.967 84.3869L552.955 74.5565L601.065 62.7295L630.698 55.4447L661.132 47.9631L693.167 40.0876L721.999 32.9998" stroke="url(#paint0_linear_4222_4823)" stroke-width="3.7667" stroke-linecap="round" stroke-linejoin="round" />
	<defs>
		<linearGradient id="paint0_linear_4222_4823" x1="721.808" y1="32.8866" x2="527.567" y2="452.853" gradientUnits="userSpaceOnUse">
			<stop stop-color="#FF44D6" stop-opacity="0.01" />
			<stop offset="0.194726" stop-color="#FF7979" />
			<stop offset="0.391043" stop-color="#FF4DCA" />
			<stop offset="0.630208" stop-color="#FC6AA4" />
			<stop offset="1" stop-color="#E34E81" stop-opacity="0.26" />
		</linearGradient>
	</defs>
</svg>
