<svg width="350" height="220" viewBox="0 0 350 220" fill="none" xmlns="http://www.w3.org/2000/svg">
<g filter="url(#filter0_d_9925_68085)">
<rect x="20" y="14" width="310" height="150" rx="8" fill="white"/>
</g>
<rect x="50" y="130" width="58" height="4" fill="#AEB8C2"/>
<rect x="115" y="130" width="18" height="4" fill="#AEB8C2"/>
<path d="M50 118H82V123H50V118Z" fill="#0058FF"/>
<path d="M62.3713 90.875C62.3713 92.2417 61.8713 93.4167 60.8713 94.4C59.8713 95.3667 58.4296 95.9667 56.5463 96.2V99H54.0463V96.275C52.813 96.2083 51.638 95.9917 50.5213 95.625C49.4046 95.2583 48.5046 94.8083 47.8213 94.275L49.1963 91.225C49.8296 91.6917 50.5713 92.0833 51.4213 92.4C52.2713 92.7167 53.1463 92.9167 54.0463 93V88.825C52.863 88.5417 51.863 88.225 51.0463 87.875C50.2296 87.525 49.5463 87.0167 48.9963 86.35C48.4463 85.6667 48.1713 84.7667 48.1713 83.65C48.1713 82.2667 48.6713 81.0833 49.6713 80.1C50.688 79.1 52.1463 78.4917 54.0463 78.275V75.5H56.5463V78.225C58.5963 78.3917 60.288 78.9 61.6213 79.75L60.3713 82.825C59.1213 82.1083 57.8463 81.675 56.5463 81.525V85.775C57.713 86.0417 58.6963 86.35 59.4963 86.7C60.313 87.0333 60.9963 87.5417 61.5463 88.225C62.0963 88.8917 62.3713 89.775 62.3713 90.875ZM52.1963 83.45C52.1963 83.8667 52.3546 84.2083 52.6713 84.475C52.988 84.7417 53.4463 84.9667 54.0463 85.15V81.6C53.413 81.75 52.9463 81.9917 52.6463 82.325C52.3463 82.6417 52.1963 83.0167 52.1963 83.45ZM56.5463 92.9C57.1463 92.7667 57.5963 92.55 57.8963 92.25C58.1963 91.95 58.3463 91.5917 58.3463 91.175C58.3463 90.7583 58.188 90.4167 57.8713 90.15C57.5713 89.8833 57.1296 89.65 56.5463 89.45V92.9Z" fill="black"/>
<path d="M77.2445 78.5V81.125L70.7445 96H66.3445L72.6195 81.8H66.8195V84.65H63.2195V78.5H77.2445Z" fill="black"/>
<path d="M84.3824 85.075C86.8491 85.075 88.6658 85.5667 89.8324 86.55C91.0158 87.5333 91.6074 88.85 91.6074 90.5C91.6074 91.5667 91.3408 92.5417 90.8074 93.425C90.2741 94.2917 89.4574 94.9917 88.3574 95.525C87.2741 96.0417 85.9324 96.3 84.3324 96.3C83.0991 96.3 81.8824 96.1417 80.6824 95.825C79.4991 95.4917 78.4908 95.025 77.6574 94.425L79.2574 91.325C79.9241 91.825 80.6908 92.2167 81.5574 92.5C82.4241 92.7667 83.3158 92.9 84.2324 92.9C85.2491 92.9 86.0491 92.7 86.6324 92.3C87.2158 91.9 87.5074 91.3417 87.5074 90.625C87.5074 89.875 87.1991 89.3083 86.5824 88.925C85.9824 88.5417 84.9324 88.35 83.4324 88.35H78.9574L79.8574 78.5H90.5324V81.75H83.2324L82.9574 85.075H84.3824Z" fill="black"/>
<path d="M100.501 96.3C99.0506 96.3 97.7589 95.9417 96.6256 95.225C95.4923 94.5083 94.6006 93.475 93.9506 92.125C93.3172 90.7583 93.0006 89.1333 93.0006 87.25C93.0006 85.3667 93.3172 83.75 93.9506 82.4C94.6006 81.0333 95.4923 79.9917 96.6256 79.275C97.7589 78.5583 99.0506 78.2 100.501 78.2C101.951 78.2 103.242 78.5583 104.376 79.275C105.509 79.9917 106.392 81.0333 107.026 82.4C107.676 83.75 108.001 85.3667 108.001 87.25C108.001 89.1333 107.676 90.7583 107.026 92.125C106.392 93.475 105.509 94.5083 104.376 95.225C103.242 95.9417 101.951 96.3 100.501 96.3ZM100.501 92.875C101.567 92.875 102.401 92.4167 103.001 91.5C103.617 90.5833 103.926 89.1667 103.926 87.25C103.926 85.3333 103.617 83.9167 103.001 83C102.401 82.0833 101.567 81.625 100.501 81.625C99.4506 81.625 98.6173 82.0833 98.0006 83C97.4006 83.9167 97.1006 85.3333 97.1006 87.25C97.1006 89.1667 97.4006 90.5833 98.0006 91.5C98.6173 92.4167 99.4506 92.875 100.501 92.875Z" fill="black"/>
<path d="M111.726 91.35C112.426 91.35 113.001 91.575 113.451 92.025C113.901 92.4583 114.126 93.0333 114.126 93.75C114.126 94.0833 114.084 94.4167 114.001 94.75C113.918 95.0833 113.734 95.5833 113.451 96.25L112.026 99.85H109.551L110.651 95.875C110.234 95.7083 109.901 95.4417 109.651 95.075C109.418 94.6917 109.301 94.25 109.301 93.75C109.301 93.0333 109.526 92.4583 109.976 92.025C110.443 91.575 111.026 91.35 111.726 91.35Z" fill="black"/>
<path d="M122.877 96.3C121.427 96.3 120.135 95.9417 119.002 95.225C117.868 94.5083 116.977 93.475 116.327 92.125C115.693 90.7583 115.377 89.1333 115.377 87.25C115.377 85.3667 115.693 83.75 116.327 82.4C116.977 81.0333 117.868 79.9917 119.002 79.275C120.135 78.5583 121.427 78.2 122.877 78.2C124.327 78.2 125.618 78.5583 126.752 79.275C127.885 79.9917 128.768 81.0333 129.402 82.4C130.052 83.75 130.377 85.3667 130.377 87.25C130.377 89.1333 130.052 90.7583 129.402 92.125C128.768 93.475 127.885 94.5083 126.752 95.225C125.618 95.9417 124.327 96.3 122.877 96.3ZM122.877 92.875C123.943 92.875 124.777 92.4167 125.377 91.5C125.993 90.5833 126.302 89.1667 126.302 87.25C126.302 85.3333 125.993 83.9167 125.377 83C124.777 82.0833 123.943 81.625 122.877 81.625C121.827 81.625 120.993 82.0833 120.377 83C119.777 83.9167 119.477 85.3333 119.477 87.25C119.477 89.1667 119.777 90.5833 120.377 91.5C120.993 92.4167 121.827 92.875 122.877 92.875Z" fill="black"/>
<path d="M139.594 96.3C138.144 96.3 136.853 95.9417 135.719 95.225C134.586 94.5083 133.694 93.475 133.044 92.125C132.411 90.7583 132.094 89.1333 132.094 87.25C132.094 85.3667 132.411 83.75 133.044 82.4C133.694 81.0333 134.586 79.9917 135.719 79.275C136.853 78.5583 138.144 78.2 139.594 78.2C141.044 78.2 142.336 78.5583 143.469 79.275C144.603 79.9917 145.486 81.0333 146.119 82.4C146.769 83.75 147.094 85.3667 147.094 87.25C147.094 89.1333 146.769 90.7583 146.119 92.125C145.486 93.475 144.603 94.5083 143.469 95.225C142.336 95.9417 141.044 96.3 139.594 96.3ZM139.594 92.875C140.661 92.875 141.494 92.4167 142.094 91.5C142.711 90.5833 143.019 89.1667 143.019 87.25C143.019 85.3333 142.711 83.9167 142.094 83C141.494 82.0833 140.661 81.625 139.594 81.625C138.544 81.625 137.711 82.0833 137.094 83C136.494 83.9167 136.194 85.3333 136.194 87.25C136.194 89.1667 136.494 90.5833 137.094 91.5C137.711 92.4167 138.544 92.875 139.594 92.875Z" fill="black"/>
<path d="M156.312 96.3C154.862 96.3 153.57 95.9417 152.437 95.225C151.304 94.5083 150.412 93.475 149.762 92.125C149.129 90.7583 148.812 89.1333 148.812 87.25C148.812 85.3667 149.129 83.75 149.762 82.4C150.412 81.0333 151.304 79.9917 152.437 79.275C153.57 78.5583 154.862 78.2 156.312 78.2C157.762 78.2 159.054 78.5583 160.187 79.275C161.32 79.9917 162.204 81.0333 162.837 82.4C163.487 83.75 163.812 85.3667 163.812 87.25C163.812 89.1333 163.487 90.7583 162.837 92.125C162.204 93.475 161.32 94.5083 160.187 95.225C159.054 95.9417 157.762 96.3 156.312 96.3ZM156.312 92.875C157.379 92.875 158.212 92.4167 158.812 91.5C159.429 90.5833 159.737 89.1667 159.737 87.25C159.737 85.3333 159.429 83.9167 158.812 83C158.212 82.0833 157.379 81.625 156.312 81.625C155.262 81.625 154.429 82.0833 153.812 83C153.212 83.9167 152.912 85.3333 152.912 87.25C152.912 89.1667 153.212 90.5833 153.812 91.5C154.429 92.4167 155.262 92.875 156.312 92.875Z" fill="black"/>
<path d="M172.685 87.4H179.76V90.525H172.685V87.4Z" fill="black"/>
<path d="M202.859 90.875C202.859 92.2417 202.359 93.4167 201.359 94.4C200.359 95.3667 198.917 95.9667 197.034 96.2V99H194.534V96.275C193.3 96.2083 192.125 95.9917 191.009 95.625C189.892 95.2583 188.992 94.8083 188.309 94.275L189.684 91.225C190.317 91.6917 191.059 92.0833 191.909 92.4C192.759 92.7167 193.634 92.9167 194.534 93V88.825C193.35 88.5417 192.35 88.225 191.534 87.875C190.717 87.525 190.034 87.0167 189.484 86.35C188.934 85.6667 188.659 84.7667 188.659 83.65C188.659 82.2667 189.159 81.0833 190.159 80.1C191.175 79.1 192.634 78.4917 194.534 78.275V75.5H197.034V78.225C199.084 78.3917 200.775 78.9 202.109 79.75L200.859 82.825C199.609 82.1083 198.334 81.675 197.034 81.525V85.775C198.2 86.0417 199.184 86.35 199.984 86.7C200.8 87.0333 201.484 87.5417 202.034 88.225C202.584 88.8917 202.859 89.775 202.859 90.875ZM192.684 83.45C192.684 83.8667 192.842 84.2083 193.159 84.475C193.475 84.7417 193.934 84.9667 194.534 85.15V81.6C193.9 81.75 193.434 81.9917 193.134 82.325C192.834 82.6417 192.684 83.0167 192.684 83.45ZM197.034 92.9C197.634 92.7667 198.084 92.55 198.384 92.25C198.684 91.95 198.834 91.5917 198.834 91.175C198.834 90.7583 198.675 90.4167 198.359 90.15C198.059 89.8833 197.617 89.65 197.034 89.45V92.9Z" fill="black"/>
<path d="M216.251 86.8C217.118 87.2333 217.776 87.8 218.226 88.5C218.693 89.2 218.926 90.0083 218.926 90.925C218.926 92.0083 218.618 92.9583 218.001 93.775C217.384 94.575 216.518 95.2 215.401 95.65C214.284 96.0833 212.993 96.3 211.526 96.3C210.059 96.3 208.768 96.0833 207.651 95.65C206.551 95.2 205.693 94.575 205.076 93.775C204.476 92.9583 204.176 92.0083 204.176 90.925C204.176 90.0083 204.401 89.2 204.851 88.5C205.318 87.8 205.976 87.2333 206.826 86.8C206.176 86.4 205.676 85.9 205.326 85.3C204.976 84.6833 204.801 83.9833 204.801 83.2C204.801 82.1833 205.084 81.3 205.651 80.55C206.218 79.8 207.009 79.225 208.026 78.825C209.043 78.4083 210.209 78.2 211.526 78.2C212.859 78.2 214.034 78.4083 215.051 78.825C216.084 79.225 216.884 79.8 217.451 80.55C218.018 81.3 218.301 82.1833 218.301 83.2C218.301 83.9833 218.126 84.6833 217.776 85.3C217.426 85.9 216.918 86.4 216.251 86.8ZM211.526 81.175C210.709 81.175 210.051 81.375 209.551 81.775C209.068 82.1583 208.826 82.6917 208.826 83.375C208.826 84.0417 209.068 84.5667 209.551 84.95C210.034 85.3333 210.693 85.525 211.526 85.525C212.359 85.525 213.026 85.3333 213.526 84.95C214.026 84.5667 214.276 84.0417 214.276 83.375C214.276 82.6917 214.026 82.1583 213.526 81.775C213.026 81.375 212.359 81.175 211.526 81.175ZM211.526 93.325C212.543 93.325 213.343 93.1 213.926 92.65C214.526 92.1833 214.826 91.5667 214.826 90.8C214.826 90.0333 214.526 89.425 213.926 88.975C213.343 88.525 212.543 88.3 211.526 88.3C210.526 88.3 209.734 88.525 209.151 88.975C208.568 89.425 208.276 90.0333 208.276 90.8C208.276 91.5833 208.568 92.2 209.151 92.65C209.734 93.1 210.526 93.325 211.526 93.325Z" fill="black"/>
<path d="M228.705 85.625C230.238 85.875 231.413 86.45 232.23 87.35C233.047 88.2333 233.455 89.3333 233.455 90.65C233.455 91.6667 233.188 92.6083 232.655 93.475C232.122 94.325 231.305 95.0083 230.205 95.525C229.122 96.0417 227.788 96.3 226.205 96.3C224.972 96.3 223.755 96.1417 222.555 95.825C221.372 95.4917 220.363 95.025 219.53 94.425L221.105 91.325C221.772 91.825 222.538 92.2167 223.405 92.5C224.288 92.7667 225.188 92.9 226.105 92.9C227.122 92.9 227.922 92.7083 228.505 92.325C229.088 91.925 229.38 91.3667 229.38 90.65C229.38 89.2167 228.288 88.5 226.105 88.5H224.255V85.825L227.855 81.75H220.405V78.5H232.655V81.125L228.705 85.625Z" fill="black"/>
<path d="M242.575 96.3C241.125 96.3 239.833 95.9417 238.7 95.225C237.566 94.5083 236.675 93.475 236.025 92.125C235.391 90.7583 235.075 89.1333 235.075 87.25C235.075 85.3667 235.391 83.75 236.025 82.4C236.675 81.0333 237.566 79.9917 238.7 79.275C239.833 78.5583 241.125 78.2 242.575 78.2C244.025 78.2 245.316 78.5583 246.45 79.275C247.583 79.9917 248.466 81.0333 249.1 82.4C249.75 83.75 250.075 85.3667 250.075 87.25C250.075 89.1333 249.75 90.7583 249.1 92.125C248.466 93.475 247.583 94.5083 246.45 95.225C245.316 95.9417 244.025 96.3 242.575 96.3ZM242.575 92.875C243.641 92.875 244.475 92.4167 245.075 91.5C245.691 90.5833 246 89.1667 246 87.25C246 85.3333 245.691 83.9167 245.075 83C244.475 82.0833 243.641 81.625 242.575 81.625C241.525 81.625 240.691 82.0833 240.075 83C239.475 83.9167 239.175 85.3333 239.175 87.25C239.175 89.1667 239.475 90.5833 240.075 91.5C240.691 92.4167 241.525 92.875 242.575 92.875Z" fill="black"/>
<path d="M253.8 91.35C254.5 91.35 255.075 91.575 255.525 92.025C255.975 92.4583 256.2 93.0333 256.2 93.75C256.2 94.0833 256.159 94.4167 256.075 94.75C255.992 95.0833 255.809 95.5833 255.525 96.25L254.1 99.85H251.625L252.725 95.875C252.309 95.7083 251.975 95.4417 251.725 95.075C251.492 94.6917 251.375 94.25 251.375 93.75C251.375 93.0333 251.6 92.4583 252.05 92.025C252.517 91.575 253.1 91.35 253.8 91.35Z" fill="black"/>
<path d="M264.951 96.3C263.501 96.3 262.209 95.9417 261.076 95.225C259.942 94.5083 259.051 93.475 258.401 92.125C257.767 90.7583 257.451 89.1333 257.451 87.25C257.451 85.3667 257.767 83.75 258.401 82.4C259.051 81.0333 259.942 79.9917 261.076 79.275C262.209 78.5583 263.501 78.2 264.951 78.2C266.401 78.2 267.692 78.5583 268.826 79.275C269.959 79.9917 270.842 81.0333 271.476 82.4C272.126 83.75 272.451 85.3667 272.451 87.25C272.451 89.1333 272.126 90.7583 271.476 92.125C270.842 93.475 269.959 94.5083 268.826 95.225C267.692 95.9417 266.401 96.3 264.951 96.3ZM264.951 92.875C266.017 92.875 266.851 92.4167 267.451 91.5C268.067 90.5833 268.376 89.1667 268.376 87.25C268.376 85.3333 268.067 83.9167 267.451 83C266.851 82.0833 266.017 81.625 264.951 81.625C263.901 81.625 263.067 82.0833 262.451 83C261.851 83.9167 261.551 85.3333 261.551 87.25C261.551 89.1667 261.851 90.5833 262.451 91.5C263.067 92.4167 263.901 92.875 264.951 92.875Z" fill="black"/>
<path d="M281.669 96.3C280.219 96.3 278.927 95.9417 277.794 95.225C276.66 94.5083 275.769 93.475 275.119 92.125C274.485 90.7583 274.169 89.1333 274.169 87.25C274.169 85.3667 274.485 83.75 275.119 82.4C275.769 81.0333 276.66 79.9917 277.794 79.275C278.927 78.5583 280.219 78.2 281.669 78.2C283.119 78.2 284.41 78.5583 285.544 79.275C286.677 79.9917 287.56 81.0333 288.194 82.4C288.844 83.75 289.169 85.3667 289.169 87.25C289.169 89.1333 288.844 90.7583 288.194 92.125C287.56 93.475 286.677 94.5083 285.544 95.225C284.41 95.9417 283.119 96.3 281.669 96.3ZM281.669 92.875C282.735 92.875 283.569 92.4167 284.169 91.5C284.785 90.5833 285.094 89.1667 285.094 87.25C285.094 85.3333 284.785 83.9167 284.169 83C283.569 82.0833 282.735 81.625 281.669 81.625C280.619 81.625 279.785 82.0833 279.169 83C278.569 83.9167 278.269 85.3333 278.269 87.25C278.269 89.1667 278.569 90.5833 279.169 91.5C279.785 92.4167 280.619 92.875 281.669 92.875Z" fill="black"/>
<path d="M298.386 96.3C296.936 96.3 295.645 95.9417 294.511 95.225C293.378 94.5083 292.486 93.475 291.836 92.125C291.203 90.7583 290.886 89.1333 290.886 87.25C290.886 85.3667 291.203 83.75 291.836 82.4C292.486 81.0333 293.378 79.9917 294.511 79.275C295.645 78.5583 296.936 78.2 298.386 78.2C299.836 78.2 301.128 78.5583 302.261 79.275C303.395 79.9917 304.278 81.0333 304.911 82.4C305.561 83.75 305.886 85.3667 305.886 87.25C305.886 89.1333 305.561 90.7583 304.911 92.125C304.278 93.475 303.395 94.5083 302.261 95.225C301.128 95.9417 299.836 96.3 298.386 96.3ZM298.386 92.875C299.453 92.875 300.286 92.4167 300.886 91.5C301.503 90.5833 301.811 89.1667 301.811 87.25C301.811 85.3333 301.503 83.9167 300.886 83C300.286 82.0833 299.453 81.625 298.386 81.625C297.336 81.625 296.503 82.0833 295.886 83C295.286 83.9167 294.986 85.3333 294.986 87.25C294.986 89.1667 295.286 90.5833 295.886 91.5C296.503 92.4167 297.336 92.875 298.386 92.875Z" fill="black"/>
<rect x="51" y="58" width="21.8018" height="4" fill="#AEB8C2"/>
<path d="M20 20C20 16.6863 22.6863 14 26 14H324C327.314 14 330 16.6863 330 20V38H20V20Z" fill="#EBEFF4"/>
<circle cx="38" cy="26" r="4" fill="#D3DBE3"/>
<circle cx="51" cy="26" r="4" fill="#D3DBE3"/>
<circle cx="64" cy="26" r="4" fill="#D3DBE3"/>
<rect x="97" y="22" width="151" height="8" rx="4" fill="white"/>
<g filter="url(#filter1_d_9925_68085)">
<rect x="240" y="124" width="70" height="70" rx="35" fill="white"/>
</g>
<circle cx="275" cy="159" r="35" fill="#0058FF"/>
<path d="M275 143.09L268.636 149.454L271.818 152.636L278.182 146.272C280.807 143.647 285.103 143.647 287.728 146.272C290.353 148.897 290.353 153.193 287.728 155.818L281.364 162.182L284.546 165.364L290.91 159C295.301 154.609 295.301 147.481 290.91 143.09C286.519 138.699 279.391 138.699 275 143.09ZM278.182 165.364L271.818 171.728C269.193 174.353 264.897 174.353 262.272 171.728C259.647 169.103 259.647 164.807 262.272 162.182L268.636 155.818L265.454 152.636L259.09 159C254.699 163.391 254.699 170.519 259.09 174.91C263.481 179.301 270.609 179.301 275 174.91L281.364 168.546L278.182 165.364ZM267.045 163.773L279.773 151.045L282.955 154.227L270.227 166.955L267.045 163.773Z" fill="white"/>
<defs>
<filter id="filter0_d_9925_68085" x="0" y="0" width="350" height="190" filterUnits="userSpaceOnUse" color-interpolation-filters="sRGB">
<feFlood flood-opacity="0" result="BackgroundImageFix"/>
<feColorMatrix in="SourceAlpha" type="matrix" values="0 0 0 0 0 0 0 0 0 0 0 0 0 0 0 0 0 0 127 0" result="hardAlpha"/>
<feOffset dy="6"/>
<feGaussianBlur stdDeviation="10"/>
<feComposite in2="hardAlpha" operator="out"/>
<feColorMatrix type="matrix" values="0 0 0 0 0 0 0 0 0 0 0 0 0 0 0 0 0 0 0.2 0"/>
<feBlend mode="normal" in2="BackgroundImageFix" result="effect1_dropShadow_9925_68085"/>
<feBlend mode="normal" in="SourceGraphic" in2="effect1_dropShadow_9925_68085" result="shape"/>
</filter>
<filter id="filter1_d_9925_68085" x="220" y="110" width="110" height="110" filterUnits="userSpaceOnUse" color-interpolation-filters="sRGB">
<feFlood flood-opacity="0" result="BackgroundImageFix"/>
<feColorMatrix in="SourceAlpha" type="matrix" values="0 0 0 0 0 0 0 0 0 0 0 0 0 0 0 0 0 0 127 0" result="hardAlpha"/>
<feOffset dy="6"/>
<feGaussianBlur stdDeviation="10"/>
<feComposite in2="hardAlpha" operator="out"/>
<feColorMatrix type="matrix" values="0 0 0 0 0 0 0 0 0 0 0 0 0 0 0 0 0 0 0.2 0"/>
<feBlend mode="normal" in2="BackgroundImageFix" result="effect1_dropShadow_9925_68085"/>
<feBlend mode="normal" in="SourceGraphic" in2="effect1_dropShadow_9925_68085" result="shape"/>
</filter>
</defs>
</svg>
