<?xml version="1.0" encoding="UTF-8"?> <svg xmlns="http://www.w3.org/2000/svg" width="361" height="364" viewBox="0 0 361 364" fill="none"><path d="M192.881 150.019C189.309 148.431 186.928 145.653 184.944 142.875H175.022H174.625H166.291C160.337 155.178 152.003 165.497 142.081 170.656H146.05C148.034 173.831 150.812 176.609 154.781 178.594C167.481 184.944 198.041 188.912 209.55 210.344H246.062V196.056C246.062 160.734 207.169 157.162 192.881 150.019ZM175.022 142.875C196.85 142.875 214.312 113.506 214.312 86.9156C214.312 67.0718 199.231 50.4031 180.181 48.0219C179.784 48.0219 179.784 48.0219 179.387 48.0219C178.991 48.0219 178.594 48.0219 178.197 48.0219C177.403 48.0219 176.212 48.0219 175.419 48.0219H175.022H174.625C173.831 48.0219 172.641 48.0219 171.847 48.0219C171.45 48.0219 171.053 48.0219 170.656 48.0219C170.259 48.0219 170.259 48.0219 169.862 48.0219C159.544 49.6094 150.416 54.7687 144.066 62.7062C161.528 69.4531 174.625 86.9156 174.625 107.156C174.625 118.666 171.847 130.969 166.687 141.684C169.466 142.478 171.847 142.875 175.022 142.875C174.625 142.875 174.625 142.875 175.022 142.875C175.022 142.875 174.625 142.875 175.022 142.875Z" fill="#00C57F"></path><path d="M67.4688 127C100.347 127 127 100.347 127 67.4688C127 34.5905 100.347 7.9375 67.4688 7.9375C34.5905 7.9375 7.9375 34.5905 7.9375 67.4688C7.9375 100.347 34.5905 127 67.4688 127Z" fill="#00C57F"></path><path d="M209.153 144.066C205.184 142.875 201.613 141.684 199.231 140.494C212.725 129.778 222.25 111.919 222.25 87.7094C222.25 61.1188 200.422 39.6875 173.434 39.6875C160.734 39.6875 148.828 44.45 139.303 53.1813C137.319 52.7844 134.937 52.3875 132.953 51.9906C126.206 22.225 99.2187 0 67.4687 0C30.1625 0 0 30.1625 0 67.4687C0 104.775 30.1625 134.937 67.4687 134.937C70.2469 134.937 73.025 134.541 76.2 134.144C80.5656 147.637 88.1063 160.734 98.0281 169.862C97.2344 170.259 96.8375 170.656 95.6469 171.053C92.8688 172.244 88.5031 173.831 83.7406 175.419C64.2938 182.166 31.75 192.881 31.75 230.187V246.062C31.75 250.428 35.3219 254 39.6875 254H214.312C218.678 254 222.25 250.428 222.25 246.062V230.187C222.25 227.012 221.853 223.838 221.456 221.059H246.062C250.428 221.059 254 217.488 254 213.122V191.691C254 159.147 225.822 149.622 209.153 144.066ZM173.434 55.5625C191.691 55.5625 206.375 69.85 206.375 87.7094C206.375 107.553 196.056 128.984 178.594 133.747C180.975 125.413 182.562 116.681 182.562 107.156C182.562 87.3125 172.244 69.85 156.369 60.325C161.528 57.15 167.481 55.5625 173.434 55.5625ZM15.875 67.4687C15.875 38.8938 38.8938 15.875 67.4687 15.875C96.0437 15.875 119.062 38.8938 119.062 67.4687C119.062 96.0437 96.0437 119.062 67.4687 119.062C38.8938 119.062 15.875 96.0437 15.875 67.4687ZM91.2812 130.572C116.284 121.047 134.541 96.8375 134.541 68.2625C152.797 71.8344 166.291 88.1062 166.291 107.156C166.291 136.525 146.447 166.687 126.603 166.687C111.125 166.687 97.6312 149.225 91.2812 130.572ZM238.125 205.184H215.9C205.581 187.722 185.738 180.975 173.434 177.006C169.069 175.419 164.703 177.8 163.513 182.166C162.322 186.134 164.306 190.897 168.672 192.088C188.912 198.834 206.772 206.772 206.772 230.187V238.125H47.625V230.187C47.625 206.375 65.4844 198.438 88.9 190.897C94.4562 189.309 98.8219 187.722 102.394 185.737C105.966 184.15 109.141 181.769 111.522 178.991C116.284 180.975 121.444 182.166 127 182.166C143.272 182.166 160.338 169.863 171.45 150.416C175.816 150.416 180.181 149.622 184.547 148.034C186.928 150.812 189.706 152.797 192.881 154.384C196.056 155.972 200.025 157.162 204.391 158.75C223.441 165.1 238.522 171.847 238.522 191.294V205.184H238.125Z" fill="#1F3349"></path><path d="M90.0906 49.6094L59.9281 76.2001L45.2437 61.5157C42.0687 58.3407 37.3063 58.3407 34.1313 61.5157C30.9562 64.6907 30.9562 69.4532 34.1313 72.6282L53.975 92.4719C55.5625 94.4563 57.5469 95.2501 59.5312 95.2501C61.5156 95.2501 63.1031 94.4563 64.6906 93.2657L100.409 61.5157C103.584 58.7376 103.981 53.5782 101.203 50.4032C98.425 46.8313 93.2656 46.8313 90.0906 49.6094Z" fill="white"></path><path d="M359.63 343.41C287.966 373.434 229.971 284.015 229.971 284.015M229.971 284.015C229.971 284.015 228.12 297.215 233.589 324.751C228.168 297.456 229.971 284.015 229.971 284.015ZM229.971 284.015C229.971 284.015 234.046 276.668 257.438 280.064" stroke="#FFB038" stroke-width="4"></path></svg> 