<?xml version="1.0" encoding="utf-8"?>
<!-- Generator: Adobe Illustrator 24.1.0, SVG Export Plug-In . SVG Version: 6.00 Build 0)  -->
<svg version="1.1" id="Capa_1" xmlns="http://www.w3.org/2000/svg" xmlns:xlink="http://www.w3.org/1999/xlink" x="0px" y="0px"
	 viewBox="0 0 71 74" style="enable-background:new 0 0 71 74;" xml:space="preserve">
<style type="text/css">
	.st0{fill:#62637C;}
	.st1{fill:#FF6612;}
</style>
<polygon class="st1" points="42.4,3.4 40.3,17.3 34.9,19.4 33.3,24.3 26.5,26.7 22.6,23.1 "/>
<g id="Out_line">
	<path class="st0" d="M68.7,47.3l1.8-1.5L55.3,27.1l0,0c-0.4-0.5-1.1-0.6-1.6-0.2c-0.1,0.1-0.1,0.1-0.2,0.2l-34,43.3l1.8,1.4
		l29.3-37.4l-4.4,11.6c-0.1,0.3-0.1,0.6,0,0.8l2.1,5.2l-6.6,8.8c-0.2,0.3-0.3,0.7-0.2,1.1l3.5,9.4l2.2-0.8L44,62l6.6-8.9
		c0.2-0.3,0.3-0.8,0.2-1.1l-2.2-5.4l6.2-16.4L68.7,47.3z"/>
	<path class="st0" d="M23.1,32.2l1.7-1.7L11.9,17.7l0,0c-0.5-0.5-1.2-0.5-1.6,0c0,0,0,0,0,0L0.8,27l1.7,1.7l7.4-7.4v6.1l-4.3,4.3
		c-0.4,0.4-0.4,0.9-0.2,1.4l1.5,3H0.5v2.3h8.2c0.6,0,1.2-0.5,1.2-1.2c0-0.2,0-0.4-0.1-0.5l-2-3.9l4.1-4.1c0.2-0.2,0.3-0.5,0.3-0.8
		v-6.5L23.1,32.2z"/>
	<path class="st0" d="M27.4,48.9v-3.5h3.5c0.5,0,1-0.4,1.1-0.9l1.2-4.7c0-0.1,0-0.3,0-0.4l-0.7-4.7l5.7,5.7l1.7-1.7l-8.2-8.2l0,0
		c-0.5-0.5-1.2-0.5-1.6,0c0,0,0,0,0,0L12.5,48.1c-0.5,0.5-0.5,1.2,0,1.7c0.2,0.2,0.5,0.3,0.8,0.3h12.9
		C26.9,50.1,27.4,49.6,27.4,48.9C27.4,48.9,27.4,48.9,27.4,48.9z M25.1,44.3v3.5h-8.9l13.9-13.9l0.8,5.7L30,43.1h-3.8
		C25.6,43.1,25.1,43.6,25.1,44.3C25.1,44.3,25.1,44.3,25.1,44.3z"/>
	<path class="st0" d="M40.9,6.7l-1.6,9.8L34,18.6c-0.3,0.1-0.6,0.4-0.7,0.8l-1,3.9l-6.3,1l0.4,2.3l7-1.2c0.5-0.1,0.8-0.4,0.9-0.9
		l1-4.1l5.3-2.1c0.4-0.2,0.7-0.5,0.7-0.9l2-11.8L68.8,31l1.7-1.7L43.5,2.4l0,0l0,0l0,0C43,2,42.3,2,41.8,2.4c0,0,0,0,0,0L21.9,22.3
		l1.7,1.7L40.9,6.7z"/>
</g>
</svg>
